{"glyphs":{"\u0000":{"ha":0,"x_min":0,"x_max":0,"o":""},"\r":{"ha":347,"x_min":0,"x_max":0,"o":""}," ":{"ha":347,"x_min":0,"x_max":0,"o":""},"E":{"ha":792,"x_min":132,"x_max":729,"o":"m 132 944 l 707 944 l 707 771 l 321 771 l 321 565 l 642 565 l 642 392 l 321 392 l 321 174 l 729 174 l 707 0 l 132 0 l 132 944 z "},"F":{"ha":781,"x_min":132,"x_max":718,"o":"m 132 944 l 718 944 l 718 771 l 321 771 l 321 522 l 675 522 l 653 349 l 321 349 l 321 0 l 132 0 l 132 944 z "},"G":{"ha":1001,"x_min":76,"x_max":897,"o":"m 590 481 l 892 481 l 892 108 q 740 15 826 42 q 554 -11 654 -11 q 368 27 456 -11 q 216 131 281 65 q 114 284 151 196 q 76 472 76 372 q 114 660 76 572 q 216 814 151 749 q 368 917 281 879 q 554 956 456 956 q 744 917 657 956 q 897 808 831 878 l 761 688 q 669 757 721 732 q 554 782 617 782 q 442 758 494 782 q 350 691 389 733 q 288 592 311 649 q 265 472 265 536 q 288 352 265 408 q 350 253 311 296 q 442 187 389 211 q 554 163 494 163 q 640 171 599 163 q 717 200 681 179 l 717 321 l 567 321 l 590 481 z "},"H":{"ha":1019,"x_min":132,"x_max":888,"o":"m 699 392 l 321 392 l 321 0 l 132 0 l 132 944 l 321 944 l 321 565 l 699 565 l 699 944 l 888 944 l 888 0 l 699 0 l 699 392 z "},"I":{"ha":508,"x_min":160,"x_max":349,"o":"m 349 944 l 349 0 l 160 -11 l 160 944 l 349 944 z "},"J":{"ha":667,"x_min":21,"x_max":535,"o":"m 535 944 l 535 379 q 526 231 535 301 q 488 106 517 160 q 406 21 460 53 q 263 -11 353 -11 q 124 18 188 -11 q 21 96 61 47 l 161 239 q 194 182 176 201 q 249 163 213 163 q 305 178 285 163 q 334 228 325 194 q 344 313 343 261 q 346 435 346 364 l 346 771 l 192 771 l 215 944 l 535 944 z "},"K":{"ha":919,"x_min":132,"x_max":885,"o":"m 389 500 l 321 438 l 321 0 l 132 0 l 132 944 l 321 956 l 321 644 l 625 944 l 885 944 l 533 629 l 857 0 l 647 0 l 389 500 z "},"L":{"ha":669,"x_min":132,"x_max":663,"o":"m 132 944 l 321 944 l 321 189 l 663 189 l 643 0 l 132 0 l 132 944 z "},"N":{"ha":1024,"x_min":132,"x_max":892,"o":"m 132 933 l 306 956 l 732 326 l 732 944 l 892 944 l 892 11 l 732 -11 l 306 624 l 306 0 l 132 0 l 132 933 z "},"O":{"ha":1101,"x_min":76,"x_max":1032,"o":"m 76 472 q 114 660 76 572 q 216 814 151 749 q 368 917 281 879 q 554 956 456 956 q 740 917 653 956 q 892 814 828 879 q 994 660 957 749 q 1032 472 1032 572 q 994 284 1032 372 q 892 131 957 196 q 740 27 828 65 q 554 -11 653 -11 q 368 27 456 -11 q 216 131 281 65 q 114 284 151 196 q 76 472 76 372 m 265 472 q 288 352 265 408 q 350 253 311 296 q 442 187 389 211 q 554 163 494 163 q 667 187 614 163 q 758 253 719 211 q 820 352 797 296 q 843 472 843 408 q 820 592 843 536 q 758 691 797 649 q 667 758 719 733 q 554 782 614 782 q 442 758 494 782 q 350 691 389 733 q 288 592 311 649 q 265 472 265 536 z "},"P":{"ha":799,"x_min":132,"x_max":750,"o":"m 132 944 l 390 944 q 547 921 479 944 q 660 856 615 897 q 727 760 704 815 q 750 640 750 704 q 728 521 750 576 q 662 424 706 465 q 553 360 618 383 q 404 336 489 336 l 321 336 l 321 0 l 132 0 l 132 944 m 390 499 q 521 529 481 499 q 561 635 561 560 q 517 740 561 710 q 390 771 474 771 l 321 771 l 321 499 l 390 499 z "},"Q":{"ha":1108,"x_min":76,"x_max":1032,"o":"m 618 -7 q 554 -11 586 -11 q 368 27 456 -11 q 216 131 281 65 q 114 284 151 196 q 76 472 76 372 q 114 660 76 572 q 216 814 151 749 q 368 917 281 879 q 554 956 456 956 q 740 917 653 956 q 892 814 828 879 q 994 660 957 749 q 1032 472 1032 572 q 1015 346 1032 407 q 968 231 999 285 q 895 134 938 178 q 801 58 853 90 l 928 -239 l 736 -261 l 618 -7 m 265 472 q 288 352 265 408 q 350 253 311 296 q 442 187 389 211 q 554 163 494 163 q 667 187 614 163 q 758 253 719 211 q 820 352 797 296 q 843 472 843 408 q 820 592 843 536 q 758 691 797 649 q 667 758 719 733 q 554 782 614 782 q 442 758 494 782 q 350 691 389 733 q 288 592 311 649 q 265 472 265 536 z "},"R":{"ha":879,"x_min":132,"x_max":803,"o":"m 801 647 q 748 481 801 551 q 610 379 694 411 l 803 11 l 618 -11 l 424 357 l 321 357 l 321 0 l 132 0 l 132 944 l 476 944 q 612 921 551 944 q 714 857 672 897 q 778 763 756 817 q 801 647 801 708 m 321 519 l 449 519 q 526 531 494 519 q 576 559 557 542 q 604 599 596 576 q 613 647 613 622 q 576 737 613 703 q 449 771 540 771 l 321 771 l 321 519 z "},"S":{"ha":715,"x_min":63,"x_max":660,"o":"m 367 956 q 463 942 415 956 q 546 911 510 928 q 628 868 589 892 l 528 728 q 465 767 500 753 q 376 782 429 782 q 299 757 324 782 q 274 703 274 732 q 310 622 274 658 q 421 543 347 586 q 526 476 481 507 q 601 409 571 444 q 645 331 631 374 q 660 228 660 288 q 634 119 660 164 q 567 44 608 74 q 472 2 525 15 q 367 -11 419 -11 q 245 9 300 -11 q 150 54 190 29 q 63 119 103 82 l 183 239 q 233 200 206 217 q 289 174 257 185 q 361 163 321 163 q 440 183 410 163 q 471 244 471 204 q 460 292 471 272 q 428 329 449 313 q 379 362 408 346 q 315 397 350 378 q 229 452 271 422 q 156 521 188 482 q 104 608 124 560 q 85 717 85 656 q 101 799 85 757 q 152 876 118 842 q 240 933 186 911 q 367 956 293 956 z "},"T":{"ha":717,"x_min":49,"x_max":668,"o":"m 49 944 l 668 944 l 668 771 l 453 771 l 453 0 l 264 -11 l 264 771 l 49 771 l 49 944 z "},"U":{"ha":914,"x_min":104,"x_max":810,"o":"m 810 390 q 790 231 810 304 q 729 104 771 158 q 622 19 688 50 q 463 -11 556 -11 q 296 19 364 -11 q 185 104 228 50 q 124 231 143 158 q 104 390 104 304 l 104 944 l 293 956 l 293 401 q 298 304 293 349 q 320 228 303 260 q 372 180 338 197 q 463 163 406 163 q 551 178 517 163 q 603 225 585 194 q 629 300 622 256 q 636 401 636 344 l 636 944 l 810 944 l 810 390 z "},"V":{"ha":947,"x_min":7,"x_max":940,"o":"m 476 326 l 742 944 l 940 933 l 533 0 l 414 0 l 7 933 l 207 944 l 476 326 z "},"W":{"ha":1132,"x_min":7,"x_max":1125,"o":"m 560 635 l 386 0 l 232 0 l 7 933 l 199 944 l 336 350 l 496 944 l 650 944 l 807 339 l 936 944 l 1125 933 l 900 0 l 758 0 l 560 635 z "},"X":{"ha":864,"x_min":21,"x_max":843,"o":"m 536 481 l 843 11 l 638 -11 l 417 326 l 215 -11 l 21 11 l 321 475 l 24 933 l 228 956 l 439 631 l 629 956 l 824 933 l 536 481 z "},"Y":{"ha":796,"x_min":7,"x_max":789,"o":"m 308 492 l 7 933 l 215 956 l 417 654 l 590 956 l 789 933 l 497 493 l 497 0 l 308 0 l 308 492 z "},"Z":{"ha":817,"x_min":63,"x_max":747,"o":"m 353 163 l 714 163 l 692 0 l 63 0 l 456 782 l 128 782 l 128 944 l 747 944 l 353 163 z "},"b":{"ha":897,"x_min":118,"x_max":835,"o":"m 835 358 q 807 218 835 285 q 733 100 779 151 q 624 19 686 49 q 490 -11 561 -11 q 449 -8 474 -11 q 399 8 425 -4 q 344 44 372 21 q 292 108 317 68 l 292 0 l 118 0 l 118 1042 l 292 1053 l 292 643 q 349 683 321 668 q 403 706 378 699 q 451 715 429 713 q 490 717 474 717 q 615 690 553 717 q 725 616 676 664 q 804 502 774 568 q 835 358 835 436 m 661 353 q 647 433 661 396 q 606 499 632 471 q 544 542 579 526 q 469 558 510 558 q 394 542 429 558 q 333 499 358 526 q 292 433 307 471 q 276 353 276 396 q 292 272 276 310 q 333 207 307 235 q 394 163 358 179 q 469 147 429 147 q 544 163 510 147 q 606 207 579 179 q 647 272 632 235 q 661 353 661 310 z "},"c":{"ha":731,"x_min":63,"x_max":682,"o":"m 682 97 q 565 17 632 46 q 421 -11 499 -11 q 282 17 347 -11 q 168 95 217 46 q 91 211 119 144 q 63 353 63 278 q 91 494 63 428 q 168 610 119 561 q 282 688 217 660 q 421 717 347 717 q 565 688 499 717 q 682 608 632 660 l 565 492 q 421 558 507 558 q 349 542 383 558 q 290 499 315 526 q 251 433 265 471 q 236 353 236 396 q 251 272 236 310 q 290 207 265 235 q 349 163 315 179 q 421 147 383 147 q 565 214 507 147 l 682 97 z "},"d":{"ha":863,"x_min":49,"x_max":765,"o":"m 49 358 q 79 502 49 436 q 158 616 110 568 q 269 690 207 664 q 393 717 331 717 q 432 715 410 717 q 480 706 454 713 q 534 683 506 699 q 592 643 563 668 l 592 1042 l 765 1053 l 765 0 l 592 0 l 592 108 q 539 44 567 68 q 485 8 511 21 q 434 -8 458 -4 q 393 -11 410 -11 q 260 19 322 -11 q 151 100 197 49 q 76 218 104 151 q 49 358 49 285 m 222 353 q 237 272 222 310 q 278 207 251 235 q 339 163 304 179 q 414 147 374 147 q 490 163 454 147 q 551 207 525 179 q 592 272 576 235 q 607 353 607 310 q 592 433 607 396 q 551 499 576 471 q 490 542 525 526 q 414 558 454 558 q 339 542 374 558 q 278 499 304 526 q 237 433 251 471 q 222 353 222 396 z "},"f":{"ha":536,"x_min":35,"x_max":536,"o":"m 318 547 l 318 0 l 144 0 l 144 547 l 35 547 l 35 706 l 471 706 l 449 547 l 318 547 m 144 706 q 153 842 144 779 q 190 953 163 906 q 268 1026 217 1000 q 404 1053 319 1053 q 460 1048 436 1053 q 501 1036 485 1043 q 536 1019 521 1029 l 460 892 q 444 900 453 896 q 426 906 438 903 q 401 910 415 910 q 338 864 358 910 q 318 706 318 818 l 144 706 z "},"g":{"ha":869,"x_min":63,"x_max":779,"o":"m 606 63 q 548 22 576 38 q 494 0 519 7 q 446 -9 468 -7 q 407 -11 424 -11 q 283 15 344 -11 q 172 90 221 42 q 93 203 124 138 q 63 347 63 269 q 90 488 63 421 q 165 606 118 554 q 274 687 211 657 q 407 717 336 717 q 448 713 424 717 q 499 697 472 710 q 553 661 525 685 q 606 597 581 638 l 606 706 l 779 717 l 779 14 q 749 -165 779 -93 q 666 -279 718 -236 q 547 -340 614 -322 q 407 -358 479 -358 q 335 -354 371 -358 q 267 -340 299 -350 q 207 -312 235 -329 q 158 -272 179 -296 l 278 -153 q 332 -192 303 -185 q 407 -200 361 -200 q 501 -188 463 -200 q 563 -151 539 -176 q 596 -85 586 -125 q 606 14 606 -44 l 606 63 m 236 353 q 251 272 236 310 q 292 207 265 235 q 353 163 318 179 q 428 147 388 147 q 503 163 468 147 q 565 207 539 179 q 606 272 590 235 q 621 353 621 310 q 606 433 621 396 q 565 499 590 471 q 503 542 539 526 q 428 558 468 558 q 353 542 388 558 q 292 499 318 526 q 251 433 265 471 q 236 353 236 396 z "},"h":{"ha":806,"x_min":118,"x_max":722,"o":"m 500 717 q 617 690 572 717 q 684 617 661 664 q 715 507 707 571 q 722 368 722 443 l 722 0 l 547 0 l 547 308 q 546 421 547 374 q 535 499 544 468 q 508 544 526 529 q 454 558 489 558 q 410 552 433 558 q 365 537 388 546 q 324 516 343 528 q 292 493 306 504 l 292 0 l 118 0 l 118 1042 l 292 1053 l 292 608 q 331 646 308 626 q 381 681 354 665 q 438 707 408 697 q 500 717 468 717 z "},"i":{"ha":424,"x_min":111,"x_max":326,"o":"m 132 706 l 306 706 l 306 0 l 132 0 l 132 706 m 111 908 q 142 985 111 953 q 218 1017 174 1017 q 294 985 263 1017 q 326 908 326 953 q 294 833 326 864 q 218 801 263 801 q 142 833 174 801 q 111 908 111 864 z "},"j":{"ha":424,"x_min":-74,"x_max":325,"o":"m 110 908 q 141 985 110 953 q 217 1017 172 1017 q 293 985 261 1017 q 325 908 325 953 q 293 833 325 864 q 217 801 261 801 q 141 833 172 801 q 110 908 110 864 m 306 1 q 295 -128 306 -64 q 253 -243 285 -192 q 163 -326 221 -294 q 13 -358 106 -358 q -23 -357 -7 -358 q -50 -353 -39 -356 q -74 -347 -64 -350 l -8 -199 q -1 -200 -6 -200 l 13 -200 q 64 -192 42 -200 q 101 -162 86 -183 q 124 -104 117 -140 q 132 -11 132 -68 l 132 706 l 306 706 l 306 1 z "},"k":{"ha":761,"x_min":118,"x_max":747,"o":"m 360 381 l 292 319 l 292 0 l 118 0 l 118 944 l 292 956 l 292 500 l 514 706 l 731 706 l 499 488 l 747 0 l 556 0 l 360 381 z "},"l":{"ha":410,"x_min":132,"x_max":306,"o":"m 132 1042 l 306 1053 l 306 0 l 132 0 l 132 1042 z "},"m":{"ha":1183,"x_min":104,"x_max":1093,"o":"m 858 717 q 994 687 946 717 q 1064 608 1042 657 q 1090 496 1086 558 q 1093 368 1093 433 l 1093 0 l 919 0 l 919 308 q 918 421 919 374 q 908 499 917 468 q 880 544 899 529 q 826 558 861 558 q 751 538 789 558 q 685 493 713 518 l 685 0 l 518 0 l 518 308 q 517 421 518 374 q 506 499 515 468 q 478 544 497 529 q 425 558 460 558 q 347 538 388 558 q 278 493 306 518 l 278 0 l 104 0 l 104 706 l 269 717 l 278 608 q 353 685 310 653 q 450 717 396 717 q 571 685 522 717 q 643 608 619 654 q 683 644 660 625 q 735 680 707 664 q 795 706 764 696 q 858 717 826 717 z "},"n":{"ha":821,"x_min":104,"x_max":738,"o":"m 531 717 q 650 687 608 717 q 711 608 692 657 q 734 496 731 558 q 738 369 738 433 l 738 0 l 564 0 l 564 308 q 563 421 564 374 q 552 499 561 468 q 524 544 543 529 q 471 558 506 558 q 361 542 413 558 q 278 493 310 525 l 278 0 l 104 0 l 104 706 l 269 717 l 278 608 q 390 683 324 650 q 531 717 457 717 z "},"o":{"ha":853,"x_min":63,"x_max":790,"o":"m 243 353 q 258 272 243 310 q 297 207 272 235 q 356 163 322 179 q 426 147 389 147 q 497 163 464 147 q 556 207 531 179 q 595 272 581 235 q 610 353 610 310 q 595 433 610 396 q 556 499 581 471 q 497 542 531 526 q 426 558 464 558 q 356 542 389 558 q 297 499 322 526 q 258 433 272 471 q 243 353 243 396 m 426 717 q 566 688 500 717 q 682 608 632 658 q 761 492 732 558 q 790 353 790 426 q 761 213 790 279 q 682 97 732 147 q 566 18 632 47 q 426 -11 500 -11 q 287 18 353 -11 q 171 97 221 47 q 92 213 121 147 q 63 353 63 279 q 92 492 63 426 q 171 608 121 558 q 287 688 221 658 q 426 717 353 717 z "},"p":{"ha":876,"x_min":97,"x_max":814,"o":"m 814 347 q 783 203 814 269 q 704 90 753 138 q 594 15 656 42 q 469 -11 532 -11 q 431 -9 453 -11 q 383 0 408 -7 q 328 22 357 7 q 271 63 300 38 l 271 -347 l 97 -347 l 97 706 l 271 717 l 271 597 q 324 661 296 638 q 378 697 351 685 q 428 713 404 710 q 469 717 453 717 q 603 687 540 717 q 712 606 665 657 q 786 488 758 554 q 814 347 814 421 m 640 353 q 626 433 640 396 q 585 499 611 471 q 524 542 558 526 q 449 558 489 558 q 373 542 408 558 q 312 499 338 526 q 271 433 286 471 q 256 353 256 396 q 271 272 256 310 q 312 207 286 235 q 373 163 338 179 q 449 147 408 147 q 524 163 489 147 q 585 207 558 179 q 626 272 611 235 q 640 353 640 310 z "},"q":{"ha":869,"x_min":63,"x_max":779,"o":"m 63 347 q 90 488 63 421 q 165 606 118 554 q 274 687 211 657 q 407 717 336 717 q 448 713 424 717 q 499 697 472 710 q 553 661 525 685 q 606 597 581 638 l 606 706 l 779 717 l 779 -347 l 606 -347 l 606 63 q 548 22 576 38 q 494 0 519 7 q 446 -9 468 -7 q 407 -11 424 -11 q 283 15 344 -11 q 172 90 221 42 q 93 203 124 138 q 63 347 63 269 m 236 353 q 251 272 236 310 q 292 207 265 235 q 353 163 318 179 q 428 147 388 147 q 503 163 468 147 q 565 207 539 179 q 606 272 590 235 q 621 353 621 310 q 606 433 621 396 q 565 499 590 471 q 503 542 539 526 q 428 558 468 558 q 353 542 388 558 q 292 499 318 526 q 251 433 265 471 q 236 353 236 396 z "},"r":{"ha":586,"x_min":104,"x_max":579,"o":"m 478 549 q 463 553 471 550 q 446 557 456 556 q 424 558 436 558 q 346 538 386 558 q 278 493 306 518 l 278 0 l 104 0 l 104 706 l 269 717 l 278 608 q 317 651 293 631 q 367 685 340 671 q 424 708 394 700 q 478 717 453 717 q 531 712 507 717 q 579 697 556 707 l 478 549 z "},"s":{"ha":594,"x_min":69,"x_max":539,"o":"m 307 717 q 397 705 358 717 q 464 678 436 693 q 519 640 496 661 l 400 522 q 378 540 392 532 q 349 553 367 547 q 303 558 331 558 q 265 546 279 558 q 250 514 250 533 q 284 468 250 489 q 364 421 318 447 q 426 383 394 404 q 482 333 457 361 q 523 267 507 304 q 539 183 539 231 q 520 103 539 139 q 469 42 501 67 q 395 3 438 17 q 307 -11 353 -11 q 215 3 258 -11 q 139 38 171 18 q 69 88 101 60 l 185 200 q 217 174 199 185 q 254 155 232 163 q 304 147 276 147 q 349 160 332 147 q 365 196 365 172 q 339 247 365 228 q 274 292 313 267 q 212 330 246 310 q 147 378 178 350 q 97 447 117 407 q 76 543 76 486 q 91 601 76 571 q 135 658 106 632 q 207 700 164 683 q 307 717 250 717 z "},"t":{"ha":547,"x_min":49,"x_max":485,"o":"m 332 547 l 332 321 q 335 215 332 254 q 350 154 339 175 q 383 128 361 133 q 440 122 404 122 l 440 8 q 417 -1 429 3 q 391 -8 406 -6 q 361 -11 376 -11 q 300 -2 335 -11 q 234 33 265 7 q 181 106 203 60 q 158 226 158 151 l 158 547 l 49 547 l 49 706 l 158 706 l 158 944 l 332 944 l 332 706 l 485 706 l 463 547 l 332 547 z "},"u":{"ha":776,"x_min":76,"x_max":679,"o":"m 297 -11 q 174 19 218 -11 q 108 98 129 49 q 81 210 86 147 q 76 338 76 272 l 76 706 l 250 706 l 250 397 q 251 285 250 332 q 262 207 253 238 q 290 162 271 176 q 343 147 308 147 q 384 153 361 147 q 429 167 407 158 q 472 188 451 176 q 506 213 492 200 l 506 706 l 679 706 l 679 0 l 515 -11 l 506 97 q 465 55 490 75 q 411 20 440 35 q 352 -3 382 6 q 297 -11 322 -11 z "},"v":{"ha":733,"x_min":14,"x_max":719,"o":"m 719 706 l 429 0 l 314 0 l 14 706 l 197 717 l 372 276 l 546 717 l 719 706 z "},"w":{"ha":932,"x_min":14,"x_max":918,"o":"m 713 0 l 596 0 l 472 365 l 376 0 l 253 0 l 14 706 l 194 717 l 314 299 l 426 706 l 535 706 l 658 299 l 779 717 l 918 706 l 713 0 z "},"x":{"ha":688,"x_min":14,"x_max":674,"o":"m 231 361 l 14 706 l 210 717 l 342 499 l 481 717 l 638 706 l 435 383 l 674 0 l 479 -11 l 329 236 l 176 -11 l 14 0 l 231 361 z "},"y":{"ha":765,"x_min":7,"x_max":758,"o":"m 303 61 l 7 706 l 193 717 l 390 265 l 582 717 l 758 706 l 283 -358 l 135 -336 l 303 61 z "},"z":{"ha":663,"x_min":49,"x_max":614,"o":"m 318 143 l 610 143 l 590 0 l 49 0 l 344 563 l 104 563 l 104 706 l 614 706 l 318 143 z "},"D":{"ha":1000,"x_min":132,"x_max":924,"o":"m 447 944 q 645 911 557 944 q 795 816 733 878 q 890 666 857 754 q 924 468 924 578 q 890 275 924 361 q 795 128 857 189 q 645 33 733 67 q 447 0 557 0 l 132 0 l 132 944 l 447 944 m 419 174 q 563 189 503 174 q 660 239 622 204 q 717 330 699 274 q 735 468 735 386 q 713 612 735 554 q 649 705 690 669 q 549 756 607 740 q 419 771 490 771 l 321 771 l 321 174 l 419 174 z "},"A":{"ha":963,"x_min":21,"x_max":956,"o":"m 424 944 l 551 944 l 956 11 l 761 -11 l 683 168 l 289 168 l 214 -11 l 21 11 l 424 944 m 363 342 l 607 342 l 483 626 l 363 342 z "},".":{"ha":433,"x_min":90,"x_max":301,"o":"m 90 94 q 121 169 90 139 q 196 200 151 200 q 271 169 240 200 q 301 94 301 139 q 271 19 301 50 q 196 -11 240 -11 q 121 19 151 -11 q 90 94 90 50 z "},",":{"ha":433,"x_min":90,"x_max":301,"o":"m 90 -158 q 113 -85 104 -119 q 127 -11 122 -50 q 133 76 132 28 q 135 189 135 124 l 301 200 q 294 106 301 157 q 274 5 288 56 q 240 -94 260 -46 q 196 -181 221 -143 l 90 -158 z "},":":{"ha":433,"x_min":90,"x_max":301,"o":"m 90 94 q 121 169 90 139 q 196 200 151 200 q 271 169 240 200 q 301 94 301 139 q 271 19 301 50 q 196 -11 240 -11 q 121 19 151 -11 q 90 94 90 50 m 90 600 q 121 675 90 644 q 196 706 151 706 q 271 675 240 706 q 301 600 301 644 q 271 525 301 556 q 196 494 240 494 q 121 525 151 494 q 90 600 90 556 z "},";":{"ha":433,"x_min":90,"x_max":301,"o":"m 90 600 q 121 675 90 644 q 196 706 151 706 q 271 675 240 706 q 301 600 301 644 q 271 525 301 556 q 196 494 240 494 q 121 525 151 494 q 90 600 90 556 m 90 -158 q 113 -85 104 -119 q 127 -11 122 -50 q 133 76 132 28 q 135 189 135 124 l 301 200 q 294 106 301 157 q 274 5 288 56 q 240 -94 260 -46 q 196 -181 221 -143 l 90 -158 z "},"‘":{"ha":374,"x_min":111,"x_max":311,"o":"m 311 1022 q 293 960 300 985 q 282 910 286 936 q 276 851 278 885 q 275 764 275 818 l 111 749 q 135 913 111 835 q 204 1053 160 990 l 311 1022 z "},"’":{"ha":401,"x_min":90,"x_max":290,"o":"m 197 1053 q 266 913 242 990 q 290 749 290 835 l 126 764 q 124 851 126 818 q 118 910 122 885 q 107 960 114 936 q 90 1022 100 985 l 197 1053 z "},"“":{"ha":632,"x_min":111,"x_max":569,"o":"m 569 1022 q 551 960 558 985 q 540 910 544 936 q 535 851 536 885 q 533 764 533 818 l 369 749 q 394 913 369 835 q 463 1053 418 990 l 569 1022 m 311 1022 q 293 960 300 985 q 282 910 286 936 q 276 851 278 885 q 275 764 275 818 l 111 749 q 135 913 111 835 q 204 1053 160 990 l 311 1022 z "},"”":{"ha":660,"x_min":90,"x_max":549,"o":"m 197 1053 q 266 913 242 990 q 290 749 290 835 l 126 764 q 124 851 126 818 q 118 910 122 885 q 107 960 114 936 q 90 1022 100 985 l 197 1053 m 456 1053 q 524 913 500 990 q 549 749 549 835 l 385 764 q 383 851 385 818 q 376 910 381 885 q 365 960 372 936 q 349 1022 358 985 l 456 1053 z "},"!":{"ha":419,"x_min":90,"x_max":301,"o":"m 90 94 q 121 169 90 139 q 196 200 151 200 q 271 169 240 200 q 301 94 301 139 q 271 19 301 50 q 196 -11 240 -11 q 121 19 151 -11 q 90 94 90 50 m 103 631 l 103 944 l 289 944 l 289 631 l 264 318 l 128 318 l 103 631 z "},"?":{"ha":639,"x_min":7,"x_max":535,"o":"m 178 525 q 276 539 239 526 q 335 572 314 551 q 363 620 356 593 q 371 675 371 647 q 361 722 371 700 q 335 761 351 744 q 295 788 318 778 q 247 797 272 797 q 175 774 210 797 q 126 711 140 750 l 7 825 q 44 873 21 850 q 98 915 68 896 q 165 944 128 933 q 247 956 203 956 q 359 933 307 956 q 450 871 411 910 q 512 780 489 832 q 535 668 535 728 q 518 573 535 618 q 473 492 501 528 q 406 431 444 456 q 321 396 367 406 l 315 290 l 179 290 l 165 525 l 178 525 m 142 94 q 172 169 142 139 q 247 200 203 200 q 322 169 292 200 q 353 94 353 139 q 322 19 353 50 q 247 -11 292 -11 q 172 19 203 -11 q 142 94 142 50 z "},"<":{"ha":969,"x_min":132,"x_max":838,"o":"m 132 460 l 838 706 l 838 529 l 333 361 l 838 179 l 838 0 l 132 268 l 132 460 z "},"≤":{"ha":969,"x_min":132,"x_max":838,"o":"m 132 0 l 132 158 l 838 158 l 132 351 l 132 513 l 838 706 l 838 539 l 444 432 l 838 325 l 838 0 l 132 0 z "},"=":{"ha":969,"x_min":132,"x_max":838,"o":"m 132 593 l 838 593 l 838 435 l 132 435 l 132 593 m 132 293 l 838 293 l 838 135 l 132 135 l 132 293 z "},"≈":{"ha":969,"x_min":132,"x_max":838,"o":"m 132 554 q 183 586 156 571 q 240 609 207 599 q 308 619 272 619 q 401 605 358 619 q 484 574 443 590 q 568 542 525 557 q 661 528 611 528 q 733 538 701 528 q 789 560 765 547 q 838 593 815 575 l 838 435 q 789 401 815 417 q 733 379 765 389 q 661 369 701 369 q 568 384 611 369 q 484 415 525 399 q 401 447 443 432 q 308 461 358 461 q 240 451 272 461 q 183 428 207 440 q 132 396 156 413 l 132 554 m 132 293 q 183 325 156 310 q 240 348 207 338 q 308 358 272 358 q 401 344 358 358 q 484 313 443 329 q 568 281 525 296 q 661 267 611 267 q 733 276 701 267 q 789 299 765 286 q 838 332 815 314 l 838 174 q 789 140 815 156 q 733 118 765 128 q 661 108 701 108 q 568 123 611 108 q 484 154 525 138 q 401 185 443 171 q 308 200 358 200 q 240 190 272 200 q 183 167 207 179 q 132 135 156 151 l 132 293 z "},"¬":{"ha":969,"x_min":132,"x_max":838,"o":"m 132 463 l 838 463 l 838 125 l 664 125 l 664 304 l 132 304 l 132 463 z "},">":{"ha":969,"x_min":132,"x_max":838,"o":"m 838 268 l 132 0 l 132 179 l 636 361 l 132 529 l 132 706 l 838 460 l 838 268 z "},"≥":{"ha":969,"x_min":132,"x_max":838,"o":"m 838 513 l 838 351 l 132 158 l 132 325 l 525 432 l 132 539 l 132 706 l 838 513 m 838 0 l 132 0 l 132 158 l 838 158 l 838 0 z "},"-":{"ha":832,"x_min":132,"x_max":700,"o":"m 132 442 l 700 442 l 700 283 l 132 283 l 132 442 z "},"–":{"ha":1024,"x_min":132,"x_max":892,"o":"m 132 442 l 892 442 l 892 283 l 132 283 l 132 442 z "},"—":{"ha":1286,"x_min":132,"x_max":1154,"o":"m 132 442 l 1154 442 l 1154 283 l 132 283 l 132 442 z "},"·":{"ha":475,"x_min":132,"x_max":343,"o":"m 132 363 q 163 438 132 407 q 238 468 193 468 q 313 438 282 468 q 343 363 343 407 q 313 288 343 318 q 238 257 282 257 q 163 288 193 257 q 132 363 132 318 z "},"*":{"ha":797,"x_min":90,"x_max":707,"o":"m 471 1042 q 462 986 465 1013 q 456 933 458 960 q 452 878 454 907 q 449 815 450 850 q 550 885 497 851 q 661 933 603 918 l 707 754 q 584 749 640 754 q 489 729 528 744 q 579 647 533 690 q 654 554 625 603 l 494 465 q 480 515 489 486 q 459 574 471 544 q 435 628 447 603 q 411 669 422 654 q 356 558 386 608 q 276 456 325 508 l 146 588 q 185 612 160 597 q 238 644 211 626 q 290 681 265 663 q 326 715 314 699 q 203 742 267 726 q 90 786 140 757 l 183 943 q 209 917 189 936 q 254 877 229 899 q 306 836 279 856 q 350 810 332 817 q 315 926 329 868 q 300 1042 300 983 l 471 1042 z "},"+":{"ha":969,"x_min":132,"x_max":838,"o":"m 132 443 l 399 443 l 399 706 l 572 706 l 572 443 l 838 443 l 838 285 l 572 285 l 572 0 l 399 0 l 399 285 l 132 285 l 132 443 z "},"±":{"ha":969,"x_min":132,"x_max":838,"o":"m 132 546 l 399 546 l 399 717 l 572 717 l 572 546 l 838 546 l 838 388 l 572 388 l 572 206 l 399 206 l 399 388 l 132 388 l 132 546 m 132 147 l 838 147 l 838 -11 l 132 -11 l 132 147 z "},"/":{"ha":629,"x_min":90,"x_max":539,"o":"m 360 944 l 539 944 l 271 0 l 90 0 l 360 944 z "},"\\":{"ha":629,"x_min":90,"x_max":539,"o":"m 539 0 l 358 0 l 90 944 l 269 944 l 539 0 z "},"⁄":{"ha":629,"x_min":90,"x_max":539,"o":"m 360 944 l 539 944 l 271 0 l 90 0 l 360 944 z "},"@":{"ha":1253,"x_min":132,"x_max":1121,"o":"m 961 474 q 934 609 961 547 q 860 716 907 671 q 753 786 814 761 q 626 811 693 811 q 499 785 560 811 q 392 715 439 760 q 319 607 346 669 q 292 472 292 544 q 316 344 292 406 q 386 235 340 282 q 499 161 432 189 q 653 133 567 133 l 626 -11 q 433 27 524 -11 q 276 131 343 65 q 171 284 210 196 q 132 472 132 372 q 171 660 132 572 q 276 814 210 749 q 433 917 343 879 q 626 956 524 956 q 819 917 729 956 q 976 814 910 879 q 1082 660 1043 749 q 1121 472 1121 572 q 1103 322 1121 386 q 1056 213 1086 257 q 986 148 1026 169 q 900 126 946 126 q 817 144 853 126 q 758 187 782 161 q 719 242 733 213 q 700 296 704 271 q 682 270 694 282 q 653 249 669 258 q 619 235 636 240 q 589 231 603 231 q 517 242 546 231 q 472 274 489 254 q 449 317 456 293 q 442 364 442 340 q 464 442 442 413 q 521 488 486 471 q 598 511 556 504 q 682 524 640 518 q 681 554 682 540 q 674 578 679 568 q 656 593 668 588 q 622 599 644 599 q 583 596 600 599 q 554 590 565 593 q 531 583 540 586 l 471 686 q 529 704 499 696 q 586 717 556 711 q 649 724 617 724 q 746 699 711 724 q 796 638 781 675 q 814 559 811 601 q 817 481 817 517 q 818 390 817 433 q 826 315 819 347 q 844 263 832 282 q 881 243 857 243 q 914 253 899 243 q 940 289 929 263 q 956 360 950 315 q 961 474 961 404 m 674 368 q 681 406 678 383 q 682 428 682 417 q 602 415 631 428 q 574 371 574 403 q 583 336 574 354 q 614 318 592 318 q 652 331 638 318 q 674 368 667 344 z "},"(":{"ha":497,"x_min":132,"x_max":435,"o":"m 407 917 q 351 860 371 901 q 321 760 331 819 q 308 626 311 700 q 306 472 306 553 q 308 318 306 392 q 321 185 311 244 q 351 83 331 125 q 407 28 371 42 l 435 -131 q 301 -103 358 -131 q 207 -6 244 -75 q 151 179 169 63 q 132 472 132 296 q 151 765 132 649 q 207 951 169 882 q 301 1047 244 1019 q 435 1075 358 1075 l 407 917 z "},")":{"ha":525,"x_min":90,"x_max":393,"o":"m 90 1075 q 224 1047 167 1075 q 318 951 281 1019 q 374 765 356 882 q 393 472 393 649 q 374 179 393 296 q 318 -6 356 63 q 224 -103 281 -75 q 90 -131 167 -131 l 118 28 q 174 83 153 42 q 204 185 194 125 q 217 318 214 244 q 219 472 219 392 q 217 626 219 553 q 204 760 214 700 q 174 860 194 819 q 118 917 153 901 l 90 1075 z "},"]":{"ha":518,"x_min":90,"x_max":386,"o":"m 386 -131 l 90 -131 l 111 28 l 213 28 l 213 917 l 111 917 l 90 1075 l 386 1075 l 386 -131 z "},"[":{"ha":490,"x_min":132,"x_max":428,"o":"m 132 1075 l 428 1075 l 407 917 l 306 917 l 306 28 l 407 28 l 428 -131 l 132 -131 l 132 1075 z "},"{":{"ha":628,"x_min":132,"x_max":565,"o":"m 565 -131 q 441 -107 494 -131 q 350 -27 388 -83 q 291 124 313 29 q 264 360 269 218 l 132 411 l 132 533 l 264 585 q 291 821 269 726 q 350 972 313 915 q 441 1051 388 1028 q 565 1075 494 1075 l 538 917 q 467 822 493 899 q 433 585 440 744 q 402 508 431 540 q 325 472 374 475 q 402 437 374 469 q 433 360 431 404 q 467 123 440 200 q 538 28 493 46 l 565 -131 z "},"}":{"ha":656,"x_min":90,"x_max":524,"o":"m 118 28 q 189 123 163 46 q 222 360 215 200 q 253 437 225 404 q 329 472 281 469 q 253 508 281 475 q 222 585 225 540 q 189 822 215 744 q 118 917 163 899 l 90 1075 q 213 1051 160 1075 q 304 972 267 1028 q 363 821 342 915 q 390 585 385 726 l 524 533 l 524 411 l 390 360 q 363 124 385 218 q 304 -27 342 29 q 213 -107 267 -83 q 90 -131 160 -131 l 118 28 z "},"«":{"ha":1261,"x_min":132,"x_max":1129,"o":"m 132 460 l 624 706 l 624 525 l 279 354 l 624 181 l 624 0 l 132 249 l 132 460 m 638 460 l 1129 706 l 1129 525 l 785 354 l 1129 181 l 1129 0 l 638 249 l 638 460 z "},"„":{"ha":681,"x_min":90,"x_max":549,"o":"m 90 -128 q 107 -66 100 -90 q 118 -16 114 -42 q 124 43 122 10 q 126 131 126 76 l 290 146 q 266 -18 290 60 q 197 -158 242 -96 l 90 -128 m 349 -128 q 365 -66 358 -90 q 376 -16 372 -42 q 383 43 381 10 q 385 131 385 76 l 549 146 q 524 -18 549 60 q 456 -158 500 -96 l 349 -128 z "},"‚":{"ha":422,"x_min":90,"x_max":290,"o":"m 90 -128 q 107 -66 100 -90 q 118 -16 114 -42 q 124 43 122 10 q 126 131 126 76 l 290 146 q 266 -18 290 60 q 197 -158 242 -96 l 90 -128 z "},"'":{"ha":318,"x_min":76,"x_max":242,"o":"m 76 1042 l 242 1042 l 213 749 l 106 749 l 76 1042 z "},"\"":{"ha":561,"x_min":76,"x_max":485,"o":"m 76 1042 l 242 1042 l 213 749 l 106 749 l 76 1042 m 319 1042 l 485 1042 l 456 749 l 349 749 l 319 1042 z "},"‼":{"ha":772,"x_min":90,"x_max":654,"o":"m 90 94 q 121 169 90 139 q 196 200 151 200 q 271 169 240 200 q 301 94 301 139 q 271 19 301 50 q 196 -11 240 -11 q 121 19 151 -11 q 90 94 90 50 m 103 631 l 103 944 l 289 944 l 289 631 l 264 318 l 128 318 l 103 631 m 443 94 q 474 169 443 139 q 549 200 504 200 q 624 169 593 200 q 654 94 654 139 q 624 19 654 50 q 549 -11 593 -11 q 474 19 504 -11 q 443 94 443 50 m 456 631 l 456 944 l 642 944 l 642 631 l 617 318 l 481 318 l 456 631 z "},"_":{"ha":899,"x_min":69,"x_max":829,"o":"m 69 -11 l 829 -11 l 829 -169 l 69 -169 l 69 -11 z "},"¦":{"ha":715,"x_min":271,"x_max":444,"o":"m 271 424 l 271 1031 l 444 1053 l 444 446 l 271 424 m 444 304 l 444 -336 l 271 -358 l 271 282 l 444 304 z "},"|":{"ha":715,"x_min":271,"x_max":444,"o":"m 271 1031 l 444 1053 l 444 -336 l 271 -358 l 271 1031 z "},"^":{"ha":914,"x_min":104,"x_max":810,"o":"m 810 411 l 619 411 l 457 753 l 294 411 l 104 411 l 358 944 l 556 944 l 810 411 z "},"…":{"ha":953,"x_min":104,"x_max":849,"o":"m 104 94 q 135 169 104 139 q 210 200 165 200 q 285 169 254 200 q 315 94 315 139 q 285 19 315 50 q 210 -11 254 -11 q 135 19 165 -11 q 104 94 104 50 m 371 94 q 401 169 371 139 q 476 200 432 200 q 551 169 521 200 q 582 94 582 139 q 551 19 582 50 q 476 -11 521 -11 q 401 19 432 -11 q 371 94 371 50 m 638 94 q 668 169 638 139 q 743 200 699 200 q 818 169 788 200 q 849 94 849 139 q 818 19 849 50 q 743 -11 788 -11 q 668 19 699 -11 q 638 94 638 50 z "},"~":{"ha":1106,"x_min":132,"x_max":974,"o":"m 404 515 q 496 492 454 515 q 574 442 538 469 q 644 391 611 414 q 707 368 676 368 q 772 388 749 368 q 806 432 794 408 q 821 496 818 460 l 974 496 q 926 353 961 415 q 891 299 911 325 q 844 254 871 274 q 781 222 817 235 q 701 210 746 210 q 610 233 651 210 q 531 283 568 256 q 461 334 494 311 q 397 357 428 357 q 333 337 356 357 q 299 293 310 317 q 283 229 285 265 l 132 229 q 179 372 144 308 q 214 424 193 399 q 262 470 235 450 q 324 503 289 490 q 404 515 360 515 z "},"†":{"ha":917,"x_min":132,"x_max":785,"o":"m 132 717 l 372 717 l 372 1042 l 546 1042 l 546 717 l 785 717 l 764 558 l 546 558 l 546 11 l 372 -11 l 372 558 l 153 558 l 132 717 z "},"‡":{"ha":917,"x_min":132,"x_max":785,"o":"m 132 771 l 372 771 l 372 1042 l 546 1042 l 546 771 l 785 771 l 764 613 l 546 613 l 546 489 l 785 489 l 764 331 l 546 331 l 546 11 l 372 -11 l 372 331 l 153 331 l 132 489 l 372 489 l 372 613 l 153 613 l 132 771 z "},"−":{"ha":969,"x_min":132,"x_max":838,"o":"m 132 443 l 838 443 l 838 285 l 132 285 l 132 443 z "},"•":{"ha":585,"x_min":132,"x_max":453,"o":"m 132 363 q 144 425 132 396 q 178 476 157 454 q 229 511 200 499 q 292 524 258 524 q 354 511 325 524 q 406 476 383 499 q 440 425 428 454 q 453 363 453 396 q 440 300 453 329 q 406 249 428 271 q 354 215 383 228 q 292 203 325 203 q 229 215 258 203 q 178 249 200 228 q 144 300 157 271 q 132 363 132 329 z "},"™":{"ha":1111,"x_min":49,"x_max":1021,"o":"m 628 718 l 597 467 l 457 478 l 558 944 l 672 944 l 743 713 l 815 944 l 935 944 l 1021 478 l 886 467 l 851 718 l 790 467 l 681 467 l 628 718 m 450 821 l 317 821 l 317 478 l 181 467 l 181 821 l 49 821 l 49 944 l 450 944 l 450 821 z "},"§":{"ha":861,"x_min":132,"x_max":729,"o":"m 438 956 q 539 942 492 956 q 622 911 586 928 q 699 868 664 892 l 600 729 q 542 769 572 751 q 460 786 511 786 q 369 760 396 786 q 343 704 343 733 q 358 662 343 681 q 397 626 372 643 q 454 592 422 608 q 519 556 486 575 q 594 508 557 535 q 662 449 632 482 q 710 372 692 415 q 729 271 729 328 q 703 160 729 206 q 633 86 676 115 q 702 1 675 50 q 729 -119 729 -49 q 703 -228 729 -183 q 636 -303 678 -274 q 542 -345 594 -332 q 436 -358 489 -358 q 315 -338 369 -358 q 219 -293 260 -318 q 132 -228 172 -265 l 253 -108 q 303 -149 275 -132 q 358 -176 326 -164 q 431 -189 390 -189 q 510 -166 479 -189 q 540 -103 540 -143 q 524 -53 540 -75 q 480 -13 507 -32 q 418 23 453 6 q 347 60 383 40 q 276 103 311 79 q 215 160 242 128 q 171 233 188 192 q 154 328 154 274 q 178 426 154 376 q 253 513 203 476 q 182 597 210 549 q 154 718 154 646 q 171 801 154 758 q 222 877 188 843 q 310 933 257 911 q 438 956 364 956 m 339 314 q 369 253 339 279 q 444 201 400 226 q 516 228 488 204 q 544 288 544 251 q 519 347 544 321 q 457 396 493 374 q 367 368 394 394 q 339 314 339 342 z "},"©":{"ha":1169,"x_min":90,"x_max":1079,"o":"m 90 569 q 129 758 90 669 q 235 911 168 846 q 392 1015 301 976 q 585 1053 482 1053 q 778 1015 688 1053 q 935 911 868 976 q 1040 758 1001 846 q 1079 569 1079 669 q 1040 381 1079 469 q 935 228 1001 293 q 778 124 868 163 q 585 86 688 86 q 392 124 482 86 q 235 228 301 163 q 129 381 168 293 q 90 569 90 469 m 758 401 q 681 345 725 365 q 585 325 636 325 q 496 344 538 325 q 424 397 454 364 q 375 475 393 431 q 357 569 357 519 q 375 664 357 619 q 424 742 393 708 q 496 794 454 775 q 585 814 538 814 q 758 738 686 814 l 653 638 q 630 661 643 650 q 588 672 617 672 q 538 649 563 672 q 513 569 513 626 q 536 490 513 513 q 585 467 560 467 q 627 478 614 467 q 650 501 640 489 l 758 401 m 250 569 q 276 437 250 499 q 348 329 303 375 q 454 257 393 283 q 585 231 515 231 q 715 257 654 231 q 822 329 776 283 q 893 437 867 375 q 919 569 919 499 q 893 702 919 640 q 822 810 867 764 q 715 882 776 856 q 585 908 654 908 q 454 882 515 908 q 348 810 393 856 q 276 702 303 764 q 250 569 250 640 z "},"ª":{"ha":639,"x_min":132,"x_max":507,"o":"m 399 560 l 390 625 q 372 599 385 611 q 343 578 360 588 q 310 565 326 569 q 279 560 293 560 q 208 572 236 560 q 163 603 179 583 q 139 646 146 622 q 132 693 132 669 q 154 771 132 742 q 211 817 176 800 q 288 840 246 833 q 372 853 331 847 q 371 883 372 869 q 364 907 369 897 q 347 922 358 917 q 313 928 335 928 q 273 925 290 928 q 244 919 256 922 q 221 913 231 915 l 161 1015 q 219 1033 189 1025 q 276 1047 246 1040 q 339 1053 307 1053 q 436 1028 401 1053 q 486 967 471 1004 q 504 888 501 931 q 507 810 507 846 l 507 567 l 399 560 m 364 697 q 371 735 368 713 q 372 757 372 746 q 292 744 321 757 q 264 700 264 732 q 273 665 264 683 q 304 647 282 647 q 342 660 328 647 q 364 697 357 674 z "},"°":{"ha":654,"x_min":90,"x_max":564,"o":"m 90 826 q 109 915 90 874 q 160 986 128 956 q 235 1035 192 1017 q 326 1053 278 1053 q 418 1035 375 1053 q 494 986 461 1017 q 545 915 526 956 q 564 826 564 874 q 545 738 564 779 q 494 667 526 697 q 418 619 461 636 q 326 601 375 601 q 235 619 278 601 q 160 667 192 636 q 109 738 128 697 q 90 826 90 779 m 238 825 q 263 760 238 788 q 326 733 289 733 q 390 760 364 733 q 417 825 417 788 q 390 890 417 863 q 326 917 364 917 q 263 890 289 917 q 238 825 238 863 z "},"µ":{"ha":819,"x_min":132,"x_max":736,"o":"m 514 -11 q 452 -1 482 -11 q 395 24 422 8 q 345 59 368 40 q 306 97 322 78 l 306 -347 l 132 -358 l 132 706 l 306 706 l 306 213 q 338 190 319 201 q 379 169 357 178 q 424 153 401 160 q 468 147 447 147 q 522 162 503 147 q 549 207 540 176 q 560 285 558 238 q 561 397 561 332 l 561 706 l 736 706 l 736 338 q 728 199 736 263 q 698 88 721 135 q 631 15 675 42 q 514 -11 586 -11 z "},"¶":{"ha":1090,"x_min":132,"x_max":958,"o":"m 697 786 l 610 786 l 610 -347 l 436 -347 l 436 336 q 317 359 372 336 q 220 422 261 382 q 156 517 179 463 q 132 636 132 572 q 156 756 132 700 q 220 854 179 813 q 317 920 261 896 q 436 944 372 944 l 958 944 l 958 786 l 871 786 l 871 -347 l 697 -347 l 697 786 z "},"×":{"ha":886,"x_min":132,"x_max":754,"o":"m 432 244 l 246 56 l 132 167 l 325 351 l 138 542 l 254 658 l 442 472 l 633 668 l 744 554 l 549 365 l 754 161 l 635 42 l 432 244 z "},"#":{"ha":1339,"x_min":132,"x_max":1207,"o":"m 289 739 l 474 739 l 544 944 l 728 944 l 657 739 l 863 739 l 933 944 l 1117 944 l 1046 739 l 1207 739 l 1179 581 l 992 581 l 918 364 l 1078 364 l 1050 206 l 864 206 l 794 0 l 611 0 l 681 206 l 475 206 l 406 0 l 222 0 l 292 206 l 132 206 l 160 364 l 346 364 l 419 581 l 261 581 l 289 739 m 529 364 l 735 364 l 808 581 l 603 581 l 529 364 z "},"Ð":{"ha":1000,"x_min":25,"x_max":924,"o":"m 46 543 l 132 543 l 132 944 l 447 944 q 645 911 557 944 q 795 816 733 878 q 890 666 857 754 q 924 468 924 578 q 890 275 924 361 q 795 128 857 189 q 645 33 733 67 q 447 0 557 0 l 132 0 l 132 410 l 25 410 l 46 543 m 419 174 q 563 189 503 174 q 660 239 622 204 q 717 330 699 274 q 735 468 735 386 q 713 612 735 554 q 649 705 690 669 q 549 756 607 740 q 419 771 490 771 l 321 771 l 321 543 l 476 543 l 456 410 l 321 410 l 321 174 l 419 174 z "},"ð":{"ha":867,"x_min":69,"x_max":797,"o":"m 185 854 l 333 904 q 179 1031 258 975 l 426 1053 q 465 1007 446 1029 q 504 961 485 985 l 678 1019 l 718 928 l 572 879 q 660 758 619 819 q 732 631 701 696 q 780 497 763 567 q 797 353 797 428 q 767 213 797 279 q 688 97 738 147 q 572 18 638 47 q 433 -11 506 -11 q 294 18 360 -11 q 178 97 228 47 q 99 213 128 147 q 69 353 69 279 q 99 492 69 426 q 178 608 128 558 q 294 688 228 658 q 433 717 360 717 q 508 708 472 717 q 411 825 463 769 l 225 763 l 185 854 m 250 353 q 265 272 250 310 q 304 207 279 235 q 363 163 329 179 q 433 147 396 147 q 504 163 471 147 q 563 207 538 179 q 602 272 588 235 q 617 353 617 310 q 602 433 617 396 q 563 499 588 471 q 504 542 538 526 q 433 558 471 558 q 363 542 396 558 q 304 499 329 526 q 265 433 279 471 q 250 353 250 396 z "},"ß":{"ha":851,"x_min":111,"x_max":817,"o":"m 460 826 q 452 859 460 846 q 433 880 444 872 q 406 891 421 888 q 379 894 392 894 q 309 853 333 894 q 285 706 285 813 l 285 0 l 111 0 l 111 706 q 122 842 111 779 q 162 953 132 906 q 244 1026 192 1000 q 382 1053 297 1053 q 457 1044 414 1053 q 539 1013 500 1036 q 605 948 578 989 q 632 843 632 907 q 616 738 632 781 q 580 664 600 696 q 544 606 560 632 q 528 546 528 579 q 563 481 528 511 q 642 421 597 450 q 703 379 672 401 q 760 329 735 357 q 801 266 785 301 q 817 183 817 231 q 798 103 817 139 q 747 42 779 67 q 673 3 715 17 q 585 -11 631 -11 q 492 3 536 -11 q 417 38 449 18 q 347 88 379 60 l 463 200 q 492 171 475 183 q 528 151 507 160 q 576 143 549 143 q 624 158 604 143 q 643 196 643 172 q 617 247 643 228 q 551 292 590 267 q 490 330 524 310 q 425 378 456 350 q 374 447 394 407 q 354 543 354 486 q 371 619 354 586 q 407 683 388 651 q 443 748 426 714 q 460 826 460 782 z "},"˘":{"ha":833,"x_min":271,"x_max":563,"o":"m 346 1011 q 367 945 346 963 q 417 928 388 928 q 467 945 446 928 q 488 1011 488 963 l 558 1031 q 562 1007 561 1022 q 563 983 563 992 q 525 865 563 911 q 417 819 488 819 q 308 865 346 819 q 271 983 271 911 q 272 1007 271 992 q 275 1031 272 1022 l 346 1011 z "},"ˇ":{"ha":908,"x_min":271,"x_max":638,"o":"m 454 794 l 271 983 l 307 1042 l 454 956 l 601 1042 l 638 983 l 454 794 z "},"¸":{"ha":785,"x_min":271,"x_max":514,"o":"m 369 -129 q 342 -96 342 -124 q 350 -72 342 -87 l 396 6 l 483 11 l 429 -81 q 458 -99 443 -87 q 486 -126 474 -110 q 506 -164 499 -142 q 514 -215 514 -186 q 503 -269 514 -243 q 474 -315 493 -296 q 428 -347 454 -335 q 371 -358 401 -358 q 310 -345 335 -358 q 271 -319 285 -332 l 340 -206 q 371 -214 353 -214 q 407 -202 394 -214 q 419 -172 419 -190 q 369 -129 419 -137 z "},"˙":{"ha":728,"x_min":271,"x_max":457,"o":"m 271 886 q 298 952 271 925 q 364 979 325 979 q 430 952 403 979 q 457 886 457 925 q 430 820 457 847 q 364 793 403 793 q 298 820 325 793 q 271 886 271 847 z "},"˝":{"ha":975,"x_min":271,"x_max":704,"o":"m 488 867 q 510 892 501 874 q 525 931 519 910 q 532 976 531 953 q 533 1019 533 1000 q 533 1035 533 1028 q 532 1049 532 1043 l 532 1061 l 704 1031 q 681 961 700 999 q 636 890 663 924 q 581 833 610 857 q 525 806 551 810 l 488 867 m 271 867 q 294 892 285 874 q 308 931 303 910 q 315 976 314 953 q 317 1019 317 1000 q 316 1035 317 1028 q 315 1049 315 1043 l 315 1061 l 488 1031 q 465 961 483 999 q 419 890 446 924 q 364 833 393 857 q 308 806 335 810 l 271 867 z "},"`":{"ha":854,"x_min":271,"x_max":583,"o":"m 551 806 q 403 856 475 818 q 271 956 332 894 l 401 1085 q 444 1000 419 1042 q 501 926 467 964 q 583 858 535 888 l 551 806 z "},"˛":{"ha":799,"x_min":271,"x_max":528,"o":"m 478 0 q 431 -51 451 -25 q 399 -103 413 -75 q 385 -160 385 -131 q 395 -196 385 -178 q 428 -214 406 -214 q 453 -208 442 -214 q 460 -201 458 -206 l 528 -312 q 495 -342 518 -326 q 428 -358 472 -358 q 368 -346 396 -358 q 318 -312 340 -333 q 283 -261 296 -290 q 271 -197 271 -232 q 284 -135 271 -164 q 316 -81 297 -106 q 357 -35 335 -56 q 399 0 379 -15 l 478 0 z "},"˚":{"ha":829,"x_min":271,"x_max":558,"o":"m 271 924 q 282 979 271 953 q 313 1025 293 1006 q 358 1056 332 1044 q 414 1067 385 1067 q 469 1056 443 1067 q 516 1025 496 1044 q 547 979 536 1006 q 558 924 558 953 q 547 868 558 894 q 516 822 536 842 q 469 792 496 803 q 414 781 443 781 q 358 792 385 781 q 313 822 332 803 q 282 868 293 842 q 271 924 271 894 m 367 924 q 381 890 367 904 q 415 875 396 875 q 449 890 435 875 q 464 924 464 904 q 449 958 464 943 q 415 972 435 972 q 381 958 396 972 q 367 924 367 943 z "},"˜":{"ha":1108,"x_min":271,"x_max":838,"o":"m 838 1006 q 830 946 836 981 q 808 878 824 911 q 764 824 793 846 q 688 801 735 801 q 617 818 654 801 q 544 855 581 835 q 476 892 508 875 q 421 908 444 908 q 382 900 397 908 q 358 879 367 892 q 344 853 349 867 q 339 831 340 840 l 271 831 q 278 890 272 856 q 300 958 285 925 q 344 1013 315 990 q 421 1035 374 1035 q 492 1018 454 1035 q 565 981 529 1001 q 633 944 601 961 q 688 928 664 928 q 726 936 711 928 q 751 957 742 944 q 764 983 760 969 q 769 1006 768 996 l 838 1006 z "},"⁰":{"ha":685,"x_min":132,"x_max":553,"o":"m 132 708 q 149 805 132 760 q 193 883 165 850 q 259 936 221 917 q 342 956 297 956 q 424 936 385 956 q 491 883 463 917 q 536 805 519 850 q 553 708 553 760 q 536 613 553 657 q 491 535 519 568 q 424 482 463 501 q 342 463 385 463 q 259 482 297 463 q 193 535 221 501 q 149 613 165 568 q 132 708 132 657 m 257 708 q 282 617 257 654 q 342 579 307 579 q 402 617 376 579 q 428 708 428 654 q 402 801 428 763 q 342 839 376 839 q 282 801 307 839 q 257 708 257 763 z "},"¹":{"ha":485,"x_min":132,"x_max":353,"o":"m 154 944 l 353 944 l 353 474 l 229 474 l 229 828 l 132 828 l 154 944 z "},"²":{"ha":558,"x_min":132,"x_max":426,"o":"m 283 956 q 386 917 346 956 q 426 817 426 879 q 417 769 426 790 q 394 725 407 749 l 324 590 l 426 590 l 415 474 l 132 474 l 283 765 q 294 790 292 782 q 297 810 297 799 q 288 830 297 821 q 263 839 279 839 q 237 835 247 839 q 219 829 226 832 q 204 819 211 824 l 138 911 q 203 944 163 932 q 283 956 244 956 z "},"³":{"ha":565,"x_min":132,"x_max":433,"o":"m 278 956 q 333 944 307 956 q 377 915 358 933 q 407 870 396 896 q 418 815 418 844 q 406 760 418 785 q 374 717 393 736 q 417 669 401 697 q 433 604 433 640 q 422 549 433 575 q 390 504 410 524 q 344 474 371 485 q 286 463 317 463 q 225 473 253 463 q 176 496 197 483 q 132 531 151 511 l 203 600 q 224 589 213 594 q 268 579 246 579 q 301 592 292 579 q 311 625 311 606 q 246 665 311 665 l 214 665 l 226 769 l 258 769 q 286 780 276 769 q 296 803 296 790 q 288 828 296 817 q 261 840 281 840 q 242 837 251 840 q 224 831 232 833 l 204 821 l 146 910 q 185 932 164 922 q 226 948 203 940 q 278 956 250 956 z "},"⁴":{"ha":629,"x_min":132,"x_max":497,"o":"m 332 944 l 447 944 l 447 647 l 497 647 l 486 543 l 447 543 l 447 474 l 332 474 l 332 543 l 132 543 l 132 640 l 332 944 m 332 647 l 332 797 l 236 647 l 332 647 z "},"⁵":{"ha":565,"x_min":132,"x_max":433,"o":"m 310 629 q 306 655 310 643 q 288 674 301 667 q 252 686 275 682 q 192 690 229 690 l 224 944 l 417 944 l 404 832 l 332 832 l 324 760 q 406 705 379 743 q 433 618 433 667 q 422 558 433 586 q 389 508 410 529 q 340 475 368 488 q 278 463 311 463 q 219 473 246 463 q 172 496 192 483 q 132 529 149 511 l 206 603 q 219 590 211 596 q 237 583 226 586 q 263 579 247 579 q 298 593 286 579 q 310 629 310 607 z "},"⁶":{"ha":553,"x_min":132,"x_max":421,"o":"m 132 611 q 139 660 132 638 q 157 703 146 683 l 282 944 l 404 944 l 283 721 q 292 735 286 728 q 310 760 299 749 q 350 748 331 760 q 385 717 369 736 q 411 669 401 697 q 421 611 421 642 q 410 553 421 581 q 379 506 399 526 q 333 474 360 486 q 276 463 307 463 q 219 474 246 463 q 174 506 193 486 q 143 553 154 526 q 132 611 132 581 m 240 611 q 251 573 240 585 q 276 561 261 561 q 302 573 292 561 q 313 611 313 585 q 302 649 313 638 q 276 661 292 661 q 251 649 261 661 q 240 611 240 638 z "},"⁷":{"ha":556,"x_min":132,"x_max":424,"o":"m 267 474 l 147 474 l 267 829 l 132 829 l 143 944 l 424 944 l 267 474 z "},"⁸":{"ha":563,"x_min":132,"x_max":431,"o":"m 431 610 q 419 552 431 579 q 387 506 407 525 q 340 474 367 486 q 281 463 313 463 q 222 474 249 463 q 174 506 194 486 q 143 552 154 525 q 132 610 132 579 q 156 683 132 654 q 210 732 179 713 q 171 774 188 750 q 154 835 154 799 q 190 921 154 886 q 281 956 226 956 q 372 921 336 956 q 407 835 407 886 q 391 774 407 799 q 353 732 375 750 q 407 683 383 713 q 431 610 431 654 m 240 610 q 251 576 240 590 q 281 561 261 561 q 311 576 300 561 q 322 610 322 590 q 311 646 322 631 q 281 672 300 661 q 251 646 263 661 q 240 610 240 631 m 281 864 q 260 855 269 864 q 250 828 250 846 q 259 799 250 813 q 281 776 268 785 q 303 799 293 785 q 313 828 313 813 q 302 855 313 846 q 281 864 292 864 z "},"⁹":{"ha":553,"x_min":132,"x_max":421,"o":"m 421 807 q 414 758 421 781 q 396 715 407 735 l 271 474 l 149 474 l 269 697 q 261 683 265 690 q 253 670 257 676 q 243 658 249 664 q 203 670 222 658 q 167 701 183 682 q 142 748 151 721 q 132 807 132 775 q 143 865 132 838 q 174 912 154 892 q 219 944 193 932 q 276 956 246 956 q 333 944 307 956 q 379 912 360 932 q 410 865 399 892 q 421 807 421 838 m 313 807 q 302 845 313 833 q 276 857 292 857 q 251 845 261 857 q 240 807 240 833 q 251 769 240 781 q 276 757 261 757 q 302 769 292 757 q 313 807 313 781 z "},"⁽":{"ha":483,"x_min":132,"x_max":351,"o":"m 351 413 q 283 424 321 413 q 211 468 244 436 q 155 558 178 500 q 132 708 132 617 q 155 858 132 800 q 211 949 178 917 q 283 992 244 981 q 351 1004 321 1004 l 331 882 q 274 824 288 869 q 261 708 261 778 q 274 593 261 639 q 331 535 288 547 l 351 413 z "},"⁾":{"ha":483,"x_min":132,"x_max":351,"o":"m 153 535 q 209 593 196 547 q 222 708 222 639 q 209 824 222 778 q 153 882 196 869 l 132 1004 q 201 992 163 1004 q 272 949 239 981 q 328 858 306 917 q 351 708 351 800 q 328 558 351 617 q 272 468 306 500 q 201 424 239 436 q 132 413 163 413 l 153 535 z "},"₀":{"ha":685,"x_min":132,"x_max":553,"o":"m 132 235 q 149 331 132 286 q 193 410 165 376 q 259 463 221 443 q 342 482 297 482 q 424 463 385 482 q 491 410 463 443 q 536 331 519 376 q 553 235 553 286 q 536 139 553 183 q 491 61 519 94 q 424 8 463 28 q 342 -11 385 -11 q 259 8 297 -11 q 193 61 221 28 q 149 139 165 94 q 132 235 132 183 m 257 235 q 282 143 257 181 q 342 106 307 106 q 402 143 376 106 q 428 235 428 181 q 402 327 428 289 q 342 365 376 365 q 282 327 307 365 q 257 235 257 289 z "},"₁":{"ha":485,"x_min":132,"x_max":353,"o":"m 154 471 l 353 471 l 353 0 l 229 0 l 229 354 l 132 354 l 154 471 z "},"₂":{"ha":558,"x_min":132,"x_max":426,"o":"m 283 482 q 386 444 346 482 q 426 343 426 406 q 417 296 426 317 q 394 251 407 275 l 324 117 l 426 117 l 415 0 l 132 0 l 283 292 q 294 317 292 308 q 297 336 297 325 q 288 356 297 347 q 263 365 279 365 q 237 362 247 365 q 219 356 226 358 q 204 346 211 350 l 138 438 q 203 470 163 458 q 283 482 244 482 z "},"₃":{"ha":565,"x_min":132,"x_max":433,"o":"m 278 482 q 333 471 307 482 q 377 441 358 460 q 407 397 396 422 q 418 342 418 371 q 406 287 418 311 q 374 243 393 263 q 417 195 401 224 q 433 131 433 167 q 422 76 433 101 q 390 31 410 50 q 344 0 371 11 q 286 -11 317 -11 q 225 -1 253 -11 q 176 22 197 10 q 132 57 151 38 l 203 126 q 224 115 213 121 q 268 106 246 106 q 301 119 292 106 q 311 151 311 132 q 246 192 311 192 l 214 192 l 226 296 l 258 296 q 286 306 276 296 q 296 329 296 317 q 288 355 296 343 q 261 367 281 367 q 242 363 251 367 q 224 357 232 360 l 204 347 l 146 436 q 185 458 164 449 q 226 474 203 467 q 278 482 250 482 z "},"₄":{"ha":629,"x_min":132,"x_max":497,"o":"m 332 471 l 447 471 l 447 174 l 497 174 l 486 69 l 447 69 l 447 0 l 332 0 l 332 69 l 132 69 l 132 167 l 332 471 m 332 174 l 332 324 l 236 174 l 332 174 z "},"₅":{"ha":565,"x_min":132,"x_max":433,"o":"m 310 156 q 306 181 310 169 q 288 201 301 193 q 252 213 275 208 q 192 217 229 217 l 224 471 l 417 471 l 404 358 l 332 358 l 324 286 q 406 231 379 269 q 433 144 433 193 q 422 84 433 113 q 389 35 410 56 q 340 1 368 14 q 278 -11 311 -11 q 219 -1 246 -11 q 172 22 192 10 q 132 56 149 38 l 206 129 q 219 117 211 122 q 237 109 226 113 q 263 106 247 106 q 298 119 286 106 q 310 156 310 133 z "},"₆":{"ha":553,"x_min":132,"x_max":421,"o":"m 132 138 q 139 187 132 164 q 157 229 146 210 l 282 471 l 404 471 l 283 247 q 292 261 286 254 q 310 286 299 275 q 350 274 331 286 q 385 243 369 263 q 411 196 401 224 q 421 138 421 168 q 410 80 421 107 q 379 33 399 53 q 333 1 360 13 q 276 -11 307 -11 q 219 1 246 -11 q 174 33 193 13 q 143 80 154 53 q 132 138 132 107 m 240 138 q 251 99 240 111 q 276 88 261 88 q 302 99 292 88 q 313 138 313 111 q 302 176 313 164 q 276 188 292 188 q 251 176 261 188 q 240 138 240 164 z "},"₇":{"ha":556,"x_min":132,"x_max":424,"o":"m 267 0 l 147 0 l 267 356 l 132 356 l 143 471 l 424 471 l 267 0 z "},"₈":{"ha":563,"x_min":132,"x_max":431,"o":"m 431 136 q 419 78 431 106 q 387 32 407 51 q 340 1 367 13 q 281 -11 313 -11 q 222 1 249 -11 q 174 32 194 13 q 143 78 154 51 q 132 136 132 106 q 156 210 132 181 q 210 258 179 239 q 171 301 188 276 q 154 361 154 325 q 190 447 154 413 q 281 482 226 482 q 372 447 336 482 q 407 361 407 413 q 391 301 407 325 q 353 258 375 276 q 407 210 383 239 q 431 136 431 181 m 240 136 q 251 102 240 117 q 281 88 261 88 q 311 102 300 88 q 322 136 322 117 q 311 172 322 157 q 281 199 300 188 q 251 172 263 188 q 240 136 240 157 m 281 390 q 260 381 269 390 q 250 354 250 372 q 259 325 250 339 q 281 303 268 311 q 303 325 293 311 q 313 354 313 339 q 302 381 313 372 q 281 390 292 390 z "},"₉":{"ha":553,"x_min":132,"x_max":421,"o":"m 421 333 q 414 284 421 307 q 396 242 407 261 l 271 0 l 149 0 l 269 224 q 261 210 265 217 q 253 197 257 203 q 243 185 249 190 q 203 197 222 185 q 167 228 183 208 q 142 274 151 247 q 132 333 132 301 q 143 391 132 364 q 174 438 154 418 q 219 470 193 458 q 276 482 246 482 q 333 470 307 482 q 379 438 360 458 q 410 391 399 418 q 421 333 421 364 m 313 333 q 302 372 313 360 q 276 383 292 383 q 251 372 261 383 q 240 333 240 360 q 251 295 240 307 q 276 283 261 283 q 302 295 292 283 q 313 333 313 307 z "},"₍":{"ha":483,"x_min":132,"x_max":351,"o":"m 351 -60 q 283 -48 321 -60 q 211 -4 244 -36 q 155 86 178 28 q 132 236 132 144 q 155 386 132 328 q 211 476 178 444 q 283 520 244 508 q 351 532 321 532 l 331 410 q 274 351 288 397 q 261 236 261 306 q 274 121 261 167 q 331 63 288 75 l 351 -60 z "},"₎":{"ha":483,"x_min":132,"x_max":351,"o":"m 153 63 q 209 121 196 75 q 222 236 222 167 q 209 351 222 306 q 153 410 196 397 l 132 532 q 201 520 163 532 q 272 476 239 508 q 328 386 306 444 q 351 236 351 328 q 328 86 351 144 q 272 -4 306 28 q 201 -48 239 -36 q 132 -60 163 -60 l 153 63 z "},"≠":{"ha":969,"x_min":132,"x_max":838,"o":"m 132 593 l 454 593 l 493 706 l 674 706 l 635 593 l 838 593 l 838 435 l 581 435 l 533 293 l 838 293 l 838 135 l 479 135 l 433 0 l 253 0 l 299 135 l 132 135 l 132 293 l 353 293 l 400 435 l 132 435 l 132 593 z "},"»":{"ha":1261,"x_min":132,"x_max":1129,"o":"m 1129 249 l 638 0 l 638 181 l 981 354 l 638 525 l 638 706 l 1129 460 l 1129 249 m 624 249 l 132 0 l 132 181 l 475 354 l 132 525 l 132 706 l 624 460 l 624 249 z "},"‹":{"ha":833,"x_min":132,"x_max":701,"o":"m 132 460 l 701 706 l 701 529 l 308 361 l 701 194 l 701 0 l 132 268 l 132 460 z "},"›":{"ha":833,"x_min":132,"x_max":701,"o":"m 701 268 l 132 0 l 132 194 l 525 361 l 132 529 l 132 706 l 701 460 l 701 268 z "},"º":{"ha":850,"x_min":132,"x_max":718,"o":"m 132 806 q 151 902 132 857 q 204 981 171 947 q 283 1033 238 1014 q 379 1053 328 1053 q 455 1038 419 1053 q 492 1008 490 1024 l 583 1053 l 718 1031 l 604 911 q 621 863 614 893 q 628 806 628 832 q 608 710 628 754 q 555 632 589 665 q 476 579 521 599 q 379 560 431 560 q 283 579 328 560 q 204 632 238 599 q 151 710 171 665 q 132 806 132 754 m 261 804 q 294 714 261 753 q 379 675 326 675 q 465 714 432 675 q 499 804 499 753 q 465 895 499 856 q 379 935 432 935 q 294 895 326 935 q 261 804 261 856 z "},"®":{"ha":1169,"x_min":90,"x_max":1079,"o":"m 90 569 q 129 758 90 669 q 235 911 168 846 q 392 1015 301 976 q 585 1053 482 1053 q 778 1015 688 1053 q 935 911 868 976 q 1040 758 1001 846 q 1079 569 1079 669 q 1040 381 1079 469 q 935 228 1001 293 q 778 124 868 163 q 585 86 688 86 q 392 124 482 86 q 235 228 301 163 q 129 381 168 293 q 90 569 90 469 m 250 569 q 276 437 250 499 q 348 329 303 375 q 454 257 393 283 q 585 231 515 231 q 715 257 654 231 q 822 329 776 283 q 893 437 867 375 q 919 569 919 499 q 893 702 919 640 q 822 810 867 764 q 715 882 776 856 q 585 908 654 908 q 454 882 515 908 q 348 810 393 856 q 276 702 303 764 q 250 569 250 640 m 576 494 l 535 494 l 535 336 l 399 336 l 399 803 l 599 803 q 663 799 628 803 q 729 778 699 794 q 780 732 760 763 q 800 649 800 701 q 776 559 800 590 q 717 513 751 528 l 804 347 l 664 325 l 576 494 m 535 678 l 535 611 l 599 611 q 649 619 633 611 q 664 647 664 626 q 650 672 664 667 q 599 678 636 678 l 535 678 z "},"‰":{"ha":1728,"x_min":69,"x_max":1658,"o":"m 663 944 l 842 944 l 574 0 l 393 0 l 663 944 m 199 708 q 224 617 199 654 q 286 579 250 579 q 349 617 322 579 q 375 708 375 654 q 349 801 375 763 q 286 839 322 839 q 224 801 250 839 q 199 708 199 763 m 69 708 q 86 805 69 760 q 132 883 103 850 q 201 936 161 917 q 286 956 240 956 q 372 936 332 956 q 440 883 411 917 q 487 805 469 850 q 504 708 504 760 q 487 613 504 657 q 440 535 469 568 q 372 482 411 501 q 286 463 332 463 q 201 482 240 463 q 132 535 161 501 q 86 613 103 568 q 69 708 69 657 m 860 235 q 885 143 860 181 q 947 106 911 106 q 1010 143 983 106 q 1036 235 1036 181 q 1010 327 1036 289 q 947 365 983 365 q 885 327 911 365 q 860 235 860 289 m 731 235 q 747 331 731 286 q 793 410 764 376 q 862 463 822 443 q 947 482 901 482 q 1033 463 993 482 q 1101 410 1072 443 q 1148 331 1131 376 q 1165 235 1165 286 q 1148 139 1165 183 q 1101 61 1131 94 q 1033 8 1072 28 q 947 -11 993 -11 q 862 8 901 -11 q 793 61 822 28 q 747 139 764 94 q 731 235 731 183 m 1353 235 q 1378 143 1353 181 q 1440 106 1404 106 q 1503 143 1476 106 q 1529 235 1529 181 q 1503 327 1529 289 q 1440 365 1476 365 q 1378 327 1404 365 q 1353 235 1353 289 m 1224 235 q 1240 331 1224 286 q 1286 410 1257 376 q 1355 463 1315 443 q 1440 482 1394 482 q 1526 463 1486 482 q 1594 410 1565 443 q 1641 331 1624 376 q 1658 235 1658 286 q 1641 139 1658 183 q 1594 61 1624 94 q 1526 8 1565 28 q 1440 -11 1486 -11 q 1355 8 1394 -11 q 1286 61 1315 28 q 1240 139 1257 94 q 1224 235 1224 183 z "},"Þ":{"ha":799,"x_min":132,"x_max":750,"o":"m 132 944 l 321 944 l 321 814 l 390 814 q 547 790 479 814 q 660 726 615 767 q 727 629 704 685 q 750 510 750 574 q 728 390 750 446 q 662 294 706 335 q 553 229 618 253 q 404 206 489 206 l 321 206 l 321 0 l 132 0 l 132 944 m 390 368 q 521 399 481 368 q 561 504 561 429 q 517 610 561 579 q 390 640 474 640 l 321 640 l 321 368 l 390 368 z "},"þ":{"ha":981,"x_min":132,"x_max":849,"o":"m 849 347 q 818 203 849 269 q 739 90 788 138 q 628 15 690 42 q 504 -11 567 -11 q 465 -9 488 -11 q 417 0 443 -7 q 363 22 392 7 q 306 63 335 38 l 306 -358 l 132 -347 l 132 1042 l 306 1053 l 306 597 q 358 661 331 638 q 413 697 386 685 q 463 713 439 710 q 504 717 488 717 q 638 687 575 717 q 747 606 700 657 q 821 488 793 554 q 849 347 849 421 m 675 353 q 660 433 675 396 q 619 499 646 471 q 558 542 593 526 q 483 558 524 558 q 408 542 443 558 q 347 499 372 526 q 306 433 321 471 q 290 353 290 396 q 306 272 290 310 q 347 207 321 235 q 408 163 372 179 q 483 147 443 147 q 558 163 524 147 q 619 207 593 179 q 660 272 646 235 q 675 353 675 310 z "},"ı":{"ha":424,"x_min":132,"x_max":306,"o":"m 132 706 l 306 706 l 306 0 l 132 0 l 132 706 z "},"´":{"ha":854,"x_min":271,"x_max":583,"o":"m 271 858 q 353 926 319 888 q 410 1000 388 964 q 453 1085 435 1042 l 583 956 q 451 856 522 894 q 303 806 379 818 l 271 858 z "},"ˆ":{"ha":908,"x_min":271,"x_max":638,"o":"m 454 1053 l 638 864 l 601 806 l 454 890 l 307 806 l 271 864 l 454 1053 z "},"¨":{"ha":997,"x_min":271,"x_max":726,"o":"m 271 886 q 298 952 271 925 q 364 979 325 979 q 430 952 403 979 q 457 886 457 925 q 430 820 457 847 q 364 793 403 793 q 298 820 325 793 q 271 886 271 847 m 540 886 q 567 952 540 925 q 633 979 594 979 q 699 952 672 979 q 726 886 726 925 q 699 820 726 847 q 633 793 672 793 q 567 820 594 793 q 540 886 540 847 z "},"Æ":{"ha":1144,"x_min":21,"x_max":1082,"o":"m 485 168 l 289 168 l 214 -11 l 21 11 l 424 944 l 1060 944 l 1060 771 l 674 771 l 674 565 l 994 565 l 994 392 l 674 392 l 674 174 l 1082 174 l 1060 0 l 485 0 l 485 168 m 485 342 l 485 628 l 363 342 l 485 342 z "},"ﬁ":{"ha":960,"x_min":35,"x_max":863,"o":"m 668 547 l 318 547 l 318 0 l 144 0 l 144 547 l 35 547 l 35 706 l 144 706 q 169 842 144 779 q 243 953 194 906 q 364 1026 292 1000 q 532 1053 436 1053 q 660 1045 594 1053 q 775 1015 725 1038 q 837 973 811 1000 q 863 901 863 946 q 831 829 863 857 q 754 801 799 801 q 711 809 731 801 q 678 832 692 817 q 655 858 667 844 q 627 883 643 872 q 587 902 611 894 q 526 910 563 910 q 447 899 485 910 q 380 864 408 888 q 335 801 351 840 q 318 706 318 761 l 842 706 l 842 0 l 668 0 l 668 547 z "},"ﬀ":{"ha":1072,"x_min":35,"x_max":1072,"o":"m 681 706 q 690 842 681 779 q 726 953 699 906 q 804 1026 753 1000 q 940 1053 856 1053 q 997 1048 972 1053 q 1038 1036 1021 1043 q 1072 1019 1057 1029 l 996 892 q 981 900 989 896 q 963 906 974 903 q 938 910 951 910 q 874 864 894 910 q 854 706 854 818 l 1007 706 l 985 547 l 854 547 l 854 0 l 681 0 l 681 547 l 318 547 l 318 0 l 144 0 l 144 547 l 35 547 l 35 706 l 144 706 q 160 842 144 779 q 210 953 175 906 q 303 1026 246 1000 q 446 1053 361 1053 q 505 1048 478 1053 q 551 1036 532 1043 q 594 1019 575 1029 l 518 892 q 499 900 510 896 q 476 906 489 903 q 443 910 463 910 q 400 899 422 910 q 360 864 378 888 q 330 801 342 840 q 318 706 318 761 l 681 706 z "},"ﬃ":{"ha":1496,"x_min":35,"x_max":1400,"o":"m 1206 547 l 856 547 l 856 0 l 682 0 l 682 547 l 318 547 l 318 0 l 144 0 l 144 547 l 35 547 l 35 706 l 144 706 q 160 842 144 779 q 210 953 175 906 q 303 1026 246 1000 q 446 1053 361 1053 q 505 1048 478 1053 q 551 1036 532 1043 q 594 1019 575 1029 l 518 892 q 499 900 510 896 q 476 906 489 903 q 443 910 463 910 q 400 899 422 910 q 360 864 378 888 q 330 801 342 840 q 318 706 318 761 l 682 706 q 707 842 682 779 q 781 953 732 906 q 901 1026 829 1000 q 1069 1053 974 1053 q 1197 1045 1132 1053 q 1313 1015 1263 1038 q 1374 973 1349 1000 q 1400 901 1400 946 q 1368 829 1400 857 q 1292 801 1336 801 q 1249 809 1268 801 q 1215 832 1229 817 q 1192 858 1204 844 q 1165 883 1181 872 q 1124 902 1149 894 q 1064 910 1100 910 q 984 899 1022 910 q 917 864 946 888 q 872 801 889 840 q 856 706 856 761 l 1379 706 l 1379 0 l 1206 0 l 1206 547 z "},"ﬂ":{"ha":946,"x_min":35,"x_max":842,"o":"m 318 547 l 318 0 l 144 0 l 144 547 l 35 547 l 35 706 l 471 706 l 449 547 l 318 547 m 144 706 q 165 842 144 779 q 228 953 186 906 q 333 1026 269 1000 q 481 1053 396 1053 q 561 1042 526 1053 q 619 1013 596 1031 q 656 974 643 994 q 668 933 668 953 l 668 751 q 638 831 660 794 q 583 885 618 860 q 485 910 547 910 q 423 899 453 910 q 369 864 393 888 q 332 801 346 840 q 318 706 318 761 l 144 706 m 668 1042 l 842 1053 l 842 0 l 668 0 l 668 1042 z "},"Œ":{"ha":1314,"x_min":76,"x_max":1251,"o":"m 554 956 q 654 944 603 956 l 1229 944 l 1229 771 l 843 771 l 843 565 l 1164 565 l 1164 392 l 843 392 l 843 174 l 1251 174 l 1229 0 l 654 0 q 554 -11 603 -11 q 368 27 456 -11 q 216 131 281 65 q 114 284 151 196 q 76 472 76 372 q 114 660 76 572 q 216 814 151 749 q 368 917 281 879 q 554 956 456 956 m 554 163 q 654 181 608 163 l 654 763 q 554 782 604 782 q 442 758 494 782 q 350 691 389 733 q 288 592 311 649 q 265 472 265 536 q 288 352 265 408 q 350 253 311 296 q 442 187 389 211 q 554 163 494 163 z "},"ﬆ":{"ha":1142,"x_min":69,"x_max":1079,"o":"m 926 547 l 926 321 q 930 215 926 254 q 944 154 933 175 q 977 128 956 133 q 1035 122 999 122 l 1035 8 q 1011 -1 1024 3 q 985 -8 1000 -6 q 956 -11 971 -11 q 894 -2 929 -11 q 828 33 860 7 q 775 106 797 60 q 753 226 753 151 l 753 547 l 643 547 l 643 706 l 753 706 q 708 849 753 803 q 588 896 663 896 q 495 862 531 896 q 460 769 460 828 q 481 688 460 722 q 519 640 501 653 l 400 522 q 378 540 392 532 q 349 553 367 547 q 303 558 331 558 q 265 546 279 558 q 250 514 250 533 q 284 468 250 489 q 364 421 318 447 q 426 383 394 404 q 482 333 457 361 q 523 267 507 304 q 539 183 539 231 q 520 103 539 139 q 469 42 501 67 q 395 3 438 17 q 307 -11 353 -11 q 215 3 258 -11 q 139 38 171 18 q 69 88 101 60 l 185 200 q 217 174 199 185 q 254 155 232 163 q 304 147 276 147 q 349 160 332 147 q 365 196 365 172 q 339 247 365 228 q 274 292 313 267 q 212 330 246 310 q 147 378 178 350 q 97 447 117 407 q 76 543 76 486 q 91 601 76 571 q 135 658 106 632 q 207 700 164 683 q 307 717 250 717 q 323 716 315 717 q 339 715 331 715 q 324 758 329 735 q 318 813 318 781 q 337 901 318 858 q 392 978 356 944 q 480 1032 428 1011 q 597 1053 532 1053 q 715 1033 657 1053 q 821 972 774 1014 q 897 865 868 931 q 926 706 926 799 l 1079 706 l 1057 547 l 926 547 z "},"ﬄ":{"ha":1482,"x_min":35,"x_max":1378,"o":"m 1007 706 l 985 547 l 854 547 l 854 0 l 681 0 l 681 547 l 318 547 l 318 0 l 144 0 l 144 547 l 35 547 l 35 706 l 144 706 q 160 842 144 779 q 210 953 175 906 q 303 1026 246 1000 q 446 1053 361 1053 q 505 1048 478 1053 q 551 1036 532 1043 q 594 1019 575 1029 l 518 892 q 499 900 510 896 q 476 906 489 903 q 443 910 463 910 q 400 899 422 910 q 360 864 378 888 q 330 801 342 840 q 318 706 318 761 l 681 706 q 701 842 681 779 q 764 953 722 906 q 869 1026 806 1000 q 1017 1053 932 1053 q 1097 1042 1063 1053 q 1156 1013 1132 1031 q 1192 974 1179 994 q 1204 933 1204 953 l 1204 1042 l 1378 1053 l 1378 0 l 1204 0 l 1204 751 q 1174 831 1196 794 q 1119 885 1154 860 q 1021 910 1083 910 q 959 899 989 910 q 906 864 929 888 q 868 801 882 840 q 854 706 854 761 l 1007 706 z "},"ⁿ":{"ha":782,"x_min":97,"x_max":511,"o":"m 351 1053 q 442 1033 410 1053 q 490 979 475 1013 q 508 903 506 946 q 511 817 511 861 l 511 567 l 375 567 l 375 792 q 374 855 375 826 q 369 904 374 883 q 353 936 364 925 q 322 947 342 947 q 266 928 292 947 q 233 894 240 908 l 233 567 l 97 567 l 97 1046 l 208 1053 l 218 992 q 276 1035 242 1018 q 351 1053 311 1053 z "},"Ŋ":{"ha":1051,"x_min":146,"x_max":906,"o":"m 146 933 l 319 956 l 717 369 l 717 944 l 906 944 l 906 32 q 897 -117 906 -46 q 859 -241 888 -187 q 777 -326 831 -294 q 633 -358 724 -358 q 495 -329 558 -358 q 392 -251 432 -300 l 532 -108 q 565 -165 547 -146 q 619 -185 583 -185 q 671 -172 651 -185 q 700 -132 690 -158 q 713 -65 710 -106 q 717 32 717 -24 l 319 624 l 319 0 l 146 0 l 146 933 z "},"ŋ":{"ha":821,"x_min":104,"x_max":738,"o":"m 531 717 q 650 687 608 717 q 711 608 692 657 q 734 496 731 558 q 738 369 738 433 l 738 0 q 726 -128 738 -64 q 684 -243 715 -192 q 595 -326 653 -294 q 444 -358 538 -358 q 409 -357 425 -358 q 382 -353 393 -356 q 358 -347 368 -350 l 424 -199 q 431 -200 426 -200 l 444 -200 q 496 -192 474 -200 q 533 -162 518 -183 q 556 -104 549 -140 q 564 -11 564 -68 l 564 308 q 563 421 564 374 q 552 499 561 468 q 524 544 543 529 q 471 558 506 558 q 361 542 413 558 q 278 493 310 525 l 278 0 l 104 0 l 104 706 l 269 717 l 278 608 q 390 683 324 650 q 531 717 457 717 z "},"Ĳ":{"ha":1019,"x_min":160,"x_max":888,"o":"m 349 944 l 349 258 l 160 236 l 160 944 l 349 944 m 888 944 l 888 379 q 869 231 888 301 q 808 106 850 160 q 701 21 767 53 q 539 -11 635 -11 q 378 18 447 -11 q 269 96 310 47 l 410 239 q 431 206 417 219 q 464 182 446 192 q 502 167 482 172 q 540 163 522 163 q 656 227 614 163 q 699 435 699 292 l 699 771 l 544 771 l 568 944 l 888 944 z "},"ĳ":{"ha":792,"x_min":111,"x_max":693,"o":"m 478 908 q 509 985 478 953 q 585 1017 540 1017 q 661 985 629 1017 q 693 908 693 953 q 661 833 693 864 q 585 801 629 801 q 509 833 540 801 q 478 908 478 864 m 132 706 l 306 706 l 306 0 l 132 0 l 132 706 m 111 908 q 142 985 111 953 q 218 1017 174 1017 q 294 985 263 1017 q 326 908 326 953 q 294 833 326 864 q 218 801 263 801 q 142 833 174 801 q 111 908 111 864 m 306 -147 q 315 -163 310 -154 q 331 -181 321 -172 q 359 -194 342 -189 q 403 -200 376 -200 q 448 -192 429 -200 q 478 -162 467 -183 q 494 -104 489 -140 q 500 -11 500 -68 l 500 706 l 674 706 l 674 1 q 667 -144 674 -78 q 632 -258 660 -210 q 550 -332 604 -306 q 403 -358 496 -358 q 263 -333 313 -358 q 183 -265 213 -308 l 306 -147 z "},"℮":{"ha":992,"x_min":132,"x_max":860,"o":"m 824 194 q 692 46 779 103 q 496 -11 606 -11 q 354 17 421 -11 q 238 95 288 46 q 160 211 189 144 q 132 353 132 278 q 160 494 132 428 q 238 610 189 561 q 354 688 288 660 q 496 717 421 717 q 638 688 571 717 q 753 610 704 660 q 831 494 803 561 q 860 353 860 428 q 860 334 860 344 q 858 315 860 324 l 321 315 l 321 174 q 397 114 353 136 q 494 92 442 92 q 616 120 569 92 q 694 194 663 149 l 824 194 m 494 615 q 397 592 442 615 q 321 531 353 569 l 321 408 l 668 408 l 668 531 q 590 592 635 569 q 494 615 544 615 z "},"∂":{"ha":936,"x_min":132,"x_max":804,"o":"m 283 1031 q 349 1047 315 1042 q 418 1053 382 1053 q 568 1011 497 1053 q 691 897 639 969 q 774 728 743 825 q 804 521 804 631 q 778 314 804 411 q 706 144 751 217 q 599 31 660 72 q 468 -11 538 -11 q 333 18 394 -11 q 226 97 271 47 q 157 213 182 147 q 132 353 132 279 q 157 492 132 426 q 226 608 182 558 q 333 688 271 658 q 468 717 394 717 q 548 702 511 717 q 614 663 585 688 q 582 757 601 714 q 537 831 563 800 q 481 878 511 861 q 418 894 450 894 q 390 892 400 894 q 369 888 379 890 l 283 1031 m 468 558 q 344 501 383 558 q 306 353 306 444 q 344 204 306 261 q 468 147 383 147 q 583 236 540 147 q 629 493 626 325 q 468 558 576 558 z "},"­":{"ha":832,"x_min":132,"x_max":700,"o":"m 132 442 l 700 442 l 700 283 l 132 283 l 132 442 z "},"½":{"ha":1219,"x_min":132,"x_max":1088,"o":"m 628 944 l 807 944 l 539 0 l 358 0 l 628 944 m 944 482 q 1047 444 1007 482 q 1088 343 1088 406 q 1078 296 1088 317 q 1056 251 1068 275 l 985 117 l 1088 117 l 1076 0 l 793 0 l 944 292 q 956 317 953 308 q 958 336 958 325 q 949 356 958 347 q 924 365 940 365 q 898 362 908 365 q 881 356 888 358 q 865 346 872 350 l 799 438 q 865 470 824 458 q 944 482 906 482 m 154 944 l 353 944 l 353 474 l 229 474 l 229 828 l 132 828 l 154 944 z "},"⅓":{"ha":1244,"x_min":132,"x_max":1113,"o":"m 628 944 l 807 944 l 539 0 l 358 0 l 628 944 m 957 482 q 1012 471 986 482 q 1056 441 1038 460 q 1086 397 1075 422 q 1097 342 1097 371 q 1085 287 1097 311 q 1053 243 1072 263 q 1097 195 1081 224 q 1113 131 1113 167 q 1101 76 1113 101 q 1069 31 1089 50 q 1023 0 1050 11 q 965 -11 996 -11 q 904 -1 932 -11 q 856 22 876 10 q 811 57 831 38 l 882 126 q 903 115 892 121 q 947 106 925 106 q 981 119 971 106 q 990 151 990 132 q 925 192 990 192 l 893 192 l 906 296 l 938 296 q 965 306 956 296 q 975 329 975 317 q 967 355 975 343 q 940 367 960 367 q 921 363 931 367 q 903 357 911 360 l 883 347 l 825 436 q 864 458 843 449 q 906 474 882 467 q 957 482 929 482 m 154 944 l 353 944 l 353 474 l 229 474 l 229 828 l 132 828 l 154 944 z "},"¼":{"ha":1268,"x_min":132,"x_max":1136,"o":"m 628 944 l 807 944 l 539 0 l 358 0 l 628 944 m 971 471 l 1086 471 l 1086 174 l 1136 174 l 1125 69 l 1086 69 l 1086 0 l 971 0 l 971 69 l 771 69 l 771 167 l 971 471 m 154 944 l 353 944 l 353 474 l 229 474 l 229 828 l 132 828 l 154 944 m 971 174 l 971 324 l 875 174 l 971 174 z "},"⅛":{"ha":1225,"x_min":132,"x_max":1093,"o":"m 628 944 l 807 944 l 539 0 l 358 0 l 628 944 m 1093 136 q 1081 78 1093 106 q 1049 32 1069 51 q 1002 1 1029 13 q 943 -11 975 -11 q 884 1 911 -11 q 837 32 857 13 q 806 78 817 51 q 794 136 794 106 q 818 210 794 181 q 872 258 842 239 q 833 301 850 276 q 817 361 817 325 q 853 447 817 413 q 943 482 889 482 q 1034 447 999 482 q 1069 361 1069 413 q 1053 301 1069 325 q 1015 258 1038 276 q 1069 210 1046 239 q 1093 136 1093 181 m 154 944 l 353 944 l 353 474 l 229 474 l 229 828 l 132 828 l 154 944 m 903 136 q 913 102 903 117 q 943 88 924 88 q 974 102 963 88 q 985 136 985 117 q 974 172 985 157 q 943 199 963 188 q 914 172 925 188 q 903 136 903 157 m 943 390 q 922 381 932 390 q 913 354 913 372 q 922 325 913 339 q 943 303 931 311 q 965 325 956 311 q 975 354 975 339 q 965 381 975 372 q 943 390 954 390 z "},"⅔":{"ha":1289,"x_min":132,"x_max":1157,"o":"m 689 944 l 868 944 l 600 0 l 419 0 l 689 944 m 283 956 q 386 917 346 956 q 426 817 426 879 q 417 769 426 790 q 394 725 407 749 l 324 590 l 426 590 l 415 474 l 132 474 l 283 765 q 294 790 292 782 q 297 810 297 799 q 288 830 297 821 q 263 839 279 839 q 237 835 247 839 q 219 829 226 832 q 204 819 211 824 l 138 911 q 203 944 163 932 q 283 956 244 956 m 1001 482 q 1056 471 1031 482 q 1101 441 1082 460 q 1131 397 1119 422 q 1142 342 1142 371 q 1129 287 1142 311 q 1097 243 1117 263 q 1141 195 1125 224 q 1157 131 1157 167 q 1145 76 1157 101 q 1114 31 1133 50 q 1067 0 1094 11 q 1010 -11 1040 -11 q 949 -1 976 -11 q 900 22 921 10 q 856 57 875 38 l 926 126 q 947 115 936 121 q 992 106 969 106 q 1025 119 1015 106 q 1035 151 1035 132 q 969 192 1035 192 l 938 192 l 950 296 l 982 296 q 1010 306 1000 296 q 1019 329 1019 317 q 1012 355 1019 343 q 985 367 1004 367 q 965 363 975 367 q 947 357 956 360 l 928 347 l 869 436 q 908 458 888 449 q 950 474 926 467 q 1001 482 974 482 z "},"¾":{"ha":1367,"x_min":132,"x_max":1235,"o":"m 725 944 l 904 944 l 636 0 l 456 0 l 725 944 m 278 956 q 333 944 307 956 q 377 915 358 933 q 407 870 396 896 q 418 815 418 844 q 406 760 418 785 q 374 717 393 736 q 417 669 401 697 q 433 604 433 640 q 422 549 433 575 q 390 504 410 524 q 344 474 371 485 q 286 463 317 463 q 225 473 253 463 q 176 496 197 483 q 132 531 151 511 l 203 600 q 224 589 213 594 q 268 579 246 579 q 301 592 292 579 q 311 625 311 606 q 246 665 311 665 l 214 665 l 226 769 l 258 769 q 286 780 276 769 q 296 803 296 790 q 288 828 296 817 q 261 840 281 840 q 242 837 251 840 q 224 831 232 833 l 204 821 l 146 910 q 185 932 164 922 q 226 948 203 940 q 278 956 250 956 m 1069 471 l 1185 471 l 1185 174 l 1235 174 l 1224 69 l 1185 69 l 1185 0 l 1069 0 l 1069 69 l 869 69 l 869 167 l 1069 471 m 1069 174 l 1069 324 l 974 174 l 1069 174 z "},"⅜":{"ha":1350,"x_min":132,"x_max":1218,"o":"m 725 944 l 904 944 l 636 0 l 456 0 l 725 944 m 278 956 q 333 944 307 956 q 377 915 358 933 q 407 870 396 896 q 418 815 418 844 q 406 760 418 785 q 374 717 393 736 q 417 669 401 697 q 433 604 433 640 q 422 549 433 575 q 390 504 410 524 q 344 474 371 485 q 286 463 317 463 q 225 473 253 463 q 176 496 197 483 q 132 531 151 511 l 203 600 q 224 589 213 594 q 268 579 246 579 q 301 592 292 579 q 311 625 311 606 q 246 665 311 665 l 214 665 l 226 769 l 258 769 q 286 780 276 769 q 296 803 296 790 q 288 828 296 817 q 261 840 281 840 q 242 837 251 840 q 224 831 232 833 l 204 821 l 146 910 q 185 932 164 922 q 226 948 203 940 q 278 956 250 956 m 1218 136 q 1206 78 1218 106 q 1174 32 1194 51 q 1127 1 1154 13 q 1068 -11 1100 -11 q 1009 1 1036 -11 q 962 32 982 13 q 931 78 942 51 q 919 136 919 106 q 943 210 919 181 q 997 258 967 239 q 958 301 975 276 q 942 361 942 325 q 978 447 942 413 q 1068 482 1014 482 q 1159 447 1124 482 q 1194 361 1194 413 q 1178 301 1194 325 q 1140 258 1163 276 q 1194 210 1171 239 q 1218 136 1218 181 m 1028 136 q 1038 102 1028 117 q 1068 88 1049 88 q 1099 102 1088 88 q 1110 136 1110 117 q 1099 172 1110 157 q 1068 199 1088 188 q 1039 172 1050 188 q 1028 136 1028 157 m 1068 390 q 1047 381 1057 390 q 1038 354 1038 372 q 1047 325 1038 339 q 1068 303 1056 311 q 1090 325 1081 311 q 1100 354 1100 339 q 1090 381 1100 372 q 1068 390 1079 390 z "},"⅝":{"ha":1350,"x_min":132,"x_max":1218,"o":"m 725 944 l 904 944 l 636 0 l 456 0 l 725 944 m 310 629 q 306 655 310 643 q 288 674 301 667 q 252 686 275 682 q 192 690 229 690 l 224 944 l 417 944 l 404 832 l 332 832 l 324 760 q 406 705 379 743 q 433 618 433 667 q 422 558 433 586 q 389 508 410 529 q 340 475 368 488 q 278 463 311 463 q 219 473 246 463 q 172 496 192 483 q 132 529 149 511 l 206 603 q 219 590 211 596 q 237 583 226 586 q 263 579 247 579 q 298 593 286 579 q 310 629 310 607 m 1218 136 q 1206 78 1218 106 q 1174 32 1194 51 q 1127 1 1154 13 q 1068 -11 1100 -11 q 1009 1 1036 -11 q 962 32 982 13 q 931 78 942 51 q 919 136 919 106 q 943 210 919 181 q 997 258 967 239 q 958 301 975 276 q 942 361 942 325 q 978 447 942 413 q 1068 482 1014 482 q 1159 447 1124 482 q 1194 361 1194 413 q 1178 301 1194 325 q 1140 258 1163 276 q 1194 210 1171 239 q 1218 136 1218 181 m 1028 136 q 1038 102 1028 117 q 1068 88 1049 88 q 1099 102 1088 88 q 1110 136 1110 117 q 1099 172 1110 157 q 1068 199 1088 188 q 1039 172 1050 188 q 1028 136 1028 157 m 1068 390 q 1047 381 1057 390 q 1038 354 1038 372 q 1047 325 1038 339 q 1068 303 1056 311 q 1090 325 1081 311 q 1100 354 1100 339 q 1090 381 1100 372 q 1068 390 1079 390 z "},"⅞":{"ha":1281,"x_min":132,"x_max":1149,"o":"m 656 944 l 835 944 l 567 0 l 386 0 l 656 944 m 1149 136 q 1137 78 1149 106 q 1105 32 1125 51 q 1058 1 1085 13 q 999 -11 1031 -11 q 940 1 967 -11 q 892 32 913 13 q 861 78 872 51 q 850 136 850 106 q 874 210 850 181 q 928 258 897 239 q 889 301 906 276 q 872 361 872 325 q 908 447 872 413 q 999 482 944 482 q 1090 447 1054 482 q 1125 361 1125 413 q 1109 301 1125 325 q 1071 258 1093 276 q 1125 210 1101 239 q 1149 136 1149 181 m 267 474 l 147 474 l 267 829 l 132 829 l 143 944 l 424 944 l 267 474 m 958 136 q 969 102 958 117 q 999 88 979 88 q 1029 102 1018 88 q 1040 136 1040 117 q 1029 172 1040 157 q 999 199 1018 188 q 969 172 981 188 q 958 136 958 157 m 999 390 q 978 381 988 390 q 968 354 968 372 q 977 325 968 339 q 999 303 986 311 q 1021 325 1011 311 q 1031 354 1031 339 q 1020 381 1031 372 q 999 390 1010 390 z "},"Á":{"ha":963,"x_min":21,"x_max":956,"o":"m 424 944 l 551 944 l 956 11 l 761 -11 l 683 168 l 289 168 l 214 -11 l 21 11 l 424 944 m 363 342 l 607 342 l 483 626 l 363 342 m 371 1083 q 453 1151 419 1113 q 510 1225 488 1189 q 553 1310 535 1267 l 683 1181 q 551 1081 622 1119 q 403 1031 479 1043 l 371 1083 z "},"Ă":{"ha":963,"x_min":21,"x_max":956,"o":"m 424 944 l 551 944 l 956 11 l 761 -11 l 683 168 l 289 168 l 214 -11 l 21 11 l 424 944 m 363 342 l 607 342 l 483 626 l 363 342 m 417 1222 q 438 1156 417 1174 q 488 1139 458 1139 q 538 1156 517 1139 q 558 1222 558 1174 l 629 1242 q 633 1218 632 1233 q 633 1194 633 1203 q 596 1076 633 1122 q 488 1031 558 1031 q 379 1076 417 1031 q 342 1194 342 1122 q 342 1218 342 1203 q 346 1242 343 1233 l 417 1222 z "},"Â":{"ha":963,"x_min":21,"x_max":956,"o":"m 424 944 l 551 944 l 956 11 l 761 -11 l 683 168 l 289 168 l 214 -11 l 21 11 l 424 944 m 363 342 l 607 342 l 483 626 l 363 342 m 488 1278 l 671 1089 l 635 1031 l 488 1115 l 340 1031 l 304 1089 l 488 1278 z "},"À":{"ha":963,"x_min":21,"x_max":956,"o":"m 424 944 l 551 944 l 956 11 l 761 -11 l 683 168 l 289 168 l 214 -11 l 21 11 l 424 944 m 363 342 l 607 342 l 483 626 l 363 342 m 615 1031 q 467 1081 539 1043 q 335 1181 396 1119 l 465 1310 q 508 1225 483 1267 q 565 1151 531 1189 q 647 1083 599 1113 l 615 1031 z "},"Ä":{"ha":963,"x_min":21,"x_max":956,"o":"m 424 944 l 551 944 l 956 11 l 761 -11 l 683 168 l 289 168 l 214 -11 l 21 11 l 424 944 m 363 342 l 607 342 l 483 626 l 363 342 m 260 1146 q 287 1212 260 1185 q 353 1239 314 1239 q 419 1212 392 1239 q 446 1146 446 1185 q 419 1080 446 1107 q 353 1053 392 1053 q 287 1080 314 1053 q 260 1146 260 1107 m 529 1146 q 556 1212 529 1185 q 622 1239 583 1239 q 688 1212 661 1239 q 715 1146 715 1185 q 688 1080 715 1107 q 622 1053 661 1053 q 556 1080 583 1053 q 529 1146 529 1107 z "},"Ą":{"ha":963,"x_min":21,"x_max":956,"o":"m 956 11 q 893 -9 924 7 q 839 -49 863 -25 q 801 -102 815 -74 q 786 -160 786 -131 q 797 -196 786 -178 q 829 -214 807 -214 q 854 -208 843 -214 q 861 -201 860 -206 l 929 -312 q 897 -342 919 -326 q 829 -358 874 -358 q 769 -346 797 -358 q 719 -312 742 -333 q 685 -261 697 -290 q 672 -197 672 -232 q 683 -139 672 -167 q 713 -87 694 -111 q 751 -42 731 -62 q 790 -7 771 -22 l 761 -11 l 683 168 l 289 168 l 214 -11 l 21 11 l 424 944 l 551 944 l 956 11 m 363 342 l 607 342 l 483 626 l 363 342 z "},"Å":{"ha":963,"x_min":21,"x_max":956,"o":"m 424 944 l 551 944 l 956 11 l 761 -11 l 683 168 l 289 168 l 214 -11 l 21 11 l 424 944 m 363 342 l 607 342 l 483 626 l 363 342 m 343 1174 q 354 1229 343 1203 q 385 1275 365 1256 q 431 1306 404 1294 q 486 1317 457 1317 q 542 1306 515 1317 q 588 1275 568 1294 q 619 1229 608 1256 q 631 1174 631 1203 q 619 1118 631 1144 q 588 1072 608 1092 q 542 1042 568 1053 q 486 1031 515 1031 q 431 1042 457 1031 q 385 1072 404 1053 q 354 1118 365 1092 q 343 1174 343 1144 m 439 1174 q 453 1140 439 1154 q 488 1125 468 1125 q 522 1140 507 1125 q 536 1174 536 1154 q 522 1208 536 1193 q 488 1222 507 1222 q 453 1208 468 1222 q 439 1174 439 1193 z "},"Ã":{"ha":963,"x_min":21,"x_max":956,"o":"m 424 944 l 551 944 l 956 11 l 761 -11 l 683 168 l 289 168 l 214 -11 l 21 11 l 424 944 m 363 342 l 607 342 l 483 626 l 363 342 m 771 1228 q 763 1168 769 1203 q 742 1101 757 1133 q 697 1046 726 1068 q 621 1024 668 1024 q 551 1040 588 1024 q 478 1077 514 1057 q 410 1114 442 1097 q 354 1131 378 1131 q 315 1122 331 1131 q 291 1101 300 1114 q 278 1076 282 1089 q 272 1053 274 1063 l 204 1053 q 212 1113 206 1078 q 233 1180 218 1147 q 278 1235 249 1213 q 354 1257 307 1257 q 425 1240 388 1257 q 499 1203 463 1224 q 566 1167 535 1183 q 621 1150 597 1150 q 660 1158 644 1150 q 684 1179 675 1167 q 697 1205 693 1192 q 703 1228 701 1218 l 771 1228 z "},"Ǽ":{"ha":1144,"x_min":21,"x_max":1082,"o":"m 485 168 l 289 168 l 214 -11 l 21 11 l 424 944 l 1060 944 l 1060 771 l 674 771 l 674 565 l 994 565 l 994 392 l 674 392 l 674 174 l 1082 174 l 1060 0 l 485 0 l 485 168 m 485 342 l 485 628 l 363 342 l 485 342 m 538 1083 q 620 1151 586 1113 q 676 1225 654 1189 q 719 1310 701 1267 l 850 1181 q 717 1081 789 1119 q 569 1031 646 1043 l 538 1083 z "},"Ć":{"ha":939,"x_min":76,"x_max":897,"o":"m 892 129 q 740 26 826 63 q 554 -11 654 -11 q 368 27 456 -11 q 216 131 281 65 q 114 284 151 196 q 76 472 76 372 q 114 660 76 572 q 216 814 151 749 q 368 917 281 879 q 554 956 456 956 q 744 917 657 956 q 897 808 831 878 l 761 688 q 669 757 721 732 q 554 782 617 782 q 442 758 494 782 q 350 691 389 733 q 288 592 311 649 q 265 472 265 536 q 288 352 265 408 q 350 253 311 296 q 442 187 389 211 q 554 163 494 163 q 669 188 617 163 q 763 258 722 214 l 892 129 m 418 1083 q 501 1151 467 1113 q 557 1225 535 1189 q 600 1310 582 1267 l 731 1181 q 598 1081 669 1119 q 450 1031 526 1043 l 418 1083 z "},"Č":{"ha":939,"x_min":76,"x_max":897,"o":"m 892 129 q 740 26 826 63 q 554 -11 654 -11 q 368 27 456 -11 q 216 131 281 65 q 114 284 151 196 q 76 472 76 372 q 114 660 76 572 q 216 814 151 749 q 368 917 281 879 q 554 956 456 956 q 744 917 657 956 q 897 808 831 878 l 761 688 q 669 757 721 732 q 554 782 617 782 q 442 758 494 782 q 350 691 389 733 q 288 592 311 649 q 265 472 265 536 q 288 352 265 408 q 350 253 311 296 q 442 187 389 211 q 554 163 494 163 q 669 188 617 163 q 763 258 722 214 l 892 129 m 550 1031 l 367 1219 l 403 1278 l 550 1192 l 697 1278 l 733 1219 l 550 1031 z "},"Ç":{"ha":939,"x_min":76,"x_max":897,"o":"m 503 -129 q 475 -96 475 -124 q 483 -72 475 -87 l 519 -10 q 346 38 426 -3 q 206 142 265 78 q 111 292 146 207 q 76 472 76 376 q 114 660 76 572 q 216 814 151 749 q 368 917 281 879 q 554 956 456 956 q 744 917 657 956 q 897 808 831 878 l 761 688 q 669 757 721 732 q 554 782 617 782 q 442 758 494 782 q 350 691 389 733 q 288 592 311 649 q 265 472 265 536 q 288 352 265 408 q 350 253 311 296 q 442 187 389 211 q 554 163 494 163 q 669 188 617 163 q 763 258 722 214 l 892 129 q 762 35 835 71 q 604 -8 689 0 l 563 -81 q 592 -99 576 -87 q 619 -126 607 -110 q 640 -164 632 -142 q 647 -215 647 -186 q 637 -269 647 -243 q 607 -315 626 -296 q 561 -347 588 -335 q 504 -358 535 -358 q 443 -345 468 -358 q 404 -319 418 -332 l 474 -206 q 504 -214 486 -214 q 540 -202 528 -214 q 553 -172 553 -190 q 503 -129 553 -137 z "},"Ĉ":{"ha":939,"x_min":76,"x_max":897,"o":"m 892 129 q 740 26 826 63 q 554 -11 654 -11 q 368 27 456 -11 q 216 131 281 65 q 114 284 151 196 q 76 472 76 372 q 114 660 76 572 q 216 814 151 749 q 368 917 281 879 q 554 956 456 956 q 744 917 657 956 q 897 808 831 878 l 761 688 q 669 757 721 732 q 554 782 617 782 q 442 758 494 782 q 350 691 389 733 q 288 592 311 649 q 265 472 265 536 q 288 352 265 408 q 350 253 311 296 q 442 187 389 211 q 554 163 494 163 q 669 188 617 163 q 763 258 722 214 l 892 129 m 550 1278 l 733 1089 l 697 1031 l 550 1115 l 403 1031 l 367 1089 l 550 1278 z "},"Ċ":{"ha":939,"x_min":76,"x_max":897,"o":"m 892 129 q 740 26 826 63 q 554 -11 654 -11 q 368 27 456 -11 q 216 131 281 65 q 114 284 151 196 q 76 472 76 372 q 114 660 76 572 q 216 814 151 749 q 368 917 281 879 q 554 956 456 956 q 744 917 657 956 q 897 808 831 878 l 761 688 q 669 757 721 732 q 554 782 617 782 q 442 758 494 782 q 350 691 389 733 q 288 592 311 649 q 265 472 265 536 q 288 352 265 408 q 350 253 311 296 q 442 187 389 211 q 554 163 494 163 q 669 188 617 163 q 763 258 722 214 l 892 129 m 457 1146 q 484 1212 457 1185 q 550 1239 511 1239 q 616 1212 589 1239 q 643 1146 643 1185 q 616 1080 643 1107 q 550 1053 589 1053 q 484 1080 511 1053 q 457 1146 457 1107 z "},"Ď":{"ha":1000,"x_min":132,"x_max":924,"o":"m 447 944 q 645 911 557 944 q 795 816 733 878 q 890 666 857 754 q 924 468 924 578 q 890 275 924 361 q 795 128 857 189 q 645 33 733 67 q 447 0 557 0 l 132 0 l 132 944 l 447 944 m 419 174 q 563 189 503 174 q 660 239 622 204 q 717 330 699 274 q 735 468 735 386 q 713 612 735 554 q 649 705 690 669 q 549 756 607 740 q 419 771 490 771 l 321 771 l 321 174 l 419 174 m 472 1031 l 289 1219 l 325 1278 l 472 1192 l 619 1278 l 656 1219 l 472 1031 z "},"É":{"ha":792,"x_min":132,"x_max":729,"o":"m 132 944 l 707 944 l 707 771 l 321 771 l 321 565 l 642 565 l 642 392 l 321 392 l 321 174 l 729 174 l 707 0 l 132 0 l 132 944 m 271 1083 q 353 1151 319 1113 q 410 1225 388 1189 q 453 1310 435 1267 l 583 1181 q 451 1081 522 1119 q 303 1031 379 1043 l 271 1083 z "},"Ĕ":{"ha":792,"x_min":132,"x_max":729,"o":"m 132 944 l 707 944 l 707 771 l 321 771 l 321 565 l 642 565 l 642 392 l 321 392 l 321 174 l 729 174 l 707 0 l 132 0 l 132 944 m 351 1222 q 372 1156 351 1174 q 422 1139 393 1139 q 472 1156 451 1139 q 493 1222 493 1174 l 564 1242 q 567 1218 567 1233 q 568 1194 568 1203 q 531 1076 568 1122 q 422 1031 493 1031 q 314 1076 351 1031 q 276 1194 276 1122 q 277 1218 276 1203 q 281 1242 278 1233 l 351 1222 z "},"Ě":{"ha":792,"x_min":132,"x_max":729,"o":"m 132 944 l 707 944 l 707 771 l 321 771 l 321 565 l 642 565 l 642 392 l 321 392 l 321 174 l 729 174 l 707 0 l 132 0 l 132 944 m 421 1031 l 238 1219 l 274 1278 l 421 1192 l 568 1278 l 604 1219 l 421 1031 z "},"Ê":{"ha":792,"x_min":132,"x_max":729,"o":"m 132 944 l 707 944 l 707 771 l 321 771 l 321 565 l 642 565 l 642 392 l 321 392 l 321 174 l 729 174 l 707 0 l 132 0 l 132 944 m 413 1278 l 596 1089 l 560 1031 l 413 1115 l 265 1031 l 229 1089 l 413 1278 z "},"Ë":{"ha":792,"x_min":132,"x_max":729,"o":"m 132 944 l 707 944 l 707 771 l 321 771 l 321 565 l 642 565 l 642 392 l 321 392 l 321 174 l 729 174 l 707 0 l 132 0 l 132 944 m 190 1146 q 217 1212 190 1185 q 283 1239 244 1239 q 349 1212 322 1239 q 376 1146 376 1185 q 349 1080 376 1107 q 283 1053 322 1053 q 217 1080 244 1053 q 190 1146 190 1107 m 460 1146 q 487 1212 460 1185 q 553 1239 514 1239 q 619 1212 592 1239 q 646 1146 646 1185 q 619 1080 646 1107 q 553 1053 592 1053 q 487 1080 514 1053 q 460 1146 460 1107 z "},"Ė":{"ha":792,"x_min":132,"x_max":729,"o":"m 132 944 l 707 944 l 707 771 l 321 771 l 321 565 l 642 565 l 642 392 l 321 392 l 321 174 l 729 174 l 707 0 l 132 0 l 132 944 m 328 1146 q 355 1212 328 1185 q 421 1239 382 1239 q 487 1212 460 1239 q 514 1146 514 1185 q 487 1080 514 1107 q 421 1053 460 1053 q 355 1080 382 1053 q 328 1146 328 1107 z "},"È":{"ha":792,"x_min":132,"x_max":729,"o":"m 132 944 l 707 944 l 707 771 l 321 771 l 321 565 l 642 565 l 642 392 l 321 392 l 321 174 l 729 174 l 707 0 l 132 0 l 132 944 m 496 1031 q 348 1081 419 1043 q 215 1181 276 1119 l 346 1310 q 389 1225 364 1267 q 445 1151 411 1189 q 528 1083 479 1113 l 496 1031 z "},"Ę":{"ha":792,"x_min":132,"x_max":729,"o":"m 132 944 l 707 944 l 707 771 l 321 771 l 321 565 l 642 565 l 642 392 l 321 392 l 321 174 l 729 174 l 707 0 q 669 -22 690 -7 q 628 -58 647 -36 q 597 -105 610 -79 q 583 -160 583 -131 q 594 -196 583 -178 q 626 -214 604 -214 q 651 -208 640 -214 q 658 -201 657 -206 l 726 -312 q 694 -342 717 -326 q 626 -358 671 -358 q 567 -346 594 -358 q 517 -312 539 -333 q 482 -261 494 -290 q 469 -197 469 -232 q 483 -135 469 -164 q 515 -81 496 -106 q 556 -35 533 -56 q 597 0 578 -15 l 132 0 l 132 944 z "},"Ğ":{"ha":1001,"x_min":76,"x_max":897,"o":"m 479 1222 q 500 1156 479 1174 q 550 1139 521 1139 q 600 1156 579 1139 q 621 1222 621 1174 l 692 1242 q 695 1218 694 1233 q 696 1194 696 1203 q 658 1076 696 1122 q 550 1031 621 1031 q 442 1076 479 1031 q 404 1194 404 1122 q 405 1218 404 1203 q 408 1242 406 1233 l 479 1222 m 590 481 l 892 481 l 892 108 q 740 15 826 42 q 554 -11 654 -11 q 368 27 456 -11 q 216 131 281 65 q 114 284 151 196 q 76 472 76 372 q 114 660 76 572 q 216 814 151 749 q 368 917 281 879 q 554 956 456 956 q 744 917 657 956 q 897 808 831 878 l 761 688 q 669 757 721 732 q 554 782 617 782 q 442 758 494 782 q 350 691 389 733 q 288 592 311 649 q 265 472 265 536 q 288 352 265 408 q 350 253 311 296 q 442 187 389 211 q 554 163 494 163 q 640 171 599 163 q 717 200 681 179 l 717 321 l 567 321 l 590 481 z "},"Ĝ":{"ha":1001,"x_min":76,"x_max":897,"o":"m 553 1278 l 736 1089 l 700 1031 l 553 1115 l 406 1031 l 369 1089 l 553 1278 m 590 481 l 892 481 l 892 108 q 740 15 826 42 q 554 -11 654 -11 q 368 27 456 -11 q 216 131 281 65 q 114 284 151 196 q 76 472 76 372 q 114 660 76 572 q 216 814 151 749 q 368 917 281 879 q 554 956 456 956 q 744 917 657 956 q 897 808 831 878 l 761 688 q 669 757 721 732 q 554 782 617 782 q 442 758 494 782 q 350 691 389 733 q 288 592 311 649 q 265 472 265 536 q 288 352 265 408 q 350 253 311 296 q 442 187 389 211 q 554 163 494 163 q 640 171 599 163 q 717 200 681 179 l 717 321 l 567 321 l 590 481 z "},"Ġ":{"ha":1001,"x_min":76,"x_max":897,"o":"m 460 1146 q 487 1212 460 1185 q 553 1239 514 1239 q 619 1212 592 1239 q 646 1146 646 1185 q 619 1080 646 1107 q 553 1053 592 1053 q 487 1080 514 1053 q 460 1146 460 1107 m 590 481 l 892 481 l 892 108 q 740 15 826 42 q 554 -11 654 -11 q 368 27 456 -11 q 216 131 281 65 q 114 284 151 196 q 76 472 76 372 q 114 660 76 572 q 216 814 151 749 q 368 917 281 879 q 554 956 456 956 q 744 917 657 956 q 897 808 831 878 l 761 688 q 669 757 721 732 q 554 782 617 782 q 442 758 494 782 q 350 691 389 733 q 288 592 311 649 q 265 472 265 536 q 288 352 265 408 q 350 253 311 296 q 442 187 389 211 q 554 163 494 163 q 640 171 599 163 q 717 200 681 179 l 717 321 l 567 321 l 590 481 z "},"Ĥ":{"ha":1019,"x_min":132,"x_max":888,"o":"m 699 392 l 321 392 l 321 0 l 132 0 l 132 944 l 321 944 l 321 565 l 699 565 l 699 944 l 888 944 l 888 0 l 699 0 l 699 392 m 510 1278 l 693 1089 l 657 1031 l 510 1115 l 363 1031 l 326 1089 l 510 1278 z "},"Í":{"ha":508,"x_min":99,"x_max":411,"o":"m 349 944 l 349 0 l 160 -11 l 160 944 l 349 944 m 99 1083 q 181 1151 147 1113 q 238 1225 215 1189 q 281 1310 263 1267 l 411 1181 q 278 1081 350 1119 q 131 1031 207 1043 l 99 1083 z "},"Ĭ":{"ha":508,"x_min":108,"x_max":400,"o":"m 349 944 l 349 0 l 160 -11 l 160 944 l 349 944 m 183 1222 q 204 1156 183 1174 q 254 1139 225 1139 q 304 1156 283 1139 q 325 1222 325 1174 l 396 1242 q 399 1218 399 1233 q 400 1194 400 1203 q 363 1076 400 1122 q 254 1031 325 1031 q 146 1076 183 1031 q 108 1194 108 1122 q 109 1218 108 1203 q 113 1242 110 1233 l 183 1222 z "},"Î":{"ha":508,"x_min":71,"x_max":438,"o":"m 349 944 l 349 0 l 160 -11 l 160 944 l 349 944 m 254 1278 l 438 1089 l 401 1031 l 254 1115 l 107 1031 l 71 1089 l 254 1278 z "},"Ï":{"ha":508,"x_min":26,"x_max":482,"o":"m 349 944 l 349 0 l 160 -11 l 160 944 l 349 944 m 26 1146 q 53 1212 26 1185 q 119 1239 81 1239 q 185 1212 158 1239 q 213 1146 213 1185 q 185 1080 213 1107 q 119 1053 158 1053 q 53 1080 81 1053 q 26 1146 26 1107 m 296 1146 q 323 1212 296 1185 q 389 1239 350 1239 q 455 1212 428 1239 q 482 1146 482 1185 q 455 1080 482 1107 q 389 1053 428 1053 q 323 1080 350 1053 q 296 1146 296 1107 z "},"İ":{"ha":508,"x_min":160,"x_max":349,"o":"m 349 944 l 349 0 l 160 -11 l 160 944 l 349 944 m 161 1146 q 188 1212 161 1185 q 254 1239 215 1239 q 320 1212 293 1239 q 347 1146 347 1185 q 320 1080 347 1107 q 254 1053 293 1053 q 188 1080 215 1053 q 161 1146 161 1107 z "},"Ì":{"ha":508,"x_min":99,"x_max":411,"o":"m 349 944 l 349 0 l 160 -11 l 160 944 l 349 944 m 379 1031 q 231 1081 303 1043 q 99 1181 160 1119 l 229 1310 q 272 1225 247 1267 q 328 1151 294 1189 q 411 1083 363 1113 l 379 1031 z "},"Į":{"ha":508,"x_min":111,"x_max":368,"o":"m 349 0 q 310 -22 332 -7 q 270 -58 289 -36 q 238 -105 251 -79 q 225 -160 225 -131 q 235 -196 225 -178 q 268 -214 246 -214 q 293 -208 282 -214 q 300 -201 299 -206 l 368 -312 q 335 -342 358 -326 q 268 -358 313 -358 q 208 -346 236 -358 q 158 -312 181 -333 q 124 -261 136 -290 q 111 -197 111 -232 q 123 -137 111 -165 q 152 -85 135 -110 q 190 -42 169 -61 q 231 -7 211 -22 l 160 -11 l 160 944 l 349 944 l 349 0 l 349 0 z "},"Ĩ":{"ha":508,"x_min":-29,"x_max":538,"o":"m 349 944 l 349 0 l 160 -11 l 160 944 l 349 944 m 538 1228 q 530 1168 536 1203 q 508 1101 524 1133 q 464 1046 493 1068 q 388 1024 435 1024 q 317 1040 354 1024 q 244 1077 281 1057 q 176 1114 208 1097 q 121 1131 144 1131 q 82 1122 97 1131 q 58 1101 67 1114 q 44 1076 49 1089 q 39 1053 40 1063 l -29 1053 q -22 1113 -28 1078 q 0 1180 -15 1147 q 44 1235 15 1213 q 121 1257 74 1257 q 192 1240 154 1257 q 265 1203 229 1224 q 333 1167 301 1183 q 388 1150 364 1150 q 426 1158 411 1150 q 451 1179 442 1167 q 464 1205 460 1192 q 469 1228 468 1218 l 538 1228 z "},"Ĵ":{"ha":667,"x_min":21,"x_max":564,"o":"m 535 944 l 535 379 q 526 231 535 301 q 488 106 517 160 q 406 21 460 53 q 263 -11 353 -11 q 124 18 188 -11 q 21 96 61 47 l 161 239 q 194 182 176 201 q 249 163 213 163 q 305 178 285 163 q 334 228 325 194 q 344 313 343 261 q 346 435 346 364 l 346 771 l 192 771 l 215 944 l 535 944 m 381 1278 l 564 1089 l 528 1031 l 381 1115 l 233 1031 l 197 1089 l 381 1278 z "},"Ĺ":{"ha":669,"x_min":132,"x_max":663,"o":"m 132 944 l 321 944 l 321 189 l 663 189 l 643 0 l 132 0 l 132 944 m 132 1083 q 215 1151 181 1113 q 271 1225 249 1189 q 314 1310 296 1267 l 444 1181 q 312 1081 383 1119 q 164 1031 240 1043 l 132 1083 z "},"Ŀ":{"ha":694,"x_min":132,"x_max":688,"o":"m 132 944 l 321 944 l 321 189 l 663 189 l 643 0 l 132 0 l 132 944 m 476 540 q 507 615 476 585 q 582 646 538 646 q 657 615 626 646 q 688 540 688 585 q 657 465 688 496 q 582 435 626 435 q 507 465 538 435 q 476 540 476 496 z "},"Ń":{"ha":1024,"x_min":132,"x_max":892,"o":"m 132 933 l 306 956 l 732 326 l 732 944 l 892 944 l 892 11 l 732 -11 l 306 624 l 306 0 l 132 0 l 132 933 m 396 1083 q 478 1151 444 1113 q 535 1225 513 1189 q 578 1310 560 1267 l 708 1181 q 576 1081 647 1119 q 428 1031 504 1043 l 396 1083 z "},"Ň":{"ha":1024,"x_min":132,"x_max":892,"o":"m 132 933 l 306 956 l 732 326 l 732 944 l 892 944 l 892 11 l 732 -11 l 306 624 l 306 0 l 132 0 l 132 933 m 517 1031 l 333 1219 l 369 1278 l 517 1192 l 664 1278 l 700 1219 l 517 1031 z "},"Ñ":{"ha":1024,"x_min":132,"x_max":892,"o":"m 132 933 l 306 956 l 732 326 l 732 944 l 892 944 l 892 11 l 732 -11 l 306 624 l 306 0 l 132 0 l 132 933 m 799 1228 q 791 1168 797 1203 q 769 1101 785 1133 q 725 1046 754 1068 q 649 1024 696 1024 q 578 1040 615 1024 q 506 1077 542 1057 q 438 1114 469 1097 q 382 1131 406 1131 q 343 1122 358 1131 q 319 1101 328 1114 q 306 1076 310 1089 q 300 1053 301 1063 l 232 1053 q 240 1113 233 1078 q 261 1180 246 1147 q 306 1235 276 1213 q 382 1257 335 1257 q 453 1240 415 1257 q 526 1203 490 1224 q 594 1167 563 1183 q 649 1150 625 1150 q 688 1158 672 1150 q 712 1179 703 1167 q 725 1205 721 1192 q 731 1228 729 1218 l 799 1228 z "},"Ó":{"ha":1101,"x_min":76,"x_max":1032,"o":"m 76 472 q 114 660 76 572 q 216 814 151 749 q 368 917 281 879 q 554 956 456 956 q 740 917 653 956 q 892 814 828 879 q 994 660 957 749 q 1032 472 1032 572 q 994 284 1032 372 q 892 131 957 196 q 740 27 828 65 q 554 -11 653 -11 q 368 27 456 -11 q 216 131 281 65 q 114 284 151 196 q 76 472 76 372 m 265 472 q 288 352 265 408 q 350 253 311 296 q 442 187 389 211 q 554 163 494 163 q 667 187 614 163 q 758 253 719 211 q 820 352 797 296 q 843 472 843 408 q 820 592 843 536 q 758 691 797 649 q 667 758 719 733 q 554 782 614 782 q 442 758 494 782 q 350 691 389 733 q 288 592 311 649 q 265 472 265 536 m 400 1083 q 483 1151 449 1113 q 539 1225 517 1189 q 582 1310 564 1267 l 713 1181 q 580 1081 651 1119 q 432 1031 508 1043 l 400 1083 z "},"Ŏ":{"ha":1101,"x_min":76,"x_max":1032,"o":"m 76 472 q 114 660 76 572 q 216 814 151 749 q 368 917 281 879 q 554 956 456 956 q 740 917 653 956 q 892 814 828 879 q 994 660 957 749 q 1032 472 1032 572 q 994 284 1032 372 q 892 131 957 196 q 740 27 828 65 q 554 -11 653 -11 q 368 27 456 -11 q 216 131 281 65 q 114 284 151 196 q 76 472 76 372 m 265 472 q 288 352 265 408 q 350 253 311 296 q 442 187 389 211 q 554 163 494 163 q 667 187 614 163 q 758 253 719 211 q 820 352 797 296 q 843 472 843 408 q 820 592 843 536 q 758 691 797 649 q 667 758 719 733 q 554 782 614 782 q 442 758 494 782 q 350 691 389 733 q 288 592 311 649 q 265 472 265 536 m 483 1222 q 504 1156 483 1174 q 554 1139 525 1139 q 604 1156 583 1139 q 625 1222 625 1174 l 696 1242 q 699 1218 699 1233 q 700 1194 700 1203 q 663 1076 700 1122 q 554 1031 625 1031 q 446 1076 483 1031 q 408 1194 408 1122 q 409 1218 408 1203 q 413 1242 410 1233 l 483 1222 z "},"Ô":{"ha":1101,"x_min":76,"x_max":1032,"o":"m 76 472 q 114 660 76 572 q 216 814 151 749 q 368 917 281 879 q 554 956 456 956 q 740 917 653 956 q 892 814 828 879 q 994 660 957 749 q 1032 472 1032 572 q 994 284 1032 372 q 892 131 957 196 q 740 27 828 65 q 554 -11 653 -11 q 368 27 456 -11 q 216 131 281 65 q 114 284 151 196 q 76 472 76 372 m 265 472 q 288 352 265 408 q 350 253 311 296 q 442 187 389 211 q 554 163 494 163 q 667 187 614 163 q 758 253 719 211 q 820 352 797 296 q 843 472 843 408 q 820 592 843 536 q 758 691 797 649 q 667 758 719 733 q 554 782 614 782 q 442 758 494 782 q 350 691 389 733 q 288 592 311 649 q 265 472 265 536 m 554 1278 l 738 1089 l 701 1031 l 554 1115 l 407 1031 l 371 1089 l 554 1278 z "},"Ö":{"ha":1101,"x_min":76,"x_max":1032,"o":"m 76 472 q 114 660 76 572 q 216 814 151 749 q 368 917 281 879 q 554 956 456 956 q 740 917 653 956 q 892 814 828 879 q 994 660 957 749 q 1032 472 1032 572 q 994 284 1032 372 q 892 131 957 196 q 740 27 828 65 q 554 -11 653 -11 q 368 27 456 -11 q 216 131 281 65 q 114 284 151 196 q 76 472 76 372 m 265 472 q 288 352 265 408 q 350 253 311 296 q 442 187 389 211 q 554 163 494 163 q 667 187 614 163 q 758 253 719 211 q 820 352 797 296 q 843 472 843 408 q 820 592 843 536 q 758 691 797 649 q 667 758 719 733 q 554 782 614 782 q 442 758 494 782 q 350 691 389 733 q 288 592 311 649 q 265 472 265 536 m 326 1146 q 353 1212 326 1185 q 419 1239 381 1239 q 485 1212 458 1239 q 513 1146 513 1185 q 485 1080 513 1107 q 419 1053 458 1053 q 353 1080 381 1053 q 326 1146 326 1107 m 596 1146 q 623 1212 596 1185 q 689 1239 650 1239 q 755 1212 728 1239 q 782 1146 782 1185 q 755 1080 782 1107 q 689 1053 728 1053 q 623 1080 650 1053 q 596 1146 596 1107 z "},"Ò":{"ha":1101,"x_min":76,"x_max":1032,"o":"m 76 472 q 114 660 76 572 q 216 814 151 749 q 368 917 281 879 q 554 956 456 956 q 740 917 653 956 q 892 814 828 879 q 994 660 957 749 q 1032 472 1032 572 q 994 284 1032 372 q 892 131 957 196 q 740 27 828 65 q 554 -11 653 -11 q 368 27 456 -11 q 216 131 281 65 q 114 284 151 196 q 76 472 76 372 m 265 472 q 288 352 265 408 q 350 253 311 296 q 442 187 389 211 q 554 163 494 163 q 667 187 614 163 q 758 253 719 211 q 820 352 797 296 q 843 472 843 408 q 820 592 843 536 q 758 691 797 649 q 667 758 719 733 q 554 782 614 782 q 442 758 494 782 q 350 691 389 733 q 288 592 311 649 q 265 472 265 536 m 682 1031 q 534 1081 606 1043 q 401 1181 463 1119 l 532 1310 q 575 1225 550 1267 q 631 1151 597 1189 q 714 1083 665 1113 l 682 1031 z "},"Ő":{"ha":1101,"x_min":76,"x_max":1032,"o":"m 76 472 q 114 660 76 572 q 216 814 151 749 q 368 917 281 879 q 554 956 456 956 q 740 917 653 956 q 892 814 828 879 q 994 660 957 749 q 1032 472 1032 572 q 994 284 1032 372 q 892 131 957 196 q 740 27 828 65 q 554 -11 653 -11 q 368 27 456 -11 q 216 131 281 65 q 114 284 151 196 q 76 472 76 372 m 265 472 q 288 352 265 408 q 350 253 311 296 q 442 187 389 211 q 554 163 494 163 q 667 187 614 163 q 758 253 719 211 q 820 352 797 296 q 843 472 843 408 q 820 592 843 536 q 758 691 797 649 q 667 758 719 733 q 554 782 614 782 q 442 758 494 782 q 350 691 389 733 q 288 592 311 649 q 265 472 265 536 m 594 1092 q 617 1117 608 1099 q 632 1156 626 1135 q 639 1201 638 1178 q 640 1244 640 1225 q 640 1260 640 1253 q 639 1274 639 1268 l 639 1286 l 811 1256 q 788 1186 807 1224 q 743 1115 769 1149 q 688 1058 717 1082 q 632 1031 658 1035 l 594 1092 m 378 1092 q 401 1117 392 1099 q 415 1156 410 1135 q 422 1201 421 1178 q 424 1244 424 1225 q 423 1260 424 1253 q 422 1274 422 1268 l 422 1286 l 594 1256 q 572 1186 590 1224 q 526 1115 553 1149 q 471 1058 500 1082 q 415 1031 442 1035 l 378 1092 z "},"Ø":{"ha":1101,"x_min":76,"x_max":1032,"o":"m 304 60 q 139 232 201 124 q 76 472 76 340 q 114 660 76 572 q 216 814 151 749 q 368 917 281 879 q 554 956 456 956 q 644 947 600 956 l 675 1025 l 854 1025 l 800 886 q 894 810 851 854 q 968 713 938 767 q 1015 599 999 660 q 1032 472 1032 538 q 994 284 1032 372 q 892 131 957 196 q 740 27 828 65 q 554 -11 653 -11 q 460 -1 503 -11 l 431 -81 l 251 -81 l 304 60 m 843 472 q 813 608 843 546 q 735 714 783 671 l 524 164 q 538 163 531 163 q 554 163 546 163 q 667 187 614 163 q 758 253 719 211 q 820 352 797 296 q 843 472 843 408 m 265 472 q 294 337 265 399 q 371 232 322 275 l 581 781 q 567 781 574 781 q 554 782 561 782 q 442 758 494 782 q 350 691 389 733 q 288 592 311 649 q 265 472 265 536 z "},"Ǿ":{"ha":1101,"x_min":76,"x_max":1032,"o":"m 76 472 q 114 660 76 572 q 216 814 151 749 q 368 917 281 879 q 554 956 456 956 q 644 947 600 956 l 675 1025 l 854 1025 l 800 886 q 894 810 851 854 q 968 713 938 767 q 1015 599 999 660 q 1032 472 1032 538 q 994 284 1032 372 q 892 131 957 196 q 740 27 828 65 q 554 -11 653 -11 q 460 -1 503 -11 l 431 -81 l 251 -81 l 304 60 q 139 232 201 124 q 76 472 76 340 m 843 472 q 813 608 843 546 q 735 714 783 671 l 524 164 q 538 163 531 163 q 554 163 546 163 q 667 187 614 163 q 758 253 719 211 q 820 352 797 296 q 843 472 843 408 m 265 472 q 294 337 265 399 q 371 232 322 275 l 581 781 q 567 781 574 781 q 554 782 561 782 q 442 758 494 782 q 350 691 389 733 q 288 592 311 649 q 265 472 265 536 m 394 1083 q 477 1151 443 1113 q 533 1225 511 1189 q 576 1310 558 1267 l 707 1181 q 574 1081 646 1119 q 426 1031 503 1043 l 394 1083 z "},"Õ":{"ha":1101,"x_min":76,"x_max":1032,"o":"m 76 472 q 114 660 76 572 q 216 814 151 749 q 368 917 281 879 q 554 956 456 956 q 740 917 653 956 q 892 814 828 879 q 994 660 957 749 q 1032 472 1032 572 q 994 284 1032 372 q 892 131 957 196 q 740 27 828 65 q 554 -11 653 -11 q 368 27 456 -11 q 216 131 281 65 q 114 284 151 196 q 76 472 76 372 m 265 472 q 288 352 265 408 q 350 253 311 296 q 442 187 389 211 q 554 163 494 163 q 667 187 614 163 q 758 253 719 211 q 820 352 797 296 q 843 472 843 408 q 820 592 843 536 q 758 691 797 649 q 667 758 719 733 q 554 782 614 782 q 442 758 494 782 q 350 691 389 733 q 288 592 311 649 q 265 472 265 536 m 838 1228 q 830 1168 836 1203 q 808 1101 824 1133 q 764 1046 793 1068 q 688 1024 735 1024 q 617 1040 654 1024 q 544 1077 581 1057 q 476 1114 508 1097 q 421 1131 444 1131 q 382 1122 397 1131 q 358 1101 367 1114 q 344 1076 349 1089 q 339 1053 340 1063 l 271 1053 q 278 1113 272 1078 q 300 1180 285 1147 q 344 1235 315 1213 q 421 1257 374 1257 q 492 1240 454 1257 q 565 1203 529 1224 q 633 1167 601 1183 q 688 1150 664 1150 q 726 1158 711 1150 q 751 1179 742 1167 q 764 1205 760 1192 q 769 1228 768 1218 l 838 1228 z "},"Ŕ":{"ha":879,"x_min":132,"x_max":803,"o":"m 801 647 q 748 481 801 551 q 610 379 694 411 l 803 11 l 618 -11 l 424 357 l 321 357 l 321 0 l 132 0 l 132 944 l 476 944 q 612 921 551 944 q 714 857 672 897 q 778 763 756 817 q 801 647 801 708 m 321 519 l 449 519 q 526 531 494 519 q 576 559 557 542 q 604 599 596 576 q 613 647 613 622 q 576 737 613 703 q 449 771 540 771 l 321 771 l 321 519 m 288 1083 q 370 1151 336 1113 q 426 1225 404 1189 q 469 1310 451 1267 l 600 1181 q 467 1081 539 1119 q 319 1031 396 1043 l 288 1083 z "},"Ř":{"ha":879,"x_min":132,"x_max":803,"o":"m 801 647 q 748 481 801 551 q 610 379 694 411 l 803 11 l 618 -11 l 424 357 l 321 357 l 321 0 l 132 0 l 132 944 l 476 944 q 612 921 551 944 q 714 857 672 897 q 778 763 756 817 q 801 647 801 708 m 321 519 l 449 519 q 526 531 494 519 q 576 559 557 542 q 604 599 596 576 q 613 647 613 622 q 576 737 613 703 q 449 771 540 771 l 321 771 l 321 519 m 421 1031 l 238 1219 l 274 1278 l 421 1192 l 568 1278 l 604 1219 l 421 1031 z "},"Ś":{"ha":715,"x_min":63,"x_max":660,"o":"m 367 956 q 463 942 415 956 q 546 911 510 928 q 628 868 589 892 l 528 728 q 465 767 500 753 q 376 782 429 782 q 299 757 324 782 q 274 703 274 732 q 310 622 274 658 q 421 543 347 586 q 526 476 481 507 q 601 409 571 444 q 645 331 631 374 q 660 228 660 288 q 634 119 660 164 q 567 44 608 74 q 472 2 525 15 q 367 -11 419 -11 q 245 9 300 -11 q 150 54 190 29 q 63 119 103 82 l 183 239 q 233 200 206 217 q 289 174 257 185 q 361 163 321 163 q 440 183 410 163 q 471 244 471 204 q 460 292 471 272 q 428 329 449 313 q 379 362 408 346 q 315 397 350 378 q 229 452 271 422 q 156 521 188 482 q 104 608 124 560 q 85 717 85 656 q 101 799 85 757 q 152 876 118 842 q 240 933 186 911 q 367 956 293 956 m 201 1083 q 284 1151 250 1113 q 340 1225 318 1189 q 383 1310 365 1267 l 514 1181 q 381 1081 453 1119 q 233 1031 310 1043 l 201 1083 z "},"Š":{"ha":715,"x_min":63,"x_max":660,"o":"m 367 956 q 463 942 415 956 q 546 911 510 928 q 628 868 589 892 l 528 728 q 465 767 500 753 q 376 782 429 782 q 299 757 324 782 q 274 703 274 732 q 310 622 274 658 q 421 543 347 586 q 526 476 481 507 q 601 409 571 444 q 645 331 631 374 q 660 228 660 288 q 634 119 660 164 q 567 44 608 74 q 472 2 525 15 q 367 -11 419 -11 q 245 9 300 -11 q 150 54 190 29 q 63 119 103 82 l 183 239 q 233 200 206 217 q 289 174 257 185 q 361 163 321 163 q 440 183 410 163 q 471 244 471 204 q 460 292 471 272 q 428 329 449 313 q 379 362 408 346 q 315 397 350 378 q 229 452 271 422 q 156 521 188 482 q 104 608 124 560 q 85 717 85 656 q 101 799 85 757 q 152 876 118 842 q 240 933 186 911 q 367 956 293 956 m 361 1031 l 178 1219 l 214 1278 l 361 1192 l 508 1278 l 544 1219 l 361 1031 z "},"Ş":{"ha":715,"x_min":63,"x_max":660,"o":"m 304 -129 q 276 -96 276 -124 q 285 -72 276 -87 l 322 -8 q 217 19 264 -1 q 136 63 171 40 q 63 119 96 88 l 183 239 q 233 200 206 217 q 289 174 257 185 q 361 163 321 163 q 440 183 410 163 q 471 244 471 204 q 460 292 471 272 q 428 329 449 313 q 379 362 408 346 q 315 397 350 378 q 229 452 271 422 q 156 521 188 482 q 104 608 124 560 q 85 717 85 656 q 101 799 85 757 q 152 876 118 842 q 240 933 186 911 q 367 956 293 956 q 463 942 415 956 q 546 911 510 928 q 628 868 589 892 l 528 728 q 465 767 500 753 q 376 782 429 782 q 299 757 324 782 q 274 703 274 732 q 310 622 274 658 q 421 543 347 586 q 526 476 481 507 q 601 409 571 444 q 645 331 631 374 q 660 228 660 288 q 638 127 660 169 q 581 56 617 85 q 500 12 546 28 q 406 -8 454 -4 l 364 -81 q 393 -99 378 -87 q 421 -126 408 -110 q 441 -164 433 -142 q 449 -215 449 -186 q 438 -269 449 -243 q 408 -315 428 -296 q 363 -347 389 -335 q 306 -358 336 -358 q 244 -345 269 -358 q 206 -319 219 -332 l 275 -206 q 306 -214 288 -214 q 342 -202 329 -214 q 354 -172 354 -190 q 304 -129 354 -137 z "},"Ŝ":{"ha":715,"x_min":63,"x_max":660,"o":"m 367 956 q 463 942 415 956 q 546 911 510 928 q 628 868 589 892 l 528 728 q 465 767 500 753 q 376 782 429 782 q 299 757 324 782 q 274 703 274 732 q 310 622 274 658 q 421 543 347 586 q 526 476 481 507 q 601 409 571 444 q 645 331 631 374 q 660 228 660 288 q 634 119 660 164 q 567 44 608 74 q 472 2 525 15 q 367 -11 419 -11 q 245 9 300 -11 q 150 54 190 29 q 63 119 103 82 l 183 239 q 233 200 206 217 q 289 174 257 185 q 361 163 321 163 q 440 183 410 163 q 471 244 471 204 q 460 292 471 272 q 428 329 449 313 q 379 362 408 346 q 315 397 350 378 q 229 452 271 422 q 156 521 188 482 q 104 608 124 560 q 85 717 85 656 q 101 799 85 757 q 152 876 118 842 q 240 933 186 911 q 367 956 293 956 m 361 1278 l 544 1089 l 508 1031 l 361 1115 l 214 1031 l 178 1089 l 361 1278 z "},"Ť":{"ha":717,"x_min":49,"x_max":668,"o":"m 49 944 l 668 944 l 668 771 l 453 771 l 453 0 l 264 -11 l 264 771 l 49 771 l 49 944 m 358 1031 l 175 1219 l 211 1278 l 358 1192 l 506 1278 l 542 1219 l 358 1031 z "},"Ú":{"ha":914,"x_min":104,"x_max":810,"o":"m 810 390 q 790 231 810 304 q 729 104 771 158 q 622 19 688 50 q 463 -11 556 -11 q 296 19 364 -11 q 185 104 228 50 q 124 231 143 158 q 104 390 104 304 l 104 944 l 293 956 l 293 401 q 298 304 293 349 q 320 228 303 260 q 372 180 338 197 q 463 163 406 163 q 551 178 517 163 q 603 225 585 194 q 629 300 622 256 q 636 401 636 344 l 636 944 l 810 944 l 810 390 m 318 1083 q 401 1151 367 1113 q 457 1225 435 1189 q 500 1310 482 1267 l 631 1181 q 498 1081 569 1119 q 350 1031 426 1043 l 318 1083 z "},"Ŭ":{"ha":914,"x_min":104,"x_max":810,"o":"m 810 390 q 790 231 810 304 q 729 104 771 158 q 622 19 688 50 q 463 -11 556 -11 q 296 19 364 -11 q 185 104 228 50 q 124 231 143 158 q 104 390 104 304 l 104 944 l 293 956 l 293 401 q 298 304 293 349 q 320 228 303 260 q 372 180 338 197 q 463 163 406 163 q 551 178 517 163 q 603 225 585 194 q 629 300 622 256 q 636 401 636 344 l 636 944 l 810 944 l 810 390 m 393 1222 q 414 1156 393 1174 q 464 1139 435 1139 q 514 1156 493 1139 q 535 1222 535 1174 l 606 1242 q 609 1218 608 1233 q 610 1194 610 1203 q 572 1076 610 1122 q 464 1031 535 1031 q 356 1076 393 1031 q 318 1194 318 1122 q 319 1218 318 1203 q 322 1242 319 1233 l 393 1222 z "},"Û":{"ha":914,"x_min":104,"x_max":810,"o":"m 810 390 q 790 231 810 304 q 729 104 771 158 q 622 19 688 50 q 463 -11 556 -11 q 296 19 364 -11 q 185 104 228 50 q 124 231 143 158 q 104 390 104 304 l 104 944 l 293 956 l 293 401 q 298 304 293 349 q 320 228 303 260 q 372 180 338 197 q 463 163 406 163 q 551 178 517 163 q 603 225 585 194 q 629 300 622 256 q 636 401 636 344 l 636 944 l 810 944 l 810 390 m 468 1278 l 651 1089 l 615 1031 l 468 1115 l 321 1031 l 285 1089 l 468 1278 z "},"Ü":{"ha":914,"x_min":104,"x_max":810,"o":"m 810 390 q 790 231 810 304 q 729 104 771 158 q 622 19 688 50 q 463 -11 556 -11 q 296 19 364 -11 q 185 104 228 50 q 124 231 143 158 q 104 390 104 304 l 104 944 l 293 956 l 293 401 q 298 304 293 349 q 320 228 303 260 q 372 180 338 197 q 463 163 406 163 q 551 178 517 163 q 603 225 585 194 q 629 300 622 256 q 636 401 636 344 l 636 944 l 810 944 l 810 390 m 236 1146 q 263 1212 236 1185 q 329 1239 290 1239 q 395 1212 368 1239 q 422 1146 422 1185 q 395 1080 422 1107 q 329 1053 368 1053 q 263 1080 290 1053 q 236 1146 236 1107 m 506 1146 q 533 1212 506 1185 q 599 1239 560 1239 q 665 1212 638 1239 q 692 1146 692 1185 q 665 1080 692 1107 q 599 1053 638 1053 q 533 1080 560 1053 q 506 1146 506 1107 z "},"Ù":{"ha":914,"x_min":104,"x_max":810,"o":"m 810 390 q 790 231 810 304 q 729 104 771 158 q 622 19 688 50 q 463 -11 556 -11 q 296 19 364 -11 q 185 104 228 50 q 124 231 143 158 q 104 390 104 304 l 104 944 l 293 956 l 293 401 q 298 304 293 349 q 320 228 303 260 q 372 180 338 197 q 463 163 406 163 q 551 178 517 163 q 603 225 585 194 q 629 300 622 256 q 636 401 636 344 l 636 944 l 810 944 l 810 390 m 578 1031 q 430 1081 501 1043 q 297 1181 358 1119 l 428 1310 q 471 1225 446 1267 q 527 1151 493 1189 q 610 1083 561 1113 l 578 1031 z "},"Ű":{"ha":914,"x_min":104,"x_max":810,"o":"m 810 390 q 790 231 810 304 q 729 104 771 158 q 622 19 688 50 q 463 -11 556 -11 q 296 19 364 -11 q 185 104 228 50 q 124 231 143 158 q 104 390 104 304 l 104 944 l 293 956 l 293 401 q 298 304 293 349 q 320 228 303 260 q 372 180 338 197 q 463 163 406 163 q 551 178 517 163 q 603 225 585 194 q 629 300 622 256 q 636 401 636 344 l 636 944 l 810 944 l 810 390 m 493 1092 q 516 1117 507 1099 q 531 1156 525 1135 q 538 1201 536 1178 q 539 1244 539 1225 q 538 1260 539 1253 q 538 1274 538 1268 l 538 1286 l 710 1256 q 687 1186 706 1224 q 642 1115 668 1149 q 586 1058 615 1082 q 531 1031 557 1035 l 493 1092 m 276 1092 q 299 1117 290 1099 q 314 1156 308 1135 q 321 1201 319 1178 q 322 1244 322 1225 q 322 1260 322 1253 q 321 1274 321 1268 l 321 1286 l 493 1256 q 470 1186 489 1224 q 425 1115 451 1149 q 369 1058 399 1082 q 314 1031 340 1035 l 276 1092 z "},"Ų":{"ha":914,"x_min":104,"x_max":810,"o":"m 810 390 q 770 172 810 268 q 643 29 731 76 q 594 -7 619 14 q 549 -52 569 -28 q 514 -103 528 -76 q 500 -160 500 -131 q 510 -196 500 -178 q 543 -214 521 -214 q 568 -208 557 -214 q 575 -201 574 -206 l 643 -312 q 610 -342 633 -326 q 543 -358 588 -358 q 483 -346 511 -358 q 433 -312 456 -333 q 399 -261 411 -290 q 386 -197 386 -232 q 397 -139 386 -167 q 426 -87 408 -111 q 463 -44 443 -64 q 503 -10 483 -25 q 483 -11 492 -11 q 463 -11 474 -11 q 296 19 364 -11 q 185 104 228 50 q 124 231 143 158 q 104 390 104 304 l 104 944 l 293 956 l 293 401 q 298 304 293 349 q 320 228 303 260 q 372 180 338 197 q 463 163 406 163 q 551 178 517 163 q 603 225 585 194 q 629 300 622 256 q 636 401 636 344 l 636 944 l 810 944 l 810 390 z "},"Ů":{"ha":914,"x_min":104,"x_max":810,"o":"m 810 390 q 790 231 810 304 q 729 104 771 158 q 622 19 688 50 q 463 -11 556 -11 q 296 19 364 -11 q 185 104 228 50 q 124 231 143 158 q 104 390 104 304 l 104 944 l 293 956 l 293 401 q 298 304 293 349 q 320 228 303 260 q 372 180 338 197 q 463 163 406 163 q 551 178 517 163 q 603 225 585 194 q 629 300 622 256 q 636 401 636 344 l 636 944 l 810 944 l 810 390 m 321 1174 q 332 1229 321 1203 q 363 1275 343 1256 q 408 1306 382 1294 q 464 1317 435 1317 q 519 1306 493 1317 q 566 1275 546 1294 q 597 1229 586 1256 q 608 1174 608 1203 q 597 1118 608 1144 q 566 1072 586 1092 q 519 1042 546 1053 q 464 1031 493 1031 q 408 1042 435 1031 q 363 1072 382 1053 q 332 1118 343 1092 q 321 1174 321 1144 m 417 1174 q 431 1140 417 1154 q 465 1125 446 1125 q 499 1140 485 1125 q 514 1174 514 1154 q 499 1208 514 1193 q 465 1222 485 1222 q 431 1208 446 1222 q 417 1174 417 1193 z "},"Ũ":{"ha":914,"x_min":104,"x_max":810,"o":"m 810 390 q 790 231 810 304 q 729 104 771 158 q 622 19 688 50 q 463 -11 556 -11 q 296 19 364 -11 q 185 104 228 50 q 124 231 143 158 q 104 390 104 304 l 104 944 l 293 956 l 293 401 q 298 304 293 349 q 320 228 303 260 q 372 180 338 197 q 463 163 406 163 q 551 178 517 163 q 603 225 585 194 q 629 300 622 256 q 636 401 636 344 l 636 944 l 810 944 l 810 390 m 747 1228 q 740 1168 746 1203 q 718 1101 733 1133 q 674 1046 703 1068 q 597 1024 644 1024 q 527 1040 564 1024 q 454 1077 490 1057 q 386 1114 418 1097 q 331 1131 354 1131 q 292 1122 307 1131 q 267 1101 276 1114 q 254 1076 258 1089 q 249 1053 250 1063 l 181 1053 q 188 1113 182 1078 q 210 1180 194 1147 q 254 1235 225 1213 q 331 1257 283 1257 q 401 1240 364 1257 q 475 1203 439 1224 q 542 1167 511 1183 q 597 1150 574 1150 q 636 1158 621 1150 q 660 1179 651 1167 q 674 1205 669 1192 q 679 1228 678 1218 l 747 1228 z "},"Ẃ":{"ha":1132,"x_min":7,"x_max":1125,"o":"m 560 635 l 383 -11 l 235 -11 l 7 933 l 196 956 l 336 350 l 499 956 l 647 956 l 807 339 l 933 956 l 1125 933 l 897 -11 l 761 -11 l 560 635 m 453 1083 q 535 1151 501 1113 q 592 1225 569 1189 q 635 1310 617 1267 l 765 1181 q 633 1081 704 1119 q 485 1031 561 1043 l 453 1083 z "},"Ŵ":{"ha":1132,"x_min":7,"x_max":1125,"o":"m 560 635 l 383 -11 l 235 -11 l 7 933 l 196 956 l 336 350 l 499 956 l 647 956 l 807 339 l 933 956 l 1125 933 l 897 -11 l 761 -11 l 560 635 m 565 1278 l 749 1089 l 713 1031 l 565 1115 l 418 1031 l 382 1089 l 565 1278 z "},"Ẅ":{"ha":1132,"x_min":7,"x_max":1125,"o":"m 560 635 l 383 -11 l 235 -11 l 7 933 l 196 956 l 336 350 l 499 956 l 647 956 l 807 339 l 933 956 l 1125 933 l 897 -11 l 761 -11 l 560 635 m 338 1146 q 365 1212 338 1185 q 431 1239 392 1239 q 497 1212 469 1239 q 524 1146 524 1185 q 497 1080 524 1107 q 431 1053 469 1053 q 365 1080 392 1053 q 338 1146 338 1107 m 607 1146 q 634 1212 607 1185 q 700 1239 661 1239 q 766 1212 739 1239 q 793 1146 793 1185 q 766 1080 793 1107 q 700 1053 739 1053 q 634 1080 661 1053 q 607 1146 607 1107 z "},"Ẁ":{"ha":1132,"x_min":7,"x_max":1125,"o":"m 560 635 l 383 -11 l 235 -11 l 7 933 l 196 956 l 336 350 l 499 956 l 647 956 l 807 339 l 933 956 l 1125 933 l 897 -11 l 761 -11 l 560 635 m 674 1031 q 526 1081 597 1043 q 393 1181 454 1119 l 524 1310 q 567 1225 542 1267 q 623 1151 589 1189 q 706 1083 657 1113 l 674 1031 z "},"Ý":{"ha":796,"x_min":7,"x_max":789,"o":"m 308 492 l 7 933 l 215 956 l 417 654 l 590 956 l 789 933 l 497 493 l 497 0 l 308 0 l 308 492 m 290 1083 q 373 1151 339 1113 q 429 1225 407 1189 q 472 1310 454 1267 l 603 1181 q 470 1081 542 1119 q 322 1031 399 1043 l 290 1083 z "},"Ŷ":{"ha":796,"x_min":7,"x_max":789,"o":"m 308 492 l 7 933 l 215 956 l 417 654 l 590 956 l 789 933 l 497 493 l 497 0 l 308 0 l 308 492 m 406 1278 l 589 1089 l 553 1031 l 406 1115 l 258 1031 l 222 1089 l 406 1278 z "},"Ÿ":{"ha":796,"x_min":7,"x_max":789,"o":"m 308 492 l 7 933 l 215 956 l 417 654 l 590 956 l 789 933 l 497 493 l 497 0 l 308 0 l 308 492 m 176 1146 q 203 1212 176 1185 q 269 1239 231 1239 q 335 1212 308 1239 q 363 1146 363 1185 q 335 1080 363 1107 q 269 1053 308 1053 q 203 1080 231 1053 q 176 1146 176 1107 m 446 1146 q 473 1212 446 1185 q 539 1239 500 1239 q 605 1212 578 1239 q 632 1146 632 1185 q 605 1080 632 1107 q 539 1053 578 1053 q 473 1080 500 1053 q 446 1146 446 1107 z "},"Ỳ":{"ha":796,"x_min":7,"x_max":789,"o":"m 308 492 l 7 933 l 215 956 l 417 654 l 590 956 l 789 933 l 497 493 l 497 0 l 308 0 l 308 492 m 497 1031 q 349 1081 421 1043 q 217 1181 278 1119 l 347 1310 q 390 1225 365 1267 q 447 1151 413 1189 q 529 1083 481 1113 l 497 1031 z "},"ď":{"ha":1201,"x_min":49,"x_max":1125,"o":"m 49 358 q 79 502 49 436 q 158 616 110 568 q 269 690 207 664 q 393 717 331 717 q 432 715 410 717 q 480 706 454 713 q 534 683 506 699 q 592 643 563 668 l 592 1042 l 765 1053 l 765 0 l 592 0 l 592 108 q 539 44 567 68 q 485 8 511 21 q 434 -8 458 -4 q 393 -11 410 -11 q 260 19 322 -11 q 151 100 197 49 q 76 218 104 151 q 49 358 49 285 m 222 353 q 237 272 222 310 q 278 207 251 235 q 339 163 304 179 q 414 147 374 147 q 490 163 454 147 q 551 207 525 179 q 592 272 576 235 q 607 353 607 310 q 592 433 607 396 q 551 499 576 471 q 490 542 525 526 q 414 558 454 558 q 339 542 374 558 q 278 499 304 526 q 237 433 251 471 q 222 353 222 396 m 1032 1053 q 1101 913 1076 990 q 1125 749 1125 835 l 961 764 q 959 851 961 818 q 953 910 957 885 q 942 960 949 936 q 925 1022 935 985 l 1032 1053 z "},"ǽ":{"ha":1343,"x_min":63,"x_max":1301,"o":"m 1225 97 q 1108 17 1175 46 q 964 -11 1042 -11 q 779 40 863 -11 l 779 0 l 606 0 l 606 108 q 553 44 581 68 q 499 8 525 21 q 448 -8 472 -4 q 407 -11 424 -11 q 274 19 336 -11 q 165 100 211 49 q 90 218 118 151 q 63 358 63 285 q 93 502 63 436 q 172 616 124 568 q 283 690 221 664 q 407 717 344 717 q 446 715 424 717 q 494 706 468 713 q 548 683 519 699 q 606 643 576 668 l 606 706 l 779 717 l 779 664 q 866 703 819 689 q 964 717 913 717 q 1029 710 993 717 q 1103 687 1065 704 q 1176 640 1140 669 q 1240 566 1211 611 q 1285 456 1268 521 q 1301 306 1301 392 l 783 306 q 848 192 799 236 q 964 147 897 147 q 1108 214 1050 147 l 1225 97 m 236 353 q 251 272 236 310 q 292 207 265 235 q 353 163 318 179 q 428 147 388 147 q 503 163 468 147 q 565 207 539 179 q 606 272 590 235 q 621 353 621 310 q 606 433 621 396 q 565 499 590 471 q 503 542 539 526 q 428 558 468 558 q 353 542 388 558 q 292 499 318 526 q 251 433 265 471 q 236 353 236 396 m 964 558 q 862 524 907 558 q 794 438 817 490 l 1122 438 q 1094 496 1113 472 q 1054 533 1076 519 q 1008 553 1032 547 q 964 558 985 558 m 560 858 q 642 926 608 888 q 699 1000 676 964 q 742 1085 724 1042 l 872 956 q 740 856 811 894 q 592 806 668 818 l 560 858 z "},"ć":{"ha":731,"x_min":63,"x_max":682,"o":"m 682 97 q 565 17 632 46 q 421 -11 499 -11 q 282 17 347 -11 q 168 95 217 46 q 91 211 119 144 q 63 353 63 278 q 91 494 63 428 q 168 610 119 561 q 282 688 217 660 q 421 717 347 717 q 565 688 499 717 q 682 608 632 660 l 565 492 q 421 558 507 558 q 349 542 383 558 q 290 499 315 526 q 251 433 265 471 q 236 353 236 396 q 251 272 236 310 q 290 207 265 235 q 349 163 315 179 q 421 147 383 147 q 565 214 507 147 l 682 97 m 261 858 q 344 926 310 888 q 400 1000 378 964 q 443 1085 425 1042 l 574 956 q 441 856 513 894 q 293 806 369 818 l 261 858 z "},"č":{"ha":731,"x_min":63,"x_max":682,"o":"m 682 97 q 565 17 632 46 q 421 -11 499 -11 q 282 17 347 -11 q 168 95 217 46 q 91 211 119 144 q 63 353 63 278 q 91 494 63 428 q 168 610 119 561 q 282 688 217 660 q 421 717 347 717 q 565 688 499 717 q 682 608 632 660 l 565 492 q 421 558 507 558 q 349 542 383 558 q 290 499 315 526 q 251 433 265 471 q 236 353 236 396 q 251 272 236 310 q 290 207 265 235 q 349 163 315 179 q 421 147 383 147 q 565 214 507 147 l 682 97 m 422 804 l 239 993 l 275 1051 l 422 965 l 569 1051 l 606 993 l 422 804 z "},"ç":{"ha":731,"x_min":63,"x_max":682,"o":"m 369 -129 q 342 -96 342 -124 q 350 -72 342 -87 l 386 -8 q 259 28 318 -3 q 156 107 200 58 q 88 219 113 156 q 63 353 63 282 q 91 494 63 428 q 168 610 119 561 q 282 688 217 660 q 421 717 347 717 q 565 688 499 717 q 682 608 632 660 l 565 492 q 421 558 507 558 q 349 542 383 558 q 290 499 315 526 q 251 433 265 471 q 236 353 236 396 q 251 272 236 310 q 290 207 265 235 q 349 163 315 179 q 421 147 383 147 q 565 214 507 147 l 682 97 q 588 27 640 54 q 472 -7 535 0 l 429 -81 q 458 -99 443 -87 q 486 -126 474 -110 q 506 -164 499 -142 q 514 -215 514 -186 q 503 -269 514 -243 q 474 -315 493 -296 q 428 -347 454 -335 q 371 -358 401 -358 q 310 -345 335 -358 q 271 -319 285 -332 l 340 -206 q 371 -214 353 -214 q 407 -202 394 -214 q 419 -172 419 -190 q 369 -129 419 -137 z "},"ĉ":{"ha":731,"x_min":63,"x_max":682,"o":"m 682 97 q 565 17 632 46 q 421 -11 499 -11 q 282 17 347 -11 q 168 95 217 46 q 91 211 119 144 q 63 353 63 278 q 91 494 63 428 q 168 610 119 561 q 282 688 217 660 q 421 717 347 717 q 565 688 499 717 q 682 608 632 660 l 565 492 q 421 558 507 558 q 349 542 383 558 q 290 499 315 526 q 251 433 265 471 q 236 353 236 396 q 251 272 236 310 q 290 207 265 235 q 349 163 315 179 q 421 147 383 147 q 565 214 507 147 l 682 97 m 425 1053 l 608 864 l 572 806 l 425 890 l 278 806 l 242 864 l 425 1053 z "},"ċ":{"ha":731,"x_min":63,"x_max":682,"o":"m 682 97 q 565 17 632 46 q 421 -11 499 -11 q 282 17 347 -11 q 168 95 217 46 q 91 211 119 144 q 63 353 63 278 q 91 494 63 428 q 168 610 119 561 q 282 688 217 660 q 421 717 347 717 q 565 688 499 717 q 682 608 632 660 l 565 492 q 421 558 507 558 q 349 542 383 558 q 290 499 315 526 q 251 433 265 471 q 236 353 236 396 q 251 272 236 310 q 290 207 265 235 q 349 163 315 179 q 421 147 383 147 q 565 214 507 147 l 682 97 m 326 921 q 353 987 326 960 q 419 1014 381 1014 q 485 987 458 1014 q 513 921 513 960 q 485 855 513 882 q 419 828 458 828 q 353 855 381 828 q 326 921 326 882 z "},"ğ":{"ha":869,"x_min":63,"x_max":779,"o":"m 606 63 q 548 22 576 38 q 494 0 519 7 q 446 -9 468 -7 q 407 -11 424 -11 q 283 15 344 -11 q 172 90 221 42 q 93 203 124 138 q 63 347 63 269 q 90 488 63 421 q 165 606 118 554 q 274 687 211 657 q 407 717 336 717 q 448 713 424 717 q 499 697 472 710 q 553 661 525 685 q 606 597 581 638 l 606 706 l 779 717 l 779 14 q 749 -165 779 -93 q 666 -279 718 -236 q 547 -340 614 -322 q 407 -358 479 -358 q 335 -354 371 -358 q 267 -340 299 -350 q 207 -312 235 -329 q 158 -272 179 -296 l 278 -153 q 332 -192 303 -185 q 407 -200 361 -200 q 501 -188 463 -200 q 563 -151 539 -176 q 596 -85 586 -125 q 606 14 606 -44 l 606 63 m 236 353 q 251 272 236 310 q 292 207 265 235 q 353 163 318 179 q 428 147 388 147 q 503 163 468 147 q 565 207 539 179 q 606 272 590 235 q 621 353 621 310 q 606 433 621 396 q 565 499 590 471 q 503 542 539 526 q 428 558 468 558 q 353 542 388 558 q 292 499 318 526 q 251 433 265 471 q 236 353 236 396 m 349 997 q 369 931 349 949 q 419 914 390 914 q 469 931 449 914 q 490 997 490 949 l 561 1017 q 565 993 564 1008 q 565 969 565 978 q 528 851 565 897 q 419 806 490 806 q 311 851 349 806 q 274 969 274 897 q 274 993 274 978 q 278 1017 275 1008 l 349 997 z "},"ĝ":{"ha":869,"x_min":63,"x_max":779,"o":"m 606 63 q 548 22 576 38 q 494 0 519 7 q 446 -9 468 -7 q 407 -11 424 -11 q 283 15 344 -11 q 172 90 221 42 q 93 203 124 138 q 63 347 63 269 q 90 488 63 421 q 165 606 118 554 q 274 687 211 657 q 407 717 336 717 q 448 713 424 717 q 499 697 472 710 q 553 661 525 685 q 606 597 581 638 l 606 706 l 779 717 l 779 14 q 749 -165 779 -93 q 666 -279 718 -236 q 547 -340 614 -322 q 407 -358 479 -358 q 335 -354 371 -358 q 267 -340 299 -350 q 207 -312 235 -329 q 158 -272 179 -296 l 278 -153 q 332 -192 303 -185 q 407 -200 361 -200 q 501 -188 463 -200 q 563 -151 539 -176 q 596 -85 586 -125 q 606 14 606 -44 l 606 63 m 236 353 q 251 272 236 310 q 292 207 265 235 q 353 163 318 179 q 428 147 388 147 q 503 163 468 147 q 565 207 539 179 q 606 272 590 235 q 621 353 621 310 q 606 433 621 396 q 565 499 590 471 q 503 542 539 526 q 428 558 468 558 q 353 542 388 558 q 292 499 318 526 q 251 433 265 471 q 236 353 236 396 m 424 1053 l 607 864 l 571 806 l 424 890 l 276 806 l 240 864 l 424 1053 z "},"ġ":{"ha":869,"x_min":63,"x_max":779,"o":"m 606 63 q 548 22 576 38 q 494 0 519 7 q 446 -9 468 -7 q 407 -11 424 -11 q 283 15 344 -11 q 172 90 221 42 q 93 203 124 138 q 63 347 63 269 q 90 488 63 421 q 165 606 118 554 q 274 687 211 657 q 407 717 336 717 q 448 713 424 717 q 499 697 472 710 q 553 661 525 685 q 606 597 581 638 l 606 706 l 779 717 l 779 14 q 749 -165 779 -93 q 666 -279 718 -236 q 547 -340 614 -322 q 407 -358 479 -358 q 335 -354 371 -358 q 267 -340 299 -350 q 207 -312 235 -329 q 158 -272 179 -296 l 278 -153 q 332 -192 303 -185 q 407 -200 361 -200 q 501 -188 463 -200 q 563 -151 539 -176 q 596 -85 586 -125 q 606 14 606 -44 l 606 63 m 236 353 q 251 272 236 310 q 292 207 265 235 q 353 163 318 179 q 428 147 388 147 q 503 163 468 147 q 565 207 539 179 q 606 272 590 235 q 621 353 621 310 q 606 433 621 396 q 565 499 590 471 q 503 542 539 526 q 428 558 468 558 q 353 542 388 558 q 292 499 318 526 q 251 433 265 471 q 236 353 236 396 m 329 921 q 356 987 329 960 q 422 1014 383 1014 q 488 987 461 1014 q 515 921 515 960 q 488 855 515 882 q 422 828 461 828 q 356 855 383 828 q 329 921 329 882 z "},"ĥ":{"ha":806,"x_min":118,"x_max":722,"o":"m 489 1278 l 672 1089 l 636 1031 l 489 1115 l 342 1031 l 306 1089 l 489 1278 m 500 717 q 617 690 572 717 q 684 617 661 664 q 715 507 707 571 q 722 368 722 443 l 722 0 l 547 0 l 547 308 q 546 421 547 374 q 535 499 544 468 q 508 544 526 529 q 454 558 489 558 q 410 552 433 558 q 365 537 388 546 q 324 516 343 528 q 292 493 306 504 l 292 0 l 118 0 l 118 1042 l 292 1053 l 292 608 q 331 646 308 626 q 381 681 354 665 q 438 707 408 697 q 500 717 468 717 z "},"ĵ":{"ha":424,"x_min":-74,"x_max":401,"o":"m 306 1 q 295 -128 306 -64 q 253 -243 285 -192 q 163 -326 221 -294 q 13 -358 106 -358 q -23 -357 -7 -358 q -50 -353 -39 -356 q -74 -347 -64 -350 l -8 -199 q -1 -200 -6 -200 l 13 -200 q 64 -192 42 -200 q 101 -162 86 -183 q 124 -104 117 -140 q 132 -11 132 -68 l 132 706 l 306 706 l 306 1 m 218 1053 l 401 864 l 365 806 l 218 890 l 71 806 l 35 864 l 218 1053 z "},"ľ":{"ha":728,"x_min":132,"x_max":651,"o":"m 132 1042 l 306 1053 l 306 0 l 132 0 l 132 1042 m 558 1053 q 627 913 603 990 q 651 749 651 835 l 488 764 q 485 851 488 818 q 479 910 483 885 q 468 960 475 936 q 451 1022 461 985 l 558 1053 z "},"Ľ":{"ha":669,"x_min":132,"x_max":663,"o":"m 132 944 l 321 944 l 321 189 l 663 189 l 643 0 l 132 0 l 132 944 m 558 1053 q 627 913 603 990 q 651 749 651 835 l 488 764 q 485 851 488 818 q 479 910 483 885 q 468 960 475 936 q 451 1022 461 985 l 558 1053 z "},"ŀ":{"ha":725,"x_min":132,"x_max":663,"o":"m 132 1042 l 306 1053 l 306 0 l 132 0 l 132 1042 m 451 540 q 482 615 451 585 q 557 646 513 646 q 632 615 601 646 q 663 540 663 585 q 632 465 663 496 q 557 435 601 435 q 482 465 513 435 q 451 540 451 496 z "},"ń":{"ha":821,"x_min":104,"x_max":738,"o":"m 285 858 q 367 926 333 888 q 424 1000 401 964 q 467 1085 449 1042 l 597 956 q 465 856 536 894 q 317 806 393 818 l 285 858 m 531 717 q 650 687 608 717 q 711 608 692 657 q 734 496 731 558 q 738 369 738 433 l 738 0 l 564 0 l 564 308 q 563 421 564 374 q 552 499 561 468 q 524 544 543 529 q 471 558 506 558 q 361 542 413 558 q 278 493 310 525 l 278 0 l 104 0 l 104 706 l 269 717 l 278 608 q 390 683 324 650 q 531 717 457 717 z "},"ň":{"ha":821,"x_min":104,"x_max":738,"o":"m 429 806 l 246 994 l 282 1053 l 429 967 l 576 1053 l 613 994 l 429 806 m 531 717 q 650 687 608 717 q 711 608 692 657 q 734 496 731 558 q 738 369 738 433 l 738 0 l 564 0 l 564 308 q 563 421 564 374 q 552 499 561 468 q 524 544 543 529 q 471 558 506 558 q 361 542 413 558 q 278 493 310 525 l 278 0 l 104 0 l 104 706 l 269 717 l 278 608 q 390 683 324 650 q 531 717 457 717 z "},"ñ":{"ha":821,"x_min":104,"x_max":738,"o":"m 694 1003 q 687 943 693 978 q 665 876 681 908 q 621 821 650 843 q 544 799 592 799 q 474 815 511 799 q 401 852 438 832 q 333 889 365 872 q 278 906 301 906 q 239 897 254 906 q 215 876 224 889 q 201 851 206 864 q 196 828 197 838 l 128 828 q 135 888 129 853 q 157 955 142 922 q 201 1010 172 988 q 278 1032 231 1032 q 349 1015 311 1032 q 422 978 386 999 q 490 942 458 958 q 544 925 521 925 q 583 933 568 925 q 608 954 599 942 q 621 980 617 967 q 626 1003 625 993 l 694 1003 m 531 717 q 650 687 608 717 q 711 608 692 657 q 734 496 731 558 q 738 369 738 433 l 738 0 l 564 0 l 564 308 q 563 421 564 374 q 552 499 561 468 q 524 544 543 529 q 471 558 506 558 q 361 542 413 558 q 278 493 310 525 l 278 0 l 104 0 l 104 706 l 269 717 l 278 608 q 390 683 324 650 q 531 717 457 717 z "},"ó":{"ha":853,"x_min":63,"x_max":790,"o":"m 243 353 q 258 272 243 310 q 297 207 272 235 q 356 163 322 179 q 426 147 389 147 q 497 163 464 147 q 556 207 531 179 q 595 272 581 235 q 610 353 610 310 q 595 433 610 396 q 556 499 581 471 q 497 542 531 526 q 426 558 464 558 q 356 542 389 558 q 297 499 322 526 q 258 433 272 471 q 243 353 243 396 m 426 717 q 566 688 500 717 q 682 608 632 658 q 761 492 732 558 q 790 353 790 426 q 761 213 790 279 q 682 97 732 147 q 566 18 632 47 q 426 -11 500 -11 q 287 18 353 -11 q 171 97 221 47 q 92 213 121 147 q 63 353 63 279 q 92 492 63 426 q 171 608 121 558 q 287 688 221 658 q 426 717 353 717 m 267 858 q 349 926 315 888 q 406 1000 383 964 q 449 1085 431 1042 l 579 956 q 447 856 518 894 q 299 806 375 818 l 267 858 z "},"ŏ":{"ha":853,"x_min":63,"x_max":790,"o":"m 243 353 q 258 272 243 310 q 297 207 272 235 q 356 163 322 179 q 426 147 389 147 q 497 163 464 147 q 556 207 531 179 q 595 272 581 235 q 610 353 610 310 q 595 433 610 396 q 556 499 581 471 q 497 542 531 526 q 426 558 464 558 q 356 542 389 558 q 297 499 322 526 q 258 433 272 471 q 243 353 243 396 m 426 717 q 566 688 500 717 q 682 608 632 658 q 761 492 732 558 q 790 353 790 426 q 761 213 790 279 q 682 97 732 147 q 566 18 632 47 q 426 -11 500 -11 q 287 18 353 -11 q 171 97 221 47 q 92 213 121 147 q 63 353 63 279 q 92 492 63 426 q 171 608 121 558 q 287 688 221 658 q 426 717 353 717 m 356 997 q 376 931 356 949 q 426 914 397 914 q 476 931 456 914 q 497 997 497 949 l 568 1017 q 572 993 571 1008 q 572 969 572 978 q 535 851 572 897 q 426 806 497 806 q 318 851 356 806 q 281 969 281 897 q 281 993 281 978 q 285 1017 282 1008 l 356 997 z "},"ô":{"ha":853,"x_min":63,"x_max":790,"o":"m 243 353 q 258 272 243 310 q 297 207 272 235 q 356 163 322 179 q 426 147 389 147 q 497 163 464 147 q 556 207 531 179 q 595 272 581 235 q 610 353 610 310 q 595 433 610 396 q 556 499 581 471 q 497 542 531 526 q 426 558 464 558 q 356 542 389 558 q 297 499 322 526 q 258 433 272 471 q 243 353 243 396 m 426 717 q 566 688 500 717 q 682 608 632 658 q 761 492 732 558 q 790 353 790 426 q 761 213 790 279 q 682 97 732 147 q 566 18 632 47 q 426 -11 500 -11 q 287 18 353 -11 q 171 97 221 47 q 92 213 121 147 q 63 353 63 279 q 92 492 63 426 q 171 608 121 558 q 287 688 221 658 q 426 717 353 717 m 426 1053 l 610 864 l 574 806 l 426 890 l 279 806 l 243 864 l 426 1053 z "},"ö":{"ha":853,"x_min":63,"x_max":790,"o":"m 243 353 q 258 272 243 310 q 297 207 272 235 q 356 163 322 179 q 426 147 389 147 q 497 163 464 147 q 556 207 531 179 q 595 272 581 235 q 610 353 610 310 q 595 433 610 396 q 556 499 581 471 q 497 542 531 526 q 426 558 464 558 q 356 542 389 558 q 297 499 322 526 q 258 433 272 471 q 243 353 243 396 m 426 717 q 566 688 500 717 q 682 608 632 658 q 761 492 732 558 q 790 353 790 426 q 761 213 790 279 q 682 97 732 147 q 566 18 632 47 q 426 -11 500 -11 q 287 18 353 -11 q 171 97 221 47 q 92 213 121 147 q 63 353 63 279 q 92 492 63 426 q 171 608 121 558 q 287 688 221 658 q 426 717 353 717 m 199 921 q 226 987 199 960 q 292 1014 253 1014 q 358 987 331 1014 q 385 921 385 960 q 358 855 385 882 q 292 828 331 828 q 226 855 253 828 q 199 921 199 882 m 468 921 q 495 987 468 960 q 561 1014 522 1014 q 627 987 600 1014 q 654 921 654 960 q 627 855 654 882 q 561 828 600 828 q 495 855 522 828 q 468 921 468 882 z "},"ò":{"ha":853,"x_min":63,"x_max":790,"o":"m 243 353 q 258 272 243 310 q 297 207 272 235 q 356 163 322 179 q 426 147 389 147 q 497 163 464 147 q 556 207 531 179 q 595 272 581 235 q 610 353 610 310 q 595 433 610 396 q 556 499 581 471 q 497 542 531 526 q 426 558 464 558 q 356 542 389 558 q 297 499 322 526 q 258 433 272 471 q 243 353 243 396 m 426 717 q 566 688 500 717 q 682 608 632 658 q 761 492 732 558 q 790 353 790 426 q 761 213 790 279 q 682 97 732 147 q 566 18 632 47 q 426 -11 500 -11 q 287 18 353 -11 q 171 97 221 47 q 92 213 121 147 q 63 353 63 279 q 92 492 63 426 q 171 608 121 558 q 287 688 221 658 q 426 717 353 717 m 554 806 q 406 856 478 818 q 274 956 335 894 l 404 1085 q 447 1000 422 1042 q 503 926 469 964 q 586 858 538 888 l 554 806 z "},"ő":{"ha":853,"x_min":63,"x_max":790,"o":"m 243 353 q 258 272 243 310 q 297 207 272 235 q 356 163 322 179 q 426 147 389 147 q 497 163 464 147 q 556 207 531 179 q 595 272 581 235 q 610 353 610 310 q 595 433 610 396 q 556 499 581 471 q 497 542 531 526 q 426 558 464 558 q 356 542 389 558 q 297 499 322 526 q 258 433 272 471 q 243 353 243 396 m 426 717 q 566 688 500 717 q 682 608 632 658 q 761 492 732 558 q 790 353 790 426 q 761 213 790 279 q 682 97 732 147 q 566 18 632 47 q 426 -11 500 -11 q 287 18 353 -11 q 171 97 221 47 q 92 213 121 147 q 63 353 63 279 q 92 492 63 426 q 171 608 121 558 q 287 688 221 658 q 426 717 353 717 m 450 867 q 473 892 464 874 q 488 931 482 910 q 494 976 493 953 q 496 1019 496 1000 q 495 1035 496 1028 q 494 1049 494 1043 l 494 1061 l 667 1031 q 644 961 663 999 q 599 890 625 924 q 543 833 572 857 q 488 806 514 810 l 450 867 m 233 867 q 256 892 247 874 q 271 931 265 910 q 278 976 276 953 q 279 1019 279 1000 q 278 1035 279 1028 q 278 1049 278 1043 l 278 1061 l 450 1031 q 427 961 446 999 q 382 890 408 924 q 326 833 356 857 q 271 806 297 810 l 233 867 z "},"ø":{"ha":853,"x_min":63,"x_max":790,"o":"m 426 717 q 508 706 467 717 l 549 786 l 732 786 l 656 632 q 753 508 717 581 q 790 353 790 436 q 761 213 790 279 q 682 97 732 147 q 566 18 632 47 q 426 -11 500 -11 q 342 0 386 -11 l 303 -81 l 119 -81 l 196 75 q 99 197 135 125 q 63 353 63 269 q 92 492 63 426 q 171 608 121 558 q 287 688 221 658 q 426 717 353 717 m 610 353 q 576 471 610 418 l 415 147 l 426 147 q 497 163 464 147 q 556 207 531 179 q 595 272 581 235 q 610 353 610 310 m 243 353 q 275 235 243 286 l 435 558 l 426 558 q 356 542 389 558 q 297 499 322 526 q 258 433 272 471 q 243 353 243 396 z "},"õ":{"ha":853,"x_min":63,"x_max":790,"o":"m 243 353 q 258 272 243 310 q 297 207 272 235 q 356 163 322 179 q 426 147 389 147 q 497 163 464 147 q 556 207 531 179 q 595 272 581 235 q 610 353 610 310 q 595 433 610 396 q 556 499 581 471 q 497 542 531 526 q 426 558 464 558 q 356 542 389 558 q 297 499 322 526 q 258 433 272 471 q 243 353 243 396 m 426 717 q 566 688 500 717 q 682 608 632 658 q 761 492 732 558 q 790 353 790 426 q 761 213 790 279 q 682 97 732 147 q 566 18 632 47 q 426 -11 500 -11 q 287 18 353 -11 q 171 97 221 47 q 92 213 121 147 q 63 353 63 279 q 92 492 63 426 q 171 608 121 558 q 287 688 221 658 q 426 717 353 717 m 710 1003 q 702 943 708 978 q 681 876 696 908 q 636 821 665 843 q 560 799 607 799 q 490 815 526 799 q 417 852 453 832 q 349 889 381 872 q 293 906 317 906 q 254 897 269 906 q 230 876 239 889 q 217 851 221 864 q 211 828 213 838 l 143 828 q 151 888 144 853 q 172 955 157 922 q 217 1010 188 988 q 293 1032 246 1032 q 364 1015 326 1032 q 438 978 401 999 q 505 942 474 958 q 560 925 536 925 q 599 933 583 925 q 623 954 614 942 q 636 980 632 967 q 642 1003 640 993 l 710 1003 z "},"ǿ":{"ha":853,"x_min":63,"x_max":790,"o":"m 196 75 q 99 197 135 125 q 63 353 63 269 q 92 492 63 426 q 171 608 121 558 q 287 688 221 658 q 426 717 353 717 q 508 706 467 717 l 549 786 l 732 786 l 656 632 q 753 508 717 581 q 790 353 790 436 q 761 213 790 279 q 682 97 732 147 q 566 18 632 47 q 426 -11 500 -11 q 342 0 386 -11 l 303 -81 l 119 -81 l 196 75 m 271 858 q 353 926 319 888 q 410 1000 388 964 q 453 1085 435 1042 l 583 956 q 451 856 522 894 q 303 806 379 818 l 271 858 m 610 353 q 576 471 610 418 l 415 147 l 426 147 q 497 163 464 147 q 556 207 531 179 q 595 272 581 235 q 610 353 610 310 m 243 353 q 275 235 243 286 l 435 558 l 426 558 q 356 542 389 558 q 297 499 322 526 q 258 433 272 471 q 243 353 243 396 z "},"ŕ":{"ha":586,"x_min":104,"x_max":579,"o":"m 192 858 q 274 926 240 888 q 331 1000 308 964 q 374 1085 356 1042 l 504 956 q 372 856 443 894 q 224 806 300 818 l 192 858 m 478 549 q 463 553 471 550 q 446 557 456 556 q 424 558 436 558 q 346 538 386 558 q 278 493 306 518 l 278 0 l 104 0 l 104 706 l 269 717 l 278 608 q 317 651 293 631 q 367 685 340 671 q 424 708 394 700 q 478 717 453 717 q 531 712 507 717 q 579 697 556 707 l 478 549 z "},"ř":{"ha":586,"x_min":104,"x_max":579,"o":"m 325 804 l 142 993 l 178 1051 l 325 965 l 472 1051 l 508 993 l 325 804 m 478 549 q 463 553 471 550 q 446 557 456 556 q 424 558 436 558 q 346 538 386 558 q 278 493 306 518 l 278 0 l 104 0 l 104 706 l 269 717 l 278 608 q 317 651 293 631 q 367 685 340 671 q 424 708 394 700 q 478 717 453 717 q 531 712 507 717 q 579 697 556 707 l 478 549 z "},"ś":{"ha":594,"x_min":69,"x_max":539,"o":"m 307 717 q 397 705 358 717 q 464 678 436 693 q 519 640 496 661 l 400 522 q 378 540 392 532 q 349 553 367 547 q 303 558 331 558 q 265 546 279 558 q 250 514 250 533 q 284 468 250 489 q 364 421 318 447 q 426 383 394 404 q 482 333 457 361 q 523 267 507 304 q 539 183 539 231 q 520 103 539 139 q 469 42 501 67 q 395 3 438 17 q 307 -11 353 -11 q 215 3 258 -11 q 139 38 171 18 q 69 88 101 60 l 185 200 q 217 174 199 185 q 254 155 232 163 q 304 147 276 147 q 349 160 332 147 q 365 196 365 172 q 339 247 365 228 q 274 292 313 267 q 212 330 246 310 q 147 378 178 350 q 97 447 117 407 q 76 543 76 486 q 91 601 76 571 q 135 658 106 632 q 207 700 164 683 q 307 717 250 717 m 147 858 q 230 926 196 888 q 286 1000 264 964 q 329 1085 311 1042 l 460 956 q 327 856 399 894 q 179 806 256 818 l 147 858 z "},"š":{"ha":594,"x_min":69,"x_max":539,"o":"m 307 717 q 397 705 358 717 q 464 678 436 693 q 519 640 496 661 l 400 522 q 378 540 392 532 q 349 553 367 547 q 303 558 331 558 q 265 546 279 558 q 250 514 250 533 q 284 468 250 489 q 364 421 318 447 q 426 383 394 404 q 482 333 457 361 q 523 267 507 304 q 539 183 539 231 q 520 103 539 139 q 469 42 501 67 q 395 3 438 17 q 307 -11 353 -11 q 215 3 258 -11 q 139 38 171 18 q 69 88 101 60 l 185 200 q 217 174 199 185 q 254 155 232 163 q 304 147 276 147 q 349 160 332 147 q 365 196 365 172 q 339 247 365 228 q 274 292 313 267 q 212 330 246 310 q 147 378 178 350 q 97 447 117 407 q 76 543 76 486 q 91 601 76 571 q 135 658 106 632 q 207 700 164 683 q 307 717 250 717 m 311 806 l 128 994 l 164 1053 l 311 967 l 458 1053 l 494 994 l 311 806 z "},"ş":{"ha":594,"x_min":69,"x_max":539,"o":"m 240 -129 q 213 -96 213 -124 q 221 -72 213 -87 l 258 -7 q 183 16 218 0 q 124 47 149 32 q 69 88 94 65 l 185 200 q 217 174 199 185 q 254 155 232 163 q 304 147 276 147 q 349 160 332 147 q 365 196 365 172 q 339 247 365 228 q 274 292 313 267 q 212 330 246 310 q 147 378 178 350 q 97 447 117 407 q 76 543 76 486 q 91 601 76 571 q 135 658 106 632 q 207 700 164 683 q 307 717 250 717 q 397 705 358 717 q 464 678 436 693 q 519 640 496 661 l 400 522 q 378 540 392 532 q 349 553 367 547 q 303 558 331 558 q 265 546 279 558 q 250 514 250 533 q 284 468 250 489 q 364 421 318 447 q 426 383 394 404 q 482 333 457 361 q 523 267 507 304 q 539 183 539 231 q 524 110 539 143 q 481 51 508 76 q 418 11 454 26 q 342 -8 382 -4 l 300 -81 q 329 -99 314 -87 q 357 -126 344 -110 q 377 -164 369 -142 q 385 -215 385 -186 q 374 -269 385 -243 q 344 -315 364 -296 q 299 -347 325 -335 q 242 -358 272 -358 q 181 -345 206 -358 q 142 -319 156 -332 l 211 -206 q 242 -214 224 -214 q 278 -202 265 -214 q 290 -172 290 -190 q 240 -129 290 -137 z "},"ŝ":{"ha":594,"x_min":69,"x_max":539,"o":"m 307 717 q 397 705 358 717 q 464 678 436 693 q 519 640 496 661 l 400 522 q 378 540 392 532 q 349 553 367 547 q 303 558 331 558 q 265 546 279 558 q 250 514 250 533 q 284 468 250 489 q 364 421 318 447 q 426 383 394 404 q 482 333 457 361 q 523 267 507 304 q 539 183 539 231 q 520 103 539 139 q 469 42 501 67 q 395 3 438 17 q 307 -11 353 -11 q 215 3 258 -11 q 139 38 171 18 q 69 88 101 60 l 185 200 q 217 174 199 185 q 254 155 232 163 q 304 147 276 147 q 349 160 332 147 q 365 196 365 172 q 339 247 365 228 q 274 292 313 267 q 212 330 246 310 q 147 378 178 350 q 97 447 117 407 q 76 543 76 486 q 91 601 76 571 q 135 658 106 632 q 207 700 164 683 q 307 717 250 717 m 314 1053 l 497 864 l 461 806 l 314 890 l 167 806 l 131 864 l 314 1053 z "},"ť":{"ha":754,"x_min":49,"x_max":678,"o":"m 585 1053 q 653 913 629 990 q 678 749 678 835 l 514 764 q 512 851 514 818 q 506 910 510 885 q 494 960 501 936 q 478 1022 488 985 l 585 1053 m 332 547 l 332 321 q 335 215 332 254 q 350 154 339 175 q 383 128 361 133 q 440 122 404 122 l 440 8 q 417 -1 429 3 q 391 -8 406 -6 q 361 -11 376 -11 q 300 -2 335 -11 q 234 33 265 7 q 181 106 203 60 q 158 226 158 151 l 158 547 l 49 547 l 49 706 l 158 706 l 158 944 l 332 944 l 332 706 l 485 706 l 463 547 l 332 547 z "},"ú":{"ha":776,"x_min":76,"x_max":679,"o":"m 239 858 q 322 926 288 888 q 378 1000 356 964 q 421 1085 403 1042 l 551 956 q 419 856 490 894 q 271 806 347 818 l 239 858 m 297 -11 q 174 19 218 -11 q 108 98 129 49 q 81 210 86 147 q 76 338 76 272 l 76 706 l 250 706 l 250 397 q 251 285 250 332 q 262 207 253 238 q 290 162 271 176 q 343 147 308 147 q 384 153 361 147 q 429 167 407 158 q 472 188 451 176 q 506 213 492 200 l 506 706 l 679 706 l 679 0 l 515 -11 l 506 97 q 465 55 490 75 q 411 20 440 35 q 352 -3 382 6 q 297 -11 322 -11 z "},"ŭ":{"ha":776,"x_min":76,"x_max":679,"o":"m 317 997 q 338 931 317 949 q 388 914 358 914 q 438 931 417 914 q 458 997 458 949 l 529 1017 q 533 993 532 1008 q 533 969 533 978 q 496 851 533 897 q 388 806 458 806 q 279 851 317 806 q 242 969 242 897 q 242 993 242 978 q 246 1017 243 1008 l 317 997 m 297 -11 q 174 19 218 -11 q 108 98 129 49 q 81 210 86 147 q 76 338 76 272 l 76 706 l 250 706 l 250 397 q 251 285 250 332 q 262 207 253 238 q 290 162 271 176 q 343 147 308 147 q 384 153 361 147 q 429 167 407 158 q 472 188 451 176 q 506 213 492 200 l 506 706 l 679 706 l 679 0 l 515 -11 l 506 97 q 465 55 490 75 q 411 20 440 35 q 352 -3 382 6 q 297 -11 322 -11 z "},"û":{"ha":776,"x_min":76,"x_max":679,"o":"m 385 1053 l 568 864 l 532 806 l 385 890 l 238 806 l 201 864 l 385 1053 m 297 -11 q 174 19 218 -11 q 108 98 129 49 q 81 210 86 147 q 76 338 76 272 l 76 706 l 250 706 l 250 397 q 251 285 250 332 q 262 207 253 238 q 290 162 271 176 q 343 147 308 147 q 384 153 361 147 q 429 167 407 158 q 472 188 451 176 q 506 213 492 200 l 506 706 l 679 706 l 679 0 l 515 -11 l 506 97 q 465 55 490 75 q 411 20 440 35 q 352 -3 382 6 q 297 -11 322 -11 z "},"ü":{"ha":776,"x_min":76,"x_max":679,"o":"m 156 921 q 183 987 156 960 q 249 1014 210 1014 q 315 987 288 1014 q 342 921 342 960 q 315 855 342 882 q 249 828 288 828 q 183 855 210 828 q 156 921 156 882 m 425 921 q 452 987 425 960 q 518 1014 479 1014 q 584 987 557 1014 q 611 921 611 960 q 584 855 611 882 q 518 828 557 828 q 452 855 479 828 q 425 921 425 882 m 297 -11 q 174 19 218 -11 q 108 98 129 49 q 81 210 86 147 q 76 338 76 272 l 76 706 l 250 706 l 250 397 q 251 285 250 332 q 262 207 253 238 q 290 162 271 176 q 343 147 308 147 q 384 153 361 147 q 429 167 407 158 q 472 188 451 176 q 506 213 492 200 l 506 706 l 679 706 l 679 0 l 515 -11 l 506 97 q 465 55 490 75 q 411 20 440 35 q 352 -3 382 6 q 297 -11 322 -11 z "},"ű":{"ha":776,"x_min":76,"x_max":679,"o":"m 421 867 q 444 892 435 874 q 458 931 453 910 q 465 976 464 953 q 467 1019 467 1000 q 466 1035 467 1028 q 465 1049 465 1043 l 465 1061 l 638 1031 q 615 961 633 999 q 569 890 596 924 q 514 833 543 857 q 458 806 485 810 l 421 867 m 204 867 q 227 892 218 874 q 242 931 236 910 q 249 976 247 953 q 250 1019 250 1000 q 249 1035 250 1028 q 249 1049 249 1043 l 249 1061 l 421 1031 q 398 961 417 999 q 353 890 379 924 q 297 833 326 857 q 242 806 268 810 l 204 867 m 297 -11 q 174 19 218 -11 q 108 98 129 49 q 81 210 86 147 q 76 338 76 272 l 76 706 l 250 706 l 250 397 q 251 285 250 332 q 262 207 253 238 q 290 162 271 176 q 343 147 308 147 q 384 153 361 147 q 429 167 407 158 q 472 188 451 176 q 506 213 492 200 l 506 706 l 679 706 l 679 0 l 515 -11 l 506 97 q 465 55 490 75 q 411 20 440 35 q 352 -3 382 6 q 297 -11 322 -11 z "},"ù":{"ha":776,"x_min":76,"x_max":679,"o":"m 494 806 q 347 856 418 818 q 214 956 275 894 l 344 1085 q 388 1000 363 1042 q 444 926 410 964 q 526 858 478 888 l 494 806 m 297 -11 q 174 19 218 -11 q 108 98 129 49 q 81 210 86 147 q 76 338 76 272 l 76 706 l 250 706 l 250 397 q 251 285 250 332 q 262 207 253 238 q 290 162 271 176 q 343 147 308 147 q 384 153 361 147 q 429 167 407 158 q 472 188 451 176 q 506 213 492 200 l 506 706 l 679 706 l 679 0 l 515 -11 l 506 97 q 465 55 490 75 q 411 20 440 35 q 352 -3 382 6 q 297 -11 322 -11 z "},"ų":{"ha":776,"x_min":76,"x_max":717,"o":"m 297 -11 q 174 19 218 -11 q 108 98 129 49 q 81 210 86 147 q 76 338 76 272 l 76 706 l 250 706 l 250 397 q 251 285 250 332 q 262 207 253 238 q 290 162 271 176 q 343 147 308 147 q 384 153 361 147 q 429 167 407 158 q 472 188 451 176 q 506 213 492 200 l 506 706 l 679 706 l 679 0 q 626 -49 650 -24 q 590 -99 607 -71 q 574 -160 574 -128 q 584 -196 574 -178 q 617 -214 594 -214 q 642 -208 631 -214 q 649 -201 647 -206 l 717 -312 q 684 -342 707 -326 q 617 -358 661 -358 q 557 -346 585 -358 q 507 -312 529 -333 q 472 -261 485 -290 q 460 -197 460 -232 q 472 -137 460 -165 q 501 -85 483 -110 q 539 -42 518 -61 q 579 -7 560 -22 l 515 -11 l 506 97 q 465 55 490 75 q 411 20 440 35 q 352 -3 382 6 q 297 -11 322 -11 z "},"ů":{"ha":776,"x_min":76,"x_max":679,"o":"m 247 949 q 258 1004 247 978 q 289 1050 269 1031 q 335 1081 308 1069 q 390 1092 361 1092 q 446 1081 419 1092 q 492 1050 472 1069 q 524 1004 513 1031 q 535 949 535 978 q 524 893 535 919 q 492 847 513 867 q 446 817 472 828 q 390 806 419 806 q 335 817 361 806 q 289 847 308 828 q 258 893 269 867 q 247 949 247 919 m 343 949 q 358 915 343 929 q 392 900 372 900 q 426 915 411 900 q 440 949 440 929 q 426 983 440 968 q 392 997 411 997 q 358 983 372 997 q 343 949 343 968 m 297 -11 q 174 19 218 -11 q 108 98 129 49 q 81 210 86 147 q 76 338 76 272 l 76 706 l 250 706 l 250 397 q 251 285 250 332 q 262 207 253 238 q 290 162 271 176 q 343 147 308 147 q 384 153 361 147 q 429 167 407 158 q 472 188 451 176 q 506 213 492 200 l 506 706 l 679 706 l 679 0 l 515 -11 l 506 97 q 465 55 490 75 q 411 20 440 35 q 352 -3 382 6 q 297 -11 322 -11 z "},"ũ":{"ha":776,"x_min":76,"x_max":679,"o":"m 675 1003 q 667 943 674 978 q 646 876 661 908 q 601 821 631 843 q 525 799 572 799 q 455 815 492 799 q 382 852 418 832 q 314 889 346 872 q 258 906 282 906 q 219 897 235 906 q 195 876 204 889 q 182 851 186 864 q 176 828 178 838 l 108 828 q 116 888 110 853 q 138 955 122 922 q 182 1010 153 988 q 258 1032 211 1032 q 329 1015 292 1032 q 403 978 367 999 q 470 942 439 958 q 525 925 501 925 q 564 933 549 925 q 588 954 579 942 q 601 980 597 967 q 607 1003 606 993 l 675 1003 m 297 -11 q 174 19 218 -11 q 108 98 129 49 q 81 210 86 147 q 76 338 76 272 l 76 706 l 250 706 l 250 397 q 251 285 250 332 q 262 207 253 238 q 290 162 271 176 q 343 147 308 147 q 384 153 361 147 q 429 167 407 158 q 472 188 451 176 q 506 213 492 200 l 506 706 l 679 706 l 679 0 l 515 -11 l 506 97 q 465 55 490 75 q 411 20 440 35 q 352 -3 382 6 q 297 -11 322 -11 z "},"ý":{"ha":765,"x_min":7,"x_max":758,"o":"m 303 61 l 7 706 l 193 717 l 390 265 l 582 717 l 758 706 l 283 -358 l 135 -336 l 303 61 m 244 858 q 327 926 293 888 q 383 1000 361 964 q 426 1085 408 1042 l 557 956 q 424 856 496 894 q 276 806 353 818 l 244 858 z "},"ÿ":{"ha":765,"x_min":7,"x_max":758,"o":"m 303 61 l 7 706 l 193 717 l 390 265 l 582 717 l 758 706 l 283 -358 l 135 -336 l 303 61 m 164 921 q 191 987 164 960 q 257 1014 218 1014 q 323 987 296 1014 q 350 921 350 960 q 323 855 350 882 q 257 828 296 828 q 191 855 218 828 q 164 921 164 882 m 433 921 q 460 987 433 960 q 526 1014 488 1014 q 592 987 565 1014 q 619 921 619 960 q 592 855 619 882 q 526 828 565 828 q 460 855 488 828 q 433 921 433 882 z "},"ŷ":{"ha":765,"x_min":7,"x_max":758,"o":"m 303 61 l 7 706 l 193 717 l 390 265 l 582 717 l 758 706 l 283 -358 l 135 -336 l 303 61 m 392 1053 l 575 864 l 539 806 l 392 890 l 244 806 l 208 864 l 392 1053 z "},"ỳ":{"ha":765,"x_min":7,"x_max":758,"o":"m 303 61 l 7 706 l 193 717 l 390 265 l 582 717 l 758 706 l 283 -358 l 135 -336 l 303 61 m 499 806 q 351 856 422 818 q 218 956 279 894 l 349 1085 q 392 1000 367 1042 q 448 926 414 964 q 531 858 482 888 l 499 806 z "},"ź":{"ha":663,"x_min":49,"x_max":614,"o":"m 231 858 q 313 926 279 888 q 369 1000 347 964 q 413 1085 394 1042 l 543 956 q 410 856 482 894 q 263 806 339 818 l 231 858 m 318 143 l 610 143 l 590 0 l 49 0 l 344 563 l 104 563 l 104 706 l 614 706 l 318 143 z "},"ž":{"ha":663,"x_min":49,"x_max":614,"o":"m 371 806 l 188 994 l 224 1053 l 371 967 l 518 1053 l 554 994 l 371 806 m 318 143 l 610 143 l 590 0 l 49 0 l 344 563 l 104 563 l 104 706 l 614 706 l 318 143 z "},"ż":{"ha":663,"x_min":49,"x_max":614,"o":"m 272 921 q 299 987 272 960 q 365 1014 326 1014 q 431 987 404 1014 q 458 921 458 960 q 431 855 458 882 q 365 828 404 828 q 299 855 326 828 q 272 921 272 882 m 318 143 l 610 143 l 590 0 l 49 0 l 344 563 l 104 563 l 104 706 l 614 706 l 318 143 z "},"ẁ":{"ha":932,"x_min":14,"x_max":918,"o":"m 713 0 l 596 0 l 472 365 l 376 0 l 253 0 l 14 706 l 194 717 l 314 299 l 426 706 l 535 706 l 658 299 l 779 717 l 918 706 l 713 0 m 593 806 q 445 856 517 818 q 313 956 374 894 l 443 1085 q 486 1000 461 1042 q 542 926 508 964 q 625 858 576 888 l 593 806 z "},"ẅ":{"ha":932,"x_min":14,"x_max":918,"o":"m 713 0 l 596 0 l 472 365 l 376 0 l 253 0 l 14 706 l 194 717 l 314 299 l 426 706 l 535 706 l 658 299 l 779 717 l 918 706 l 713 0 m 253 921 q 280 987 253 960 q 346 1014 307 1014 q 412 987 385 1014 q 439 921 439 960 q 412 855 439 882 q 346 828 385 828 q 280 855 307 828 q 253 921 253 882 m 522 921 q 549 987 522 960 q 615 1014 576 1014 q 681 987 654 1014 q 708 921 708 960 q 681 855 708 882 q 615 828 654 828 q 549 855 576 828 q 522 921 522 882 z "},"ŵ":{"ha":932,"x_min":14,"x_max":918,"o":"m 713 0 l 596 0 l 472 365 l 376 0 l 253 0 l 14 706 l 194 717 l 314 299 l 426 706 l 535 706 l 658 299 l 779 717 l 918 706 l 713 0 m 481 1053 l 664 864 l 628 806 l 481 890 l 333 806 l 297 864 l 481 1053 z "},"ẃ":{"ha":932,"x_min":14,"x_max":918,"o":"m 713 0 l 596 0 l 472 365 l 376 0 l 253 0 l 14 706 l 194 717 l 314 299 l 426 706 l 535 706 l 658 299 l 779 717 l 918 706 l 713 0 m 353 858 q 435 926 401 888 q 492 1000 469 964 q 535 1085 517 1042 l 665 956 q 533 856 604 894 q 385 806 461 818 l 353 858 z "},"¯":{"ha":1089,"x_min":271,"x_max":818,"o":"m 283 907 l 818 907 l 806 789 l 271 789 l 283 907 z "},"Ā":{"ha":963,"x_min":21,"x_max":956,"o":"m 424 944 l 551 944 l 956 11 l 761 -11 l 683 168 l 289 168 l 214 -11 l 21 11 l 424 944 m 363 342 l 607 342 l 483 626 l 363 342 m 213 1160 l 747 1160 l 735 1042 l 200 1042 l 213 1160 z "},"Ē":{"ha":792,"x_min":132,"x_max":729,"o":"m 132 944 l 707 944 l 707 771 l 321 771 l 321 565 l 642 565 l 642 392 l 321 392 l 321 174 l 729 174 l 707 0 l 132 0 l 132 944 m 156 1160 l 690 1160 l 678 1042 l 143 1042 l 156 1160 z "},"Ī":{"ha":508,"x_min":-19,"x_max":528,"o":"m 349 944 l 349 0 l 160 -11 l 160 944 l 349 944 m -7 1160 l 528 1160 l 515 1042 l -19 1042 l -7 1160 z "},"Ō":{"ha":1101,"x_min":76,"x_max":1032,"o":"m 76 472 q 114 660 76 572 q 216 814 151 749 q 368 917 281 879 q 554 956 456 956 q 740 917 653 956 q 892 814 828 879 q 994 660 957 749 q 1032 472 1032 572 q 994 284 1032 372 q 892 131 957 196 q 740 27 828 65 q 554 -11 653 -11 q 368 27 456 -11 q 216 131 281 65 q 114 284 151 196 q 76 472 76 372 m 265 472 q 288 352 265 408 q 350 253 311 296 q 442 187 389 211 q 554 163 494 163 q 667 187 614 163 q 758 253 719 211 q 820 352 797 296 q 843 472 843 408 q 820 592 843 536 q 758 691 797 649 q 667 758 719 733 q 554 782 614 782 q 442 758 494 782 q 350 691 389 733 q 288 592 311 649 q 265 472 265 536 m 293 1160 l 828 1160 l 815 1042 l 281 1042 l 293 1160 z "},"Ū":{"ha":914,"x_min":104,"x_max":810,"o":"m 810 390 q 790 231 810 304 q 729 104 771 158 q 622 19 688 50 q 463 -11 556 -11 q 296 19 364 -11 q 185 104 228 50 q 124 231 143 158 q 104 390 104 304 l 104 944 l 293 956 l 293 401 q 298 304 293 349 q 320 228 303 260 q 372 180 338 197 q 463 163 406 163 q 551 178 517 163 q 603 225 585 194 q 629 300 622 256 q 636 401 636 344 l 636 944 l 810 944 l 810 390 m 210 1160 l 744 1160 l 732 1042 l 197 1042 l 210 1160 z "},"Ź":{"ha":817,"x_min":63,"x_max":747,"o":"m 353 163 l 714 163 l 692 0 l 63 0 l 456 782 l 128 782 l 128 944 l 747 944 l 353 163 m 292 1083 q 374 1151 340 1113 q 431 1225 408 1189 q 474 1310 456 1267 l 604 1181 q 472 1081 543 1119 q 324 1031 400 1043 l 292 1083 z "},"Ž":{"ha":817,"x_min":63,"x_max":747,"o":"m 353 163 l 714 163 l 692 0 l 63 0 l 456 782 l 128 782 l 128 944 l 747 944 l 353 163 m 442 1031 l 258 1219 l 294 1278 l 442 1192 l 589 1278 l 625 1219 l 442 1031 z "},"Ż":{"ha":817,"x_min":63,"x_max":747,"o":"m 353 163 l 714 163 l 692 0 l 63 0 l 456 782 l 128 782 l 128 944 l 747 944 l 353 163 m 349 1146 q 376 1212 349 1185 q 442 1239 403 1239 q 508 1212 481 1239 q 535 1146 535 1185 q 508 1080 535 1107 q 442 1053 481 1053 q 376 1080 403 1053 q 349 1146 349 1107 z "},"ō":{"ha":853,"x_min":63,"x_max":790,"o":"m 243 353 q 258 272 243 310 q 297 207 272 235 q 356 163 322 179 q 426 147 389 147 q 497 163 464 147 q 556 207 531 179 q 595 272 581 235 q 610 353 610 310 q 595 433 610 396 q 556 499 581 471 q 497 542 531 526 q 426 558 464 558 q 356 542 389 558 q 297 499 322 526 q 258 433 272 471 q 243 353 243 396 m 426 717 q 566 688 500 717 q 682 608 632 658 q 761 492 732 558 q 790 353 790 426 q 761 213 790 279 q 682 97 732 147 q 566 18 632 47 q 426 -11 500 -11 q 287 18 353 -11 q 171 97 221 47 q 92 213 121 147 q 63 353 63 279 q 92 492 63 426 q 171 608 121 558 q 287 688 221 658 q 426 717 353 717 m 165 935 l 700 935 l 688 817 l 153 817 l 165 935 z "},"ū":{"ha":776,"x_min":76,"x_max":679,"o":"m 117 935 l 651 935 l 639 817 l 104 817 l 117 935 m 297 -11 q 174 19 218 -11 q 108 98 129 49 q 81 210 86 147 q 76 338 76 272 l 76 706 l 250 706 l 250 397 q 251 285 250 332 q 262 207 253 238 q 290 162 271 176 q 343 147 308 147 q 384 153 361 147 q 429 167 407 158 q 472 188 451 176 q 506 213 492 200 l 506 706 l 679 706 l 679 0 l 515 -11 l 506 97 q 465 55 490 75 q 411 20 440 35 q 352 -3 382 6 q 297 -11 322 -11 z "},"ħ":{"ha":806,"x_min":0,"x_max":722,"o":"m 500 717 q 617 690 572 717 q 684 617 661 664 q 715 507 707 571 q 722 368 722 443 l 722 0 l 547 0 l 547 308 q 546 421 547 374 q 535 499 544 468 q 508 544 526 529 q 454 558 489 558 q 410 552 433 558 q 365 537 388 546 q 324 516 343 528 q 292 493 306 504 l 292 0 l 118 0 l 118 818 l 0 818 l 13 919 l 118 919 l 118 1042 l 292 1053 l 292 919 l 414 919 l 401 818 l 292 818 l 292 608 q 331 646 308 626 q 381 681 354 665 q 438 707 408 697 q 500 717 468 717 z "},"ŧ":{"ha":547,"x_min":40,"x_max":485,"o":"m 332 547 l 332 463 l 482 463 l 469 354 l 332 354 l 332 321 q 335 215 332 254 q 350 154 339 175 q 383 128 361 133 q 440 122 404 122 l 440 8 q 417 -1 429 3 q 391 -8 406 -6 q 361 -11 376 -11 q 300 -2 335 -11 q 234 33 265 7 q 181 106 203 60 q 158 226 158 151 l 158 354 l 40 354 l 53 463 l 158 463 l 158 547 l 49 547 l 49 706 l 158 706 l 158 944 l 332 944 l 332 706 l 485 706 l 463 547 l 332 547 z "},"Ħ":{"ha":1019,"x_min":-12,"x_max":1032,"o":"m 0 793 l 132 793 l 132 944 l 321 944 l 321 793 l 699 793 l 699 944 l 888 944 l 888 793 l 1032 793 l 1019 706 l 888 706 l 888 0 l 699 0 l 699 392 l 321 392 l 321 0 l 132 0 l 132 706 l -12 706 l 0 793 m 699 565 l 699 706 l 321 706 l 321 565 l 699 565 z "},"Đ":{"ha":1000,"x_min":0,"x_max":924,"o":"m 13 550 l 132 550 l 132 944 l 447 944 q 645 911 557 944 q 795 816 733 878 q 890 666 857 754 q 924 468 924 578 q 890 275 924 361 q 795 128 857 189 q 645 33 733 67 q 447 0 557 0 l 132 0 l 132 432 l 0 432 l 13 550 m 419 174 q 563 189 503 174 q 660 239 622 204 q 717 330 699 274 q 735 468 735 386 q 713 612 735 554 q 649 705 690 669 q 549 756 607 740 q 419 771 490 771 l 321 771 l 321 550 l 547 550 l 535 432 l 321 432 l 321 174 l 419 174 z "},"đ":{"ha":863,"x_min":49,"x_max":890,"o":"m 503 915 l 592 915 l 592 1042 l 765 1053 l 765 915 l 890 915 l 878 828 l 765 828 l 765 0 l 592 0 l 592 108 q 539 44 567 68 q 485 8 511 21 q 434 -8 458 -4 q 393 -11 410 -11 q 260 19 322 -11 q 151 100 197 49 q 76 218 104 151 q 49 358 49 285 q 79 502 49 436 q 158 616 110 568 q 269 690 207 664 q 393 717 331 717 q 432 715 410 717 q 480 706 454 713 q 534 683 506 699 q 592 643 563 668 l 592 828 l 490 828 l 503 915 m 222 353 q 237 272 222 310 q 278 207 251 235 q 339 163 304 179 q 414 147 374 147 q 490 163 454 147 q 551 207 525 179 q 592 272 576 235 q 607 353 607 310 q 592 433 607 396 q 551 499 576 471 q 490 542 525 526 q 414 558 454 558 q 339 542 374 558 q 278 499 304 526 q 237 433 251 471 q 222 353 222 396 z "},"Ł":{"ha":697,"x_min":49,"x_max":690,"o":"m 160 308 l 49 221 l 49 365 l 160 453 l 160 944 l 349 944 l 349 601 l 511 731 l 511 586 l 349 457 l 349 189 l 690 189 l 671 0 l 160 0 l 160 308 z "},"ł":{"ha":465,"x_min":35,"x_max":431,"o":"m 319 1053 l 319 678 l 431 771 l 431 622 l 319 529 l 319 0 l 146 0 l 146 383 l 35 290 l 35 439 l 146 532 l 146 1042 l 319 1053 m 146 1042 l 319 1053 l 319 0 l 146 0 l 146 1042 z "},"Ģ":{"ha":1001,"x_min":76,"x_max":897,"o":"m 435 -336 q 451 -274 444 -300 q 462 -222 458 -249 q 467 -160 465 -194 q 468 -71 468 -125 l 633 -60 q 602 -221 633 -146 q 526 -358 571 -296 l 435 -336 m 590 481 l 892 481 l 892 108 q 740 15 826 42 q 554 -11 654 -11 q 368 27 456 -11 q 216 131 281 65 q 114 284 151 196 q 76 472 76 372 q 114 660 76 572 q 216 814 151 749 q 368 917 281 879 q 554 956 456 956 q 744 917 657 956 q 897 808 831 878 l 761 688 q 669 757 721 732 q 554 782 617 782 q 442 758 494 782 q 350 691 389 733 q 288 592 311 649 q 265 472 265 536 q 288 352 265 408 q 350 253 311 296 q 442 187 389 211 q 554 163 494 163 q 640 171 599 163 q 717 200 681 179 l 717 321 l 567 321 l 590 481 z "},"Ķ":{"ha":919,"x_min":132,"x_max":885,"o":"m 333 -336 q 350 -274 343 -300 q 360 -222 357 -249 q 365 -160 364 -194 q 367 -71 367 -125 l 532 -60 q 501 -221 532 -146 q 425 -358 469 -296 l 333 -336 m 389 500 l 321 438 l 321 0 l 132 0 l 132 944 l 321 956 l 321 644 l 625 944 l 885 944 l 533 629 l 857 0 l 647 0 l 389 500 z "},"Ļ":{"ha":669,"x_min":132,"x_max":663,"o":"m 283 -336 q 300 -274 293 -300 q 310 -222 307 -249 q 315 -160 314 -194 q 317 -71 317 -125 l 482 -60 q 451 -221 482 -146 q 375 -358 419 -296 l 283 -336 m 132 944 l 321 944 l 321 189 l 663 189 l 643 0 l 132 0 l 132 944 z "},"Ņ":{"ha":1024,"x_min":132,"x_max":892,"o":"m 417 -336 q 433 -274 426 -300 q 444 -222 440 -249 q 449 -160 447 -194 q 450 -71 450 -125 l 615 -60 q 584 -221 615 -146 q 508 -358 553 -296 l 417 -336 m 132 933 l 306 956 l 732 326 l 732 944 l 892 944 l 892 11 l 732 -11 l 306 624 l 306 0 l 132 0 l 132 933 z "},"Ŗ":{"ha":879,"x_min":132,"x_max":803,"o":"m 329 -336 q 346 -274 339 -300 q 356 -222 353 -249 q 361 -160 360 -194 q 363 -71 363 -125 l 528 -60 q 497 -221 528 -146 q 421 -358 465 -296 l 329 -336 m 801 647 q 748 481 801 551 q 610 379 694 411 l 803 11 l 618 -11 l 424 357 l 321 357 l 321 0 l 132 0 l 132 944 l 476 944 q 612 921 551 944 q 714 857 672 897 q 778 763 756 817 q 801 647 801 708 m 321 519 l 449 519 q 526 531 494 519 q 576 559 557 542 q 604 599 596 576 q 613 647 613 622 q 576 737 613 703 q 449 771 540 771 l 321 771 l 321 519 z "},"Ţ":{"ha":717,"x_min":49,"x_max":668,"o":"m 240 -336 q 257 -274 250 -300 q 267 -222 264 -249 q 272 -160 271 -194 q 274 -71 274 -125 l 439 -60 q 408 -221 439 -146 q 332 -358 376 -296 l 240 -336 m 49 944 l 668 944 l 668 771 l 453 771 l 453 0 l 264 -11 l 264 771 l 49 771 l 49 944 z "},"Ș":{"ha":715,"x_min":63,"x_max":660,"o":"m 272 -336 q 289 -274 282 -300 q 299 -222 296 -249 q 304 -160 303 -194 q 306 -71 306 -125 l 471 -60 q 440 -221 471 -146 q 364 -358 408 -296 l 272 -336 m 367 956 q 463 942 415 956 q 546 911 510 928 q 628 868 589 892 l 528 728 q 465 767 500 753 q 376 782 429 782 q 299 757 324 782 q 274 703 274 732 q 310 622 274 658 q 421 543 347 586 q 526 476 481 507 q 601 409 571 444 q 645 331 631 374 q 660 228 660 288 q 634 119 660 164 q 567 44 608 74 q 472 2 525 15 q 367 -11 419 -11 q 245 9 300 -11 q 150 54 190 29 q 63 119 103 82 l 183 239 q 233 200 206 217 q 289 174 257 185 q 361 163 321 163 q 440 183 410 163 q 471 244 471 204 q 460 292 471 272 q 428 329 449 313 q 379 362 408 346 q 315 397 350 378 q 229 452 271 422 q 156 521 188 482 q 104 608 124 560 q 85 717 85 656 q 101 799 85 757 q 152 876 118 842 q 240 933 186 911 q 367 956 293 956 z "},"Ŧ":{"ha":717,"x_min":49,"x_max":668,"o":"m 97 561 l 264 561 l 264 771 l 49 771 l 49 944 l 668 944 l 668 771 l 453 771 l 453 561 l 632 561 l 619 443 l 453 443 l 453 0 l 264 -11 l 264 443 l 85 443 l 97 561 z "},"ģ":{"ha":869,"x_min":63,"x_max":779,"o":"m 524 1082 q 506 1020 513 1046 q 497 967 500 994 q 492 906 493 940 q 490 817 490 871 l 325 806 q 356 967 325 892 q 432 1104 388 1042 l 524 1082 m 606 63 q 548 22 576 38 q 494 0 519 7 q 446 -9 468 -7 q 407 -11 424 -11 q 283 15 344 -11 q 172 90 221 42 q 93 203 124 138 q 63 347 63 269 q 90 488 63 421 q 165 606 118 554 q 274 687 211 657 q 407 717 336 717 q 448 713 424 717 q 499 697 472 710 q 553 661 525 685 q 606 597 581 638 l 606 706 l 779 717 l 779 14 q 749 -165 779 -93 q 666 -279 718 -236 q 547 -340 614 -322 q 407 -358 479 -358 q 335 -354 371 -358 q 267 -340 299 -350 q 207 -312 235 -329 q 158 -272 179 -296 l 278 -153 q 332 -192 303 -185 q 407 -200 361 -200 q 501 -188 463 -200 q 563 -151 539 -176 q 596 -85 586 -125 q 606 14 606 -44 l 606 63 m 236 353 q 251 272 236 310 q 292 207 265 235 q 353 163 318 179 q 428 147 388 147 q 503 163 468 147 q 565 207 539 179 q 606 272 590 235 q 621 353 621 310 q 606 433 621 396 q 565 499 590 471 q 503 542 539 526 q 428 558 468 558 q 353 542 388 558 q 292 499 318 526 q 251 433 265 471 q 236 353 236 396 z "},"ķ":{"ha":761,"x_min":118,"x_max":747,"o":"m 285 -336 q 301 -274 294 -300 q 312 -222 308 -249 q 317 -160 315 -194 q 318 -71 318 -125 l 483 -60 q 452 -221 483 -146 q 376 -358 421 -296 l 285 -336 m 360 381 l 292 319 l 292 0 l 118 0 l 118 944 l 292 956 l 292 500 l 514 706 l 731 706 l 499 488 l 747 0 l 556 0 l 360 381 z "},"ļ":{"ha":410,"x_min":103,"x_max":306,"o":"m 103 -336 q 119 -274 113 -300 q 130 -222 126 -249 q 135 -160 133 -194 q 136 -71 136 -125 l 301 -60 q 270 -221 301 -146 q 194 -358 239 -296 l 103 -336 m 132 1042 l 306 1053 l 306 0 l 132 0 l 132 1042 z "},"ņ":{"ha":821,"x_min":104,"x_max":738,"o":"m 306 -336 q 322 -274 315 -300 q 333 -222 329 -249 q 338 -160 336 -194 q 339 -71 339 -125 l 504 -60 q 473 -221 504 -146 q 397 -358 442 -296 l 306 -336 m 531 717 q 650 687 608 717 q 711 608 692 657 q 734 496 731 558 q 738 369 738 433 l 738 0 l 564 0 l 564 308 q 563 421 564 374 q 552 499 561 468 q 524 544 543 529 q 471 558 506 558 q 361 542 413 558 q 278 493 310 525 l 278 0 l 104 0 l 104 706 l 269 717 l 278 608 q 390 683 324 650 q 531 717 457 717 z "},"ș":{"ha":594,"x_min":69,"x_max":539,"o":"m 210 -336 q 226 -274 219 -300 q 237 -222 233 -249 q 242 -160 240 -194 q 243 -71 243 -125 l 408 -60 q 377 -221 408 -146 q 301 -358 346 -296 l 210 -336 m 307 717 q 397 705 358 717 q 464 678 436 693 q 519 640 496 661 l 400 522 q 378 540 392 532 q 349 553 367 547 q 303 558 331 558 q 265 546 279 558 q 250 514 250 533 q 284 468 250 489 q 364 421 318 447 q 426 383 394 404 q 482 333 457 361 q 523 267 507 304 q 539 183 539 231 q 520 103 539 139 q 469 42 501 67 q 395 3 438 17 q 307 -11 353 -11 q 215 3 258 -11 q 139 38 171 18 q 69 88 101 60 l 185 200 q 217 174 199 185 q 254 155 232 163 q 304 147 276 147 q 349 160 332 147 q 365 196 365 172 q 339 247 365 228 q 274 292 313 267 q 212 330 246 310 q 147 378 178 350 q 97 447 117 407 q 76 543 76 486 q 91 601 76 571 q 135 658 106 632 q 207 700 164 683 q 307 717 250 717 z "},"ŗ":{"ha":586,"x_min":78,"x_max":579,"o":"m 78 -336 q 94 -274 88 -300 q 105 -222 101 -249 q 110 -160 108 -194 q 111 -71 111 -125 l 276 -60 q 245 -221 276 -146 q 169 -358 214 -296 l 78 -336 m 478 549 q 463 553 471 550 q 446 557 456 556 q 424 558 436 558 q 346 538 386 558 q 278 493 306 518 l 278 0 l 104 0 l 104 706 l 269 717 l 278 608 q 317 651 293 631 q 367 685 340 671 q 424 708 394 700 q 478 717 453 717 q 531 712 507 717 q 579 697 556 707 l 478 549 z "},"ţ":{"ha":547,"x_min":49,"x_max":485,"o":"m 172 -336 q 189 -274 182 -300 q 199 -222 196 -249 q 204 -160 203 -194 q 206 -71 206 -125 l 371 -60 q 340 -221 371 -146 q 264 -358 308 -296 l 172 -336 m 332 547 l 332 321 q 335 215 332 254 q 350 154 339 175 q 383 128 361 133 q 440 122 404 122 l 440 8 q 417 -1 429 3 q 391 -8 406 -6 q 361 -11 376 -11 q 300 -2 335 -11 q 234 33 265 7 q 181 106 203 60 q 158 226 158 151 l 158 547 l 49 547 l 49 706 l 158 706 l 158 944 l 332 944 l 332 706 l 485 706 l 463 547 l 332 547 z "},"ĺ":{"ha":410,"x_min":97,"x_max":410,"o":"m 132 944 l 306 956 l 306 0 l 132 0 l 132 944 m 97 1083 q 180 1151 146 1113 q 236 1225 214 1189 q 279 1310 261 1267 l 410 1181 q 277 1081 349 1119 q 129 1031 206 1043 l 97 1083 z "},"π":{"ha":1025,"x_min":132,"x_max":893,"o":"m 260 553 q 202 542 226 549 q 163 528 178 535 q 132 513 144 521 l 132 671 q 189 693 157 683 q 253 709 217 701 q 336 717 290 717 q 424 702 376 717 q 518 671 471 688 q 610 640 565 654 q 689 625 654 625 q 771 632 733 625 q 836 647 808 639 q 893 671 868 657 l 893 513 q 854 496 876 503 q 809 482 835 489 q 751 471 783 475 l 751 0 l 594 0 l 594 482 q 513 510 554 493 q 433 539 472 526 l 433 0 l 260 0 l 260 553 z "},"◊":{"ha":900,"x_min":63,"x_max":838,"o":"m 838 472 l 450 -11 l 63 472 l 450 956 l 838 472 m 450 686 l 278 472 l 450 257 l 622 472 l 450 686 z "},"∫":{"ha":743,"x_min":132,"x_max":611,"o":"m 321 707 q 350 847 329 783 q 406 957 371 911 q 493 1028 442 1003 q 611 1053 544 1053 l 611 894 q 494 707 513 894 l 422 -12 q 393 -153 414 -90 q 337 -262 372 -217 q 250 -333 301 -308 q 132 -358 199 -358 l 132 -200 q 249 -12 229 -200 l 321 707 z "},"√":{"ha":1288,"x_min":132,"x_max":1156,"o":"m 132 246 q 154 340 133 292 q 214 427 175 388 q 308 492 253 467 q 435 518 364 518 l 631 106 l 965 1031 l 1156 1053 l 631 -358 l 317 336 q 242 313 274 331 q 208 246 211 294 l 132 246 z "},"∞":{"ha":1285,"x_min":132,"x_max":1153,"o":"m 410 63 q 303 81 354 63 q 215 135 253 100 q 154 219 176 169 q 132 328 132 268 q 154 437 132 388 q 215 521 176 486 q 303 574 253 556 q 410 593 354 593 q 531 558 478 593 q 626 474 585 524 l 553 372 q 490 433 522 413 q 410 454 458 454 q 370 444 389 454 q 337 416 351 433 q 314 376 322 399 q 306 328 306 353 q 314 280 306 303 q 337 240 322 257 q 370 212 351 222 q 410 201 389 201 q 487 230 451 201 q 557 301 522 258 q 627 395 592 344 q 703 489 663 446 q 792 560 744 532 q 899 589 839 589 q 998 570 951 589 q 1078 517 1044 551 q 1133 435 1113 483 q 1153 328 1153 388 q 1133 220 1153 268 q 1078 138 1113 172 q 998 85 1044 104 q 899 67 951 67 q 694 178 786 67 l 769 282 q 833 226 796 247 q 899 206 869 206 q 957 242 935 206 q 979 328 979 279 q 957 413 979 376 q 899 450 935 450 q 833 422 864 450 q 769 350 801 393 q 701 256 736 307 q 622 163 665 206 q 527 91 579 119 q 410 63 475 63 z "},"∆":{"ha":976,"x_min":63,"x_max":914,"o":"m 488 956 l 914 0 l 63 0 l 488 956 m 317 158 l 636 158 l 478 522 l 317 158 z "},"∏":{"ha":1019,"x_min":132,"x_max":888,"o":"m 700 772 l 319 772 l 319 -347 l 132 -347 l 132 944 l 888 944 l 888 -347 l 700 -347 l 700 772 z "},"∑":{"ha":861,"x_min":132,"x_max":729,"o":"m 432 354 l 132 1042 l 707 1042 l 707 883 l 401 883 l 619 368 l 390 -175 l 729 -175 l 707 -347 l 132 -347 l 432 354 z "},"Ω":{"ha":1219,"x_min":132,"x_max":1088,"o":"m 701 160 q 793 208 753 181 q 860 272 833 235 q 900 360 886 310 q 914 478 914 410 q 892 604 914 546 q 831 706 871 663 q 735 773 792 749 q 610 797 679 797 q 484 773 540 797 q 388 706 428 749 q 327 604 349 663 q 306 478 306 546 q 319 360 306 410 q 360 272 333 310 q 426 208 386 235 q 518 160 465 181 l 539 0 l 153 0 l 132 158 l 272 158 q 169 296 207 217 q 132 474 132 375 q 170 659 132 571 q 273 813 208 747 q 424 917 338 878 q 610 956 511 956 q 794 917 707 956 q 947 813 882 878 q 1049 659 1011 747 q 1088 474 1088 571 q 1050 296 1088 375 q 947 158 1013 217 l 1088 158 l 1067 0 l 681 0 l 701 160 z "},"ŉ":{"ha":842,"x_min":-26,"x_max":758,"o":"m -26 771 q -8 833 -17 807 q 8 888 1 860 q 17 952 14 917 q 21 1042 21 988 l 158 1053 q 131 889 158 967 q 58 749 103 811 l -26 771 m 551 717 q 671 687 629 717 q 732 608 713 657 q 755 496 751 558 q 758 369 758 433 l 758 0 l 585 0 l 585 308 q 583 421 585 374 q 573 499 582 468 q 545 544 564 529 q 492 558 526 558 q 382 542 433 558 q 299 493 331 525 l 299 0 l 125 0 l 125 706 l 290 717 l 299 608 q 411 683 344 650 q 551 717 478 717 z "},"ĸ":{"ha":761,"x_min":118,"x_max":747,"o":"m 347 410 q 319 398 339 406 q 292 388 299 390 l 292 0 l 118 0 l 118 944 l 292 956 l 292 494 q 349 522 314 504 q 419 566 385 540 q 480 626 453 592 q 514 706 507 661 l 700 706 q 685 645 700 676 q 642 584 669 614 q 580 527 615 554 q 504 479 544 500 l 747 0 l 556 0 l 347 410 z "},"M":{"ha":1132,"x_min":63,"x_max":1083,"o":"m 1083 11 l 894 -11 l 819 551 l 638 -11 l 508 -11 l 313 554 l 251 -11 l 63 11 l 194 956 l 349 956 l 583 336 l 797 956 l 951 956 l 1083 11 z "},"a":{"ha":876,"x_min":63,"x_max":779,"o":"m 63 358 q 93 502 63 436 q 172 616 124 568 q 283 690 221 664 q 407 717 344 717 q 446 715 424 717 q 494 706 468 713 q 548 683 519 699 q 606 643 576 668 l 606 706 l 779 717 l 779 0 l 606 0 l 606 108 q 553 44 581 68 q 499 8 525 21 q 448 -8 472 -4 q 407 -11 424 -11 q 274 19 336 -11 q 165 100 211 49 q 90 218 118 151 q 63 358 63 285 m 236 353 q 251 272 236 310 q 292 207 265 235 q 353 163 318 179 q 428 147 388 147 q 503 163 468 147 q 565 207 539 179 q 606 272 590 235 q 621 353 621 310 q 606 433 621 396 q 565 499 590 471 q 503 542 539 526 q 428 558 468 558 q 353 542 388 558 q 292 499 318 526 q 251 433 265 471 q 236 353 236 396 z "},"e":{"ha":800,"x_min":63,"x_max":758,"o":"m 682 97 q 565 17 632 46 q 421 -11 499 -11 q 282 17 347 -11 q 168 95 217 46 q 91 211 119 144 q 63 353 63 278 q 91 494 63 428 q 168 610 119 561 q 282 688 217 660 q 421 717 347 717 q 486 710 450 717 q 560 687 522 704 q 633 640 597 669 q 697 566 668 611 q 742 456 725 521 q 758 306 758 392 l 240 306 q 305 192 256 236 q 421 147 354 147 q 565 214 507 147 l 682 97 m 421 558 q 319 524 364 558 q 251 438 274 490 l 579 438 q 551 496 569 472 q 511 533 533 519 q 465 553 489 547 q 421 558 442 558 z "},"&":{"ha":963,"x_min":132,"x_max":831,"o":"m 678 560 l 831 560 l 808 401 l 700 401 l 700 286 q 702 233 700 261 q 715 179 704 204 q 747 138 725 154 q 808 122 768 122 l 808 8 q 792 -1 801 3 q 743 -11 772 -11 q 685 -3 722 -11 q 613 27 649 4 q 552 92 578 50 q 526 204 526 135 l 526 401 l 439 401 q 355 368 390 401 q 319 276 319 335 q 329 226 319 247 q 353 190 339 204 q 386 168 368 175 q 419 161 404 161 q 458 167 447 161 q 468 175 468 174 l 553 38 q 495 1 528 14 q 422 -11 463 -11 q 310 11 363 -11 q 217 71 257 33 q 155 159 178 108 q 132 268 132 210 q 165 394 132 338 q 250 488 197 451 q 188 573 210 524 q 165 682 165 622 q 187 789 165 739 q 245 876 208 839 q 332 934 282 913 q 439 956 382 956 q 615 883 553 956 q 678 654 678 810 l 678 560 m 353 682 q 358 638 353 660 q 376 599 364 617 q 406 571 388 582 q 453 560 425 560 l 526 560 l 526 626 q 510 748 526 713 q 439 783 493 783 q 378 760 404 783 q 353 682 353 736 z "},"á":{"ha":876,"x_min":63,"x_max":779,"o":"m 63 358 q 93 502 63 436 q 172 616 124 568 q 283 690 221 664 q 407 717 344 717 q 446 715 424 717 q 494 706 468 713 q 548 683 519 699 q 606 643 576 668 l 606 706 l 779 717 l 779 0 l 606 0 l 606 108 q 553 44 581 68 q 499 8 525 21 q 448 -8 472 -4 q 407 -11 424 -11 q 274 19 336 -11 q 165 100 211 49 q 90 218 118 151 q 63 358 63 285 m 236 353 q 251 272 236 310 q 292 207 265 235 q 353 163 318 179 q 428 147 388 147 q 503 163 468 147 q 565 207 539 179 q 606 272 590 235 q 621 353 621 310 q 606 433 621 396 q 565 499 590 471 q 503 542 539 526 q 428 558 468 558 q 353 542 388 558 q 292 499 318 526 q 251 433 265 471 q 236 353 236 396 m 296 858 q 378 926 344 888 q 435 1000 413 964 q 478 1085 460 1042 l 608 956 q 476 856 547 894 q 328 806 404 818 l 296 858 z "},"à":{"ha":876,"x_min":63,"x_max":779,"o":"m 63 358 q 93 502 63 436 q 172 616 124 568 q 283 690 221 664 q 407 717 344 717 q 446 715 424 717 q 494 706 468 713 q 548 683 519 699 q 606 643 576 668 l 606 706 l 779 717 l 779 0 l 606 0 l 606 108 q 553 44 581 68 q 499 8 525 21 q 448 -8 472 -4 q 407 -11 424 -11 q 274 19 336 -11 q 165 100 211 49 q 90 218 118 151 q 63 358 63 285 m 236 353 q 251 272 236 310 q 292 207 265 235 q 353 163 318 179 q 428 147 388 147 q 503 163 468 147 q 565 207 539 179 q 606 272 590 235 q 621 353 621 310 q 606 433 621 396 q 565 499 590 471 q 503 542 539 526 q 428 558 468 558 q 353 542 388 558 q 292 499 318 526 q 251 433 265 471 q 236 353 236 396 m 551 806 q 403 856 475 818 q 271 956 332 894 l 401 1085 q 444 1000 419 1042 q 501 926 467 964 q 583 858 535 888 l 551 806 z "},"ă":{"ha":876,"x_min":63,"x_max":779,"o":"m 63 358 q 93 502 63 436 q 172 616 124 568 q 283 690 221 664 q 407 717 344 717 q 446 715 424 717 q 494 706 468 713 q 548 683 519 699 q 606 643 576 668 l 606 706 l 779 717 l 779 0 l 606 0 l 606 108 q 553 44 581 68 q 499 8 525 21 q 448 -8 472 -4 q 407 -11 424 -11 q 274 19 336 -11 q 165 100 211 49 q 90 218 118 151 q 63 358 63 285 m 236 353 q 251 272 236 310 q 292 207 265 235 q 353 163 318 179 q 428 147 388 147 q 503 163 468 147 q 565 207 539 179 q 606 272 590 235 q 621 353 621 310 q 606 433 621 396 q 565 499 590 471 q 503 542 539 526 q 428 558 468 558 q 353 542 388 558 q 292 499 318 526 q 251 433 265 471 q 236 353 236 396 m 367 997 q 388 931 367 949 q 438 914 408 914 q 488 931 467 914 q 508 997 508 949 l 579 1017 q 583 993 582 1008 q 583 969 583 978 q 546 851 583 897 q 438 806 508 806 q 329 851 367 806 q 292 969 292 897 q 292 993 292 978 q 296 1017 293 1008 l 367 997 z "},"â":{"ha":876,"x_min":63,"x_max":779,"o":"m 63 358 q 93 502 63 436 q 172 616 124 568 q 283 690 221 664 q 407 717 344 717 q 446 715 424 717 q 494 706 468 713 q 548 683 519 699 q 606 643 576 668 l 606 706 l 779 717 l 779 0 l 606 0 l 606 108 q 553 44 581 68 q 499 8 525 21 q 448 -8 472 -4 q 407 -11 424 -11 q 274 19 336 -11 q 165 100 211 49 q 90 218 118 151 q 63 358 63 285 m 236 353 q 251 272 236 310 q 292 207 265 235 q 353 163 318 179 q 428 147 388 147 q 503 163 468 147 q 565 207 539 179 q 606 272 590 235 q 621 353 621 310 q 606 433 621 396 q 565 499 590 471 q 503 542 539 526 q 428 558 468 558 q 353 542 388 558 q 292 499 318 526 q 251 433 265 471 q 236 353 236 396 m 438 1053 l 621 864 l 585 806 l 438 890 l 290 806 l 254 864 l 438 1053 z "},"ä":{"ha":876,"x_min":63,"x_max":779,"o":"m 63 358 q 93 502 63 436 q 172 616 124 568 q 283 690 221 664 q 407 717 344 717 q 446 715 424 717 q 494 706 468 713 q 548 683 519 699 q 606 643 576 668 l 606 706 l 779 717 l 779 0 l 606 0 l 606 108 q 553 44 581 68 q 499 8 525 21 q 448 -8 472 -4 q 407 -11 424 -11 q 274 19 336 -11 q 165 100 211 49 q 90 218 118 151 q 63 358 63 285 m 236 353 q 251 272 236 310 q 292 207 265 235 q 353 163 318 179 q 428 147 388 147 q 503 163 468 147 q 565 207 539 179 q 606 272 590 235 q 621 353 621 310 q 606 433 621 396 q 565 499 590 471 q 503 542 539 526 q 428 558 468 558 q 353 542 388 558 q 292 499 318 526 q 251 433 265 471 q 236 353 236 396 m 210 921 q 237 987 210 960 q 303 1014 264 1014 q 369 987 342 1014 q 396 921 396 960 q 369 855 396 882 q 303 828 342 828 q 237 855 264 828 q 210 921 210 882 m 479 921 q 506 987 479 960 q 572 1014 533 1014 q 638 987 611 1014 q 665 921 665 960 q 638 855 665 882 q 572 828 611 828 q 506 855 533 828 q 479 921 479 882 z "},"ā":{"ha":876,"x_min":63,"x_max":779,"o":"m 63 358 q 93 502 63 436 q 172 616 124 568 q 283 690 221 664 q 407 717 344 717 q 446 715 424 717 q 494 706 468 713 q 548 683 519 699 q 606 643 576 668 l 606 706 l 779 717 l 779 0 l 606 0 l 606 108 q 553 44 581 68 q 499 8 525 21 q 448 -8 472 -4 q 407 -11 424 -11 q 274 19 336 -11 q 165 100 211 49 q 90 218 118 151 q 63 358 63 285 m 236 353 q 251 272 236 310 q 292 207 265 235 q 353 163 318 179 q 428 147 388 147 q 503 163 468 147 q 565 207 539 179 q 606 272 590 235 q 621 353 621 310 q 606 433 621 396 q 565 499 590 471 q 503 542 539 526 q 428 558 468 558 q 353 542 388 558 q 292 499 318 526 q 251 433 265 471 q 236 353 236 396 m 176 935 l 711 935 l 699 817 l 164 817 l 176 935 z "},"ą":{"ha":876,"x_min":63,"x_max":829,"o":"m 606 0 l 606 108 q 553 44 581 68 q 499 8 525 21 q 448 -8 472 -4 q 407 -11 424 -11 q 274 19 336 -11 q 165 100 211 49 q 90 218 118 151 q 63 358 63 285 q 93 502 63 436 q 172 616 124 568 q 283 690 221 664 q 407 717 344 717 q 446 715 424 717 q 494 706 468 713 q 548 683 519 699 q 606 643 576 668 l 606 706 l 779 717 l 779 0 q 732 -51 753 -25 q 700 -103 714 -75 q 686 -160 686 -131 q 697 -196 686 -178 q 729 -214 707 -214 q 754 -208 743 -214 q 761 -201 760 -206 l 829 -312 q 797 -342 819 -326 q 729 -358 774 -358 q 669 -346 697 -358 q 619 -312 642 -333 q 585 -261 597 -290 q 572 -197 572 -232 q 585 -135 572 -164 q 617 -81 599 -106 q 658 -35 636 -56 q 700 0 681 -15 l 606 0 m 236 353 q 251 272 236 310 q 292 207 265 235 q 353 163 318 179 q 428 147 388 147 q 503 163 468 147 q 565 207 539 179 q 606 272 590 235 q 621 353 621 310 q 606 433 621 396 q 565 499 590 471 q 503 542 539 526 q 428 558 468 558 q 353 542 388 558 q 292 499 318 526 q 251 433 265 471 q 236 353 236 396 z "},"å":{"ha":876,"x_min":63,"x_max":779,"o":"m 63 358 q 93 502 63 436 q 172 616 124 568 q 283 690 221 664 q 407 717 344 717 q 446 715 424 717 q 494 706 468 713 q 548 683 519 699 q 606 643 576 668 l 606 706 l 779 717 l 779 0 l 606 0 l 606 108 q 553 44 581 68 q 499 8 525 21 q 448 -8 472 -4 q 407 -11 424 -11 q 274 19 336 -11 q 165 100 211 49 q 90 218 118 151 q 63 358 63 285 m 236 353 q 251 272 236 310 q 292 207 265 235 q 353 163 318 179 q 428 147 388 147 q 503 163 468 147 q 565 207 539 179 q 606 272 590 235 q 621 353 621 310 q 606 433 621 396 q 565 499 590 471 q 503 542 539 526 q 428 558 468 558 q 353 542 388 558 q 292 499 318 526 q 251 433 265 471 q 236 353 236 396 m 293 949 q 304 1004 293 978 q 335 1050 315 1031 q 381 1081 354 1069 q 436 1092 407 1092 q 492 1081 465 1092 q 538 1050 518 1069 q 569 1004 558 1031 q 581 949 581 978 q 569 893 581 919 q 538 847 558 867 q 492 817 518 828 q 436 806 465 806 q 381 817 407 806 q 335 847 354 828 q 304 893 315 867 q 293 949 293 919 m 389 949 q 403 915 389 929 q 438 900 418 900 q 472 915 457 900 q 486 949 486 929 q 472 983 486 968 q 438 997 457 997 q 403 983 418 997 q 389 949 389 968 z "},"ã":{"ha":876,"x_min":63,"x_max":779,"o":"m 63 358 q 93 502 63 436 q 172 616 124 568 q 283 690 221 664 q 407 717 344 717 q 446 715 424 717 q 494 706 468 713 q 548 683 519 699 q 606 643 576 668 l 606 706 l 779 717 l 779 0 l 606 0 l 606 108 q 553 44 581 68 q 499 8 525 21 q 448 -8 472 -4 q 407 -11 424 -11 q 274 19 336 -11 q 165 100 211 49 q 90 218 118 151 q 63 358 63 285 m 236 353 q 251 272 236 310 q 292 207 265 235 q 353 163 318 179 q 428 147 388 147 q 503 163 468 147 q 565 207 539 179 q 606 272 590 235 q 621 353 621 310 q 606 433 621 396 q 565 499 590 471 q 503 542 539 526 q 428 558 468 558 q 353 542 388 558 q 292 499 318 526 q 251 433 265 471 q 236 353 236 396 m 721 1003 q 713 943 719 978 q 692 876 707 908 q 647 821 676 843 q 571 799 618 799 q 501 815 538 799 q 428 852 464 832 q 360 889 392 872 q 304 906 328 906 q 265 897 281 906 q 241 876 250 889 q 228 851 232 864 q 222 828 224 838 l 154 828 q 162 888 156 853 q 183 955 168 922 q 228 1010 199 988 q 304 1032 257 1032 q 375 1015 338 1032 q 449 978 413 999 q 516 942 485 958 q 571 925 547 925 q 610 933 594 925 q 634 954 625 942 q 647 980 643 967 q 653 1003 651 993 l 721 1003 z "},"é":{"ha":800,"x_min":63,"x_max":758,"o":"m 682 97 q 565 17 632 46 q 421 -11 499 -11 q 282 17 347 -11 q 168 95 217 46 q 91 211 119 144 q 63 353 63 278 q 91 494 63 428 q 168 610 119 561 q 282 688 217 660 q 421 717 347 717 q 486 710 450 717 q 560 687 522 704 q 633 640 597 669 q 697 566 668 611 q 742 456 725 521 q 758 306 758 392 l 240 306 q 305 192 256 236 q 421 147 354 147 q 565 214 507 147 l 682 97 m 421 558 q 319 524 364 558 q 251 438 274 490 l 579 438 q 551 496 569 472 q 511 533 533 519 q 465 553 489 547 q 421 558 442 558 m 261 858 q 344 926 310 888 q 400 1000 378 964 q 443 1085 425 1042 l 574 956 q 441 856 513 894 q 293 806 369 818 l 261 858 z "},"ĕ":{"ha":800,"x_min":63,"x_max":758,"o":"m 682 97 q 565 17 632 46 q 421 -11 499 -11 q 282 17 347 -11 q 168 95 217 46 q 91 211 119 144 q 63 353 63 278 q 91 494 63 428 q 168 610 119 561 q 282 688 217 660 q 421 717 347 717 q 486 710 450 717 q 560 687 522 704 q 633 640 597 669 q 697 566 668 611 q 742 456 725 521 q 758 306 758 392 l 240 306 q 305 192 256 236 q 421 147 354 147 q 565 214 507 147 l 682 97 m 421 558 q 319 524 364 558 q 251 438 274 490 l 579 438 q 551 496 569 472 q 511 533 533 519 q 465 553 489 547 q 421 558 442 558 m 350 997 q 371 931 350 949 q 421 914 392 914 q 471 931 450 914 q 492 997 492 949 l 563 1017 q 566 993 565 1008 q 567 969 567 978 q 529 851 567 897 q 421 806 492 806 q 313 851 350 806 q 275 969 275 897 q 276 993 275 978 q 279 1017 276 1008 l 350 997 z "},"ě":{"ha":800,"x_min":63,"x_max":758,"o":"m 682 97 q 565 17 632 46 q 421 -11 499 -11 q 282 17 347 -11 q 168 95 217 46 q 91 211 119 144 q 63 353 63 278 q 91 494 63 428 q 168 610 119 561 q 282 688 217 660 q 421 717 347 717 q 486 710 450 717 q 560 687 522 704 q 633 640 597 669 q 697 566 668 611 q 742 456 725 521 q 758 306 758 392 l 240 306 q 305 192 256 236 q 421 147 354 147 q 565 214 507 147 l 682 97 m 421 558 q 319 524 364 558 q 251 438 274 490 l 579 438 q 551 496 569 472 q 511 533 533 519 q 465 553 489 547 q 421 558 442 558 m 421 804 l 238 993 l 274 1051 l 421 965 l 568 1051 l 604 993 l 421 804 z "},"ê":{"ha":800,"x_min":63,"x_max":758,"o":"m 682 97 q 565 17 632 46 q 421 -11 499 -11 q 282 17 347 -11 q 168 95 217 46 q 91 211 119 144 q 63 353 63 278 q 91 494 63 428 q 168 610 119 561 q 282 688 217 660 q 421 717 347 717 q 486 710 450 717 q 560 687 522 704 q 633 640 597 669 q 697 566 668 611 q 742 456 725 521 q 758 306 758 392 l 240 306 q 305 192 256 236 q 421 147 354 147 q 565 214 507 147 l 682 97 m 421 558 q 319 524 364 558 q 251 438 274 490 l 579 438 q 551 496 569 472 q 511 533 533 519 q 465 553 489 547 q 421 558 442 558 m 421 1053 l 604 864 l 568 806 l 421 890 l 274 806 l 238 864 l 421 1053 z "},"ë":{"ha":800,"x_min":63,"x_max":758,"o":"m 682 97 q 565 17 632 46 q 421 -11 499 -11 q 282 17 347 -11 q 168 95 217 46 q 91 211 119 144 q 63 353 63 278 q 91 494 63 428 q 168 610 119 561 q 282 688 217 660 q 421 717 347 717 q 486 710 450 717 q 560 687 522 704 q 633 640 597 669 q 697 566 668 611 q 742 456 725 521 q 758 306 758 392 l 240 306 q 305 192 256 236 q 421 147 354 147 q 565 214 507 147 l 682 97 m 421 558 q 319 524 364 558 q 251 438 274 490 l 579 438 q 551 496 569 472 q 511 533 533 519 q 465 553 489 547 q 421 558 442 558 m 193 921 q 220 987 193 960 q 286 1014 247 1014 q 352 987 325 1014 q 379 921 379 960 q 352 855 379 882 q 286 828 325 828 q 220 855 247 828 q 193 921 193 882 m 463 921 q 490 987 463 960 q 556 1014 517 1014 q 622 987 594 1014 q 649 921 649 960 q 622 855 649 882 q 556 828 594 828 q 490 855 517 828 q 463 921 463 882 z "},"ė":{"ha":800,"x_min":63,"x_max":758,"o":"m 682 97 q 565 17 632 46 q 421 -11 499 -11 q 282 17 347 -11 q 168 95 217 46 q 91 211 119 144 q 63 353 63 278 q 91 494 63 428 q 168 610 119 561 q 282 688 217 660 q 421 717 347 717 q 486 710 450 717 q 560 687 522 704 q 633 640 597 669 q 697 566 668 611 q 742 456 725 521 q 758 306 758 392 l 240 306 q 305 192 256 236 q 421 147 354 147 q 565 214 507 147 l 682 97 m 421 558 q 319 524 364 558 q 251 438 274 490 l 579 438 q 551 496 569 472 q 511 533 533 519 q 465 553 489 547 q 421 558 442 558 m 328 921 q 355 987 328 960 q 421 1014 382 1014 q 487 987 460 1014 q 514 921 514 960 q 487 855 514 882 q 421 828 460 828 q 355 855 382 828 q 328 921 328 882 z "},"è":{"ha":800,"x_min":63,"x_max":758,"o":"m 682 97 q 565 17 632 46 q 421 -11 499 -11 q 282 17 347 -11 q 168 95 217 46 q 91 211 119 144 q 63 353 63 278 q 91 494 63 428 q 168 610 119 561 q 282 688 217 660 q 421 717 347 717 q 486 710 450 717 q 560 687 522 704 q 633 640 597 669 q 697 566 668 611 q 742 456 725 521 q 758 306 758 392 l 240 306 q 305 192 256 236 q 421 147 354 147 q 565 214 507 147 l 682 97 m 421 558 q 319 524 364 558 q 251 438 274 490 l 579 438 q 551 496 569 472 q 511 533 533 519 q 465 553 489 547 q 421 558 442 558 m 535 806 q 387 856 458 818 q 254 956 315 894 l 385 1085 q 428 1000 403 1042 q 484 926 450 964 q 567 858 518 888 l 535 806 z "},"ē":{"ha":800,"x_min":63,"x_max":758,"o":"m 682 97 q 565 17 632 46 q 421 -11 499 -11 q 282 17 347 -11 q 168 95 217 46 q 91 211 119 144 q 63 353 63 278 q 91 494 63 428 q 168 610 119 561 q 282 688 217 660 q 421 717 347 717 q 486 710 450 717 q 560 687 522 704 q 633 640 597 669 q 697 566 668 611 q 742 456 725 521 q 758 306 758 392 l 240 306 q 305 192 256 236 q 421 147 354 147 q 565 214 507 147 l 682 97 m 421 558 q 319 524 364 558 q 251 438 274 490 l 579 438 q 551 496 569 472 q 511 533 533 519 q 465 553 489 547 q 421 558 442 558 m 146 935 l 681 935 l 668 817 l 133 817 l 146 935 z "},"ę":{"ha":800,"x_min":63,"x_max":758,"o":"m 682 97 q 535 7 618 33 q 506 -11 525 4 q 469 -50 488 -26 q 435 -102 450 -74 q 421 -160 421 -131 q 431 -196 421 -178 q 464 -214 442 -214 q 489 -208 478 -214 q 496 -201 494 -206 l 564 -312 q 531 -342 554 -326 q 464 -358 508 -358 q 404 -346 432 -358 q 354 -312 376 -333 q 319 -261 332 -290 q 307 -197 307 -232 q 318 -140 307 -167 q 346 -89 329 -112 q 383 -46 363 -65 q 421 -11 403 -26 q 282 17 347 -11 q 168 95 217 46 q 91 211 119 144 q 63 353 63 278 q 91 494 63 428 q 168 610 119 561 q 282 688 217 660 q 421 717 347 717 q 486 710 450 717 q 560 687 522 704 q 633 640 597 669 q 697 566 668 611 q 742 456 725 521 q 758 306 758 392 l 240 306 q 305 192 256 236 q 421 147 354 147 q 565 214 507 147 l 682 97 m 421 558 q 319 524 364 558 q 251 438 274 490 l 579 438 q 551 496 569 472 q 511 533 533 519 q 465 553 489 547 q 421 558 442 558 z "},"í":{"ha":424,"x_min":60,"x_max":372,"o":"m 132 706 l 306 706 l 306 0 l 132 0 l 132 706 m 60 858 q 142 926 108 888 q 199 1000 176 964 q 242 1085 224 1042 l 372 956 q 240 856 311 894 q 92 806 168 818 l 60 858 z "},"ĭ":{"ha":424,"x_min":69,"x_max":361,"o":"m 132 706 l 306 706 l 306 0 l 132 0 l 132 706 m 144 997 q 165 931 144 949 q 215 914 186 914 q 265 931 244 914 q 286 997 286 949 l 357 1017 q 360 993 360 1008 q 361 969 361 978 q 324 851 361 897 q 215 806 286 806 q 107 851 144 806 q 69 969 69 897 q 70 993 69 978 q 74 1017 71 1008 l 144 997 z "},"î":{"ha":424,"x_min":32,"x_max":399,"o":"m 132 706 l 306 706 l 306 0 l 132 0 l 132 706 m 215 1053 l 399 864 l 363 806 l 215 890 l 68 806 l 32 864 l 215 1053 z "},"ï":{"ha":424,"x_min":-12,"x_max":443,"o":"m 132 706 l 306 706 l 306 0 l 132 0 l 132 706 m -12 921 q 15 987 -12 960 q 81 1014 42 1014 q 147 987 119 1014 q 174 921 174 960 q 147 855 174 882 q 81 828 119 828 q 15 855 42 828 q -12 921 -12 882 m 257 921 q 284 987 257 960 q 350 1014 311 1014 q 416 987 389 1014 q 443 921 443 960 q 416 855 443 882 q 350 828 389 828 q 284 855 311 828 q 257 921 257 882 z "},"ì":{"ha":424,"x_min":60,"x_max":372,"o":"m 132 706 l 306 706 l 306 0 l 132 0 l 132 706 m 340 806 q 192 856 264 818 q 60 956 121 894 l 190 1085 q 233 1000 208 1042 q 290 926 256 964 q 372 858 324 888 l 340 806 z "},"ī":{"ha":424,"x_min":-58,"x_max":489,"o":"m 132 706 l 306 706 l 306 0 l 132 0 l 132 706 m -46 935 l 489 935 l 476 817 l -58 817 l -46 935 z "},"į":{"ha":424,"x_min":99,"x_max":356,"o":"m 132 706 l 306 706 l 306 0 q 258 -51 279 -25 q 226 -103 240 -75 q 213 -160 213 -131 q 223 -196 213 -178 q 256 -214 233 -214 q 281 -208 269 -214 q 288 -201 286 -206 l 356 -312 q 323 -342 346 -326 q 256 -358 300 -358 q 196 -346 224 -358 q 146 -312 168 -333 q 111 -261 124 -290 q 99 -197 99 -232 q 112 -135 99 -164 q 144 -81 125 -106 q 185 -35 163 -56 q 226 0 207 -15 l 132 0 l 132 706 m 111 908 q 142 985 111 953 q 218 1017 174 1017 q 294 985 263 1017 q 326 908 326 953 q 294 833 326 864 q 218 801 263 801 q 142 833 174 801 q 111 908 111 864 z "},"ĩ":{"ha":424,"x_min":-68,"x_max":499,"o":"m 132 706 l 306 706 l 306 0 l 132 0 l 132 706 m 499 1003 q 491 943 497 978 q 469 876 485 908 q 425 821 454 843 q 349 799 396 799 q 278 815 315 799 q 206 852 242 832 q 138 889 169 872 q 82 906 106 906 q 43 897 58 906 q 19 876 28 889 q 6 851 10 864 q 0 828 1 838 l -68 828 q -60 888 -67 853 q -39 955 -54 922 q 6 1010 -24 988 q 82 1032 35 1032 q 153 1015 115 1032 q 226 978 190 999 q 294 942 263 958 q 349 925 325 925 q 388 933 372 925 q 412 954 403 942 q 425 980 421 967 q 431 1003 429 993 l 499 1003 z "},"æ":{"ha":1343,"x_min":63,"x_max":1301,"o":"m 1225 97 q 1108 17 1175 46 q 964 -11 1042 -11 q 779 40 863 -11 l 779 0 l 606 0 l 606 108 q 553 44 581 68 q 499 8 525 21 q 448 -8 472 -4 q 407 -11 424 -11 q 274 19 336 -11 q 165 100 211 49 q 90 218 118 151 q 63 358 63 285 q 93 502 63 436 q 172 616 124 568 q 283 690 221 664 q 407 717 344 717 q 446 715 424 717 q 494 706 468 713 q 548 683 519 699 q 606 643 576 668 l 606 706 l 779 717 l 779 664 q 866 703 819 689 q 964 717 913 717 q 1029 710 993 717 q 1103 687 1065 704 q 1176 640 1140 669 q 1240 566 1211 611 q 1285 456 1268 521 q 1301 306 1301 392 l 783 306 q 848 192 799 236 q 964 147 897 147 q 1108 214 1050 147 l 1225 97 m 236 353 q 251 272 236 310 q 292 207 265 235 q 353 163 318 179 q 428 147 388 147 q 503 163 468 147 q 565 207 539 179 q 606 272 590 235 q 621 353 621 310 q 606 433 621 396 q 565 499 590 471 q 503 542 539 526 q 428 558 468 558 q 353 542 388 558 q 292 499 318 526 q 251 433 265 471 q 236 353 236 396 m 964 558 q 862 524 907 558 q 794 438 817 490 l 1122 438 q 1094 496 1113 472 q 1054 533 1076 519 q 1008 553 1032 547 q 964 558 985 558 z "},"œ":{"ha":1347,"x_min":63,"x_max":1306,"o":"m 1229 97 q 1113 17 1179 46 q 968 -11 1046 -11 q 817 22 888 -11 q 697 114 747 56 q 576 22 647 56 q 426 -11 506 -11 q 287 18 353 -11 q 171 97 221 47 q 92 213 121 147 q 63 353 63 279 q 92 492 63 426 q 171 608 121 558 q 287 688 221 658 q 426 717 353 717 q 576 683 506 717 q 697 592 646 650 q 817 683 747 650 q 968 717 886 717 q 1033 710 997 717 q 1107 687 1069 704 q 1180 640 1144 669 q 1244 566 1215 611 q 1289 456 1272 521 q 1306 306 1306 392 l 788 306 q 852 192 803 236 q 968 147 901 147 q 1113 214 1054 147 l 1229 97 m 243 353 q 258 272 243 310 q 297 207 272 235 q 356 163 322 179 q 426 147 389 147 q 497 163 464 147 q 556 207 531 179 q 595 272 581 235 q 610 353 610 310 q 595 433 610 396 q 556 499 581 471 q 497 542 531 526 q 426 558 464 558 q 356 542 389 558 q 297 499 322 526 q 258 433 272 471 q 243 353 243 396 m 968 558 q 866 524 911 558 q 799 438 821 490 l 1126 438 q 1099 496 1117 472 q 1058 533 1081 519 q 1013 553 1036 547 q 968 558 989 558 z "},"÷":{"ha":969,"x_min":132,"x_max":838,"o":"m 379 94 q 410 169 379 139 q 485 200 440 200 q 560 169 529 200 q 590 94 590 139 q 560 19 590 50 q 485 -11 529 -11 q 410 19 440 -11 q 379 94 379 50 m 379 600 q 410 675 379 644 q 485 706 440 706 q 560 675 529 706 q 590 600 590 644 q 560 525 590 556 q 485 494 529 494 q 410 525 440 494 q 379 600 379 556 m 132 443 l 838 443 l 838 285 l 132 285 l 132 443 z "},"¡":{"ha":503,"x_min":201,"x_max":413,"o":"m 201 850 q 232 925 201 894 q 307 956 263 956 q 382 925 351 956 q 413 850 413 894 q 382 775 413 806 q 307 744 351 744 q 232 775 263 744 q 201 850 201 806 m 239 626 l 375 626 l 400 314 l 400 0 l 214 0 l 214 314 l 239 626 z "},"¿":{"ha":667,"x_min":104,"x_max":632,"o":"m 474 419 q 368 407 408 419 q 306 374 328 394 q 276 326 283 353 q 268 269 268 299 q 278 222 268 244 q 304 183 288 200 q 344 157 321 167 q 392 147 367 147 q 464 171 429 147 q 513 233 499 194 l 632 119 q 594 72 617 94 q 541 30 571 49 q 473 0 511 11 q 392 -11 435 -11 q 280 12 332 -11 q 189 74 228 35 q 127 165 150 113 q 104 276 104 217 q 121 372 104 326 q 166 453 138 417 q 233 514 194 489 q 317 547 272 539 l 324 654 l 460 654 l 474 419 m 497 850 q 467 775 497 806 q 392 744 436 744 q 317 775 347 744 q 286 850 286 806 q 317 925 286 894 q 392 956 347 956 q 467 925 436 956 q 497 850 497 894 z "},"%":{"ha":1235,"x_min":69,"x_max":1165,"o":"m 663 944 l 842 944 l 574 0 l 393 0 l 663 944 m 199 708 q 224 617 199 654 q 286 579 250 579 q 349 617 322 579 q 375 708 375 654 q 349 801 375 763 q 286 839 322 839 q 224 801 250 839 q 199 708 199 763 m 69 708 q 86 805 69 760 q 132 883 103 850 q 201 936 161 917 q 286 956 240 956 q 372 936 332 956 q 440 883 411 917 q 487 805 469 850 q 504 708 504 760 q 487 613 504 657 q 440 535 469 568 q 372 482 411 501 q 286 463 332 463 q 201 482 240 463 q 132 535 161 501 q 86 613 103 568 q 69 708 69 657 m 860 235 q 885 143 860 181 q 947 106 911 106 q 1010 143 983 106 q 1036 235 1036 181 q 1010 327 1036 289 q 947 365 983 365 q 885 327 911 365 q 860 235 860 289 m 731 235 q 747 331 731 286 q 793 410 764 376 q 862 463 822 443 q 947 482 901 482 q 1033 463 993 482 q 1101 410 1072 443 q 1148 331 1131 376 q 1165 235 1165 286 q 1148 139 1165 183 q 1101 61 1131 94 q 1033 8 1072 28 q 947 -11 993 -11 q 862 8 901 -11 q 793 61 822 28 q 747 139 764 94 q 731 235 731 183 z "},"B":{"ha":846,"x_min":132,"x_max":769,"o":"m 638 496 q 686 455 663 478 q 728 404 710 432 q 758 343 747 376 q 769 269 769 310 q 747 149 769 200 q 685 65 725 99 q 586 16 644 32 q 457 0 528 0 l 132 0 l 132 944 l 422 944 q 547 928 489 944 q 647 878 604 911 q 713 795 689 844 q 736 681 736 746 q 705 569 736 614 q 638 496 674 524 m 321 563 l 422 563 q 486 571 461 563 q 524 594 511 579 q 542 631 538 610 q 547 675 547 651 q 542 707 547 690 q 522 738 536 724 q 484 762 508 753 q 422 771 460 771 l 321 771 l 321 563 m 446 174 q 550 203 519 174 q 581 281 581 232 q 544 373 581 349 q 446 397 508 397 l 321 397 l 321 174 l 446 174 z "},"C":{"ha":939,"x_min":76,"x_max":897,"o":"m 892 129 q 740 26 826 63 q 554 -11 654 -11 q 368 27 456 -11 q 216 131 281 65 q 114 284 151 196 q 76 472 76 372 q 114 660 76 572 q 216 814 151 749 q 368 917 281 879 q 554 956 456 956 q 744 917 657 956 q 897 808 831 878 l 761 688 q 669 757 721 732 q 554 782 617 782 q 442 758 494 782 q 350 691 389 733 q 288 592 311 649 q 265 472 265 536 q 288 352 265 408 q 350 253 311 296 q 442 187 389 211 q 554 163 494 163 q 669 188 617 163 q 763 258 722 214 l 892 129 z "}}}
